G75*
%MOIN*%
%OFA0B0*%
%FSLAX25Y25*%
%IPPOS*%
%LPD*%
%AMOC8*
5,1,8,0,0,1.08239X$1,22.5*
%
%ADD10C,0.00000*%
D10*
X0038395Y0009000D02*
X0038395Y0402051D01*
X0431416Y0402051D01*
X0431466Y0009050D01*
X0038395Y0009000D01*
X0044695Y0021600D02*
X0044697Y0021758D01*
X0044703Y0021917D01*
X0044713Y0022075D01*
X0044727Y0022232D01*
X0044745Y0022390D01*
X0044766Y0022546D01*
X0044792Y0022703D01*
X0044822Y0022858D01*
X0044855Y0023013D01*
X0044893Y0023167D01*
X0044934Y0023320D01*
X0044979Y0023471D01*
X0045028Y0023622D01*
X0045081Y0023771D01*
X0045137Y0023919D01*
X0045198Y0024066D01*
X0045261Y0024211D01*
X0045329Y0024354D01*
X0045400Y0024495D01*
X0045474Y0024635D01*
X0045552Y0024773D01*
X0045634Y0024909D01*
X0045719Y0025042D01*
X0045807Y0025174D01*
X0045898Y0025303D01*
X0045993Y0025430D01*
X0046091Y0025554D01*
X0046192Y0025676D01*
X0046296Y0025796D01*
X0046402Y0025913D01*
X0046512Y0026027D01*
X0046625Y0026138D01*
X0046740Y0026246D01*
X0046859Y0026352D01*
X0046979Y0026454D01*
X0047102Y0026554D01*
X0047228Y0026650D01*
X0047356Y0026743D01*
X0047487Y0026833D01*
X0047619Y0026919D01*
X0047754Y0027002D01*
X0047891Y0027082D01*
X0048030Y0027158D01*
X0048170Y0027231D01*
X0048313Y0027300D01*
X0048457Y0027366D01*
X0048602Y0027428D01*
X0048750Y0027486D01*
X0048898Y0027541D01*
X0049048Y0027592D01*
X0049199Y0027639D01*
X0049352Y0027682D01*
X0049505Y0027721D01*
X0049659Y0027757D01*
X0049814Y0027788D01*
X0049970Y0027816D01*
X0050127Y0027840D01*
X0050284Y0027860D01*
X0050442Y0027876D01*
X0050599Y0027888D01*
X0050758Y0027896D01*
X0050916Y0027900D01*
X0051074Y0027900D01*
X0051232Y0027896D01*
X0051391Y0027888D01*
X0051548Y0027876D01*
X0051706Y0027860D01*
X0051863Y0027840D01*
X0052020Y0027816D01*
X0052176Y0027788D01*
X0052331Y0027757D01*
X0052485Y0027721D01*
X0052638Y0027682D01*
X0052791Y0027639D01*
X0052942Y0027592D01*
X0053092Y0027541D01*
X0053240Y0027486D01*
X0053388Y0027428D01*
X0053533Y0027366D01*
X0053677Y0027300D01*
X0053820Y0027231D01*
X0053960Y0027158D01*
X0054099Y0027082D01*
X0054236Y0027002D01*
X0054371Y0026919D01*
X0054503Y0026833D01*
X0054634Y0026743D01*
X0054762Y0026650D01*
X0054888Y0026554D01*
X0055011Y0026454D01*
X0055131Y0026352D01*
X0055250Y0026246D01*
X0055365Y0026138D01*
X0055478Y0026027D01*
X0055588Y0025913D01*
X0055694Y0025796D01*
X0055798Y0025676D01*
X0055899Y0025554D01*
X0055997Y0025430D01*
X0056092Y0025303D01*
X0056183Y0025174D01*
X0056271Y0025042D01*
X0056356Y0024909D01*
X0056438Y0024773D01*
X0056516Y0024635D01*
X0056590Y0024495D01*
X0056661Y0024354D01*
X0056729Y0024211D01*
X0056792Y0024066D01*
X0056853Y0023919D01*
X0056909Y0023771D01*
X0056962Y0023622D01*
X0057011Y0023471D01*
X0057056Y0023320D01*
X0057097Y0023167D01*
X0057135Y0023013D01*
X0057168Y0022858D01*
X0057198Y0022703D01*
X0057224Y0022546D01*
X0057245Y0022390D01*
X0057263Y0022232D01*
X0057277Y0022075D01*
X0057287Y0021917D01*
X0057293Y0021758D01*
X0057295Y0021600D01*
X0057293Y0021442D01*
X0057287Y0021283D01*
X0057277Y0021125D01*
X0057263Y0020968D01*
X0057245Y0020810D01*
X0057224Y0020654D01*
X0057198Y0020497D01*
X0057168Y0020342D01*
X0057135Y0020187D01*
X0057097Y0020033D01*
X0057056Y0019880D01*
X0057011Y0019729D01*
X0056962Y0019578D01*
X0056909Y0019429D01*
X0056853Y0019281D01*
X0056792Y0019134D01*
X0056729Y0018989D01*
X0056661Y0018846D01*
X0056590Y0018705D01*
X0056516Y0018565D01*
X0056438Y0018427D01*
X0056356Y0018291D01*
X0056271Y0018158D01*
X0056183Y0018026D01*
X0056092Y0017897D01*
X0055997Y0017770D01*
X0055899Y0017646D01*
X0055798Y0017524D01*
X0055694Y0017404D01*
X0055588Y0017287D01*
X0055478Y0017173D01*
X0055365Y0017062D01*
X0055250Y0016954D01*
X0055131Y0016848D01*
X0055011Y0016746D01*
X0054888Y0016646D01*
X0054762Y0016550D01*
X0054634Y0016457D01*
X0054503Y0016367D01*
X0054371Y0016281D01*
X0054236Y0016198D01*
X0054099Y0016118D01*
X0053960Y0016042D01*
X0053820Y0015969D01*
X0053677Y0015900D01*
X0053533Y0015834D01*
X0053388Y0015772D01*
X0053240Y0015714D01*
X0053092Y0015659D01*
X0052942Y0015608D01*
X0052791Y0015561D01*
X0052638Y0015518D01*
X0052485Y0015479D01*
X0052331Y0015443D01*
X0052176Y0015412D01*
X0052020Y0015384D01*
X0051863Y0015360D01*
X0051706Y0015340D01*
X0051548Y0015324D01*
X0051391Y0015312D01*
X0051232Y0015304D01*
X0051074Y0015300D01*
X0050916Y0015300D01*
X0050758Y0015304D01*
X0050599Y0015312D01*
X0050442Y0015324D01*
X0050284Y0015340D01*
X0050127Y0015360D01*
X0049970Y0015384D01*
X0049814Y0015412D01*
X0049659Y0015443D01*
X0049505Y0015479D01*
X0049352Y0015518D01*
X0049199Y0015561D01*
X0049048Y0015608D01*
X0048898Y0015659D01*
X0048750Y0015714D01*
X0048602Y0015772D01*
X0048457Y0015834D01*
X0048313Y0015900D01*
X0048170Y0015969D01*
X0048030Y0016042D01*
X0047891Y0016118D01*
X0047754Y0016198D01*
X0047619Y0016281D01*
X0047487Y0016367D01*
X0047356Y0016457D01*
X0047228Y0016550D01*
X0047102Y0016646D01*
X0046979Y0016746D01*
X0046859Y0016848D01*
X0046740Y0016954D01*
X0046625Y0017062D01*
X0046512Y0017173D01*
X0046402Y0017287D01*
X0046296Y0017404D01*
X0046192Y0017524D01*
X0046091Y0017646D01*
X0045993Y0017770D01*
X0045898Y0017897D01*
X0045807Y0018026D01*
X0045719Y0018158D01*
X0045634Y0018291D01*
X0045552Y0018427D01*
X0045474Y0018565D01*
X0045400Y0018705D01*
X0045329Y0018846D01*
X0045261Y0018989D01*
X0045198Y0019134D01*
X0045137Y0019281D01*
X0045081Y0019429D01*
X0045028Y0019578D01*
X0044979Y0019729D01*
X0044934Y0019880D01*
X0044893Y0020033D01*
X0044855Y0020187D01*
X0044822Y0020342D01*
X0044792Y0020497D01*
X0044766Y0020654D01*
X0044745Y0020810D01*
X0044727Y0020968D01*
X0044713Y0021125D01*
X0044703Y0021283D01*
X0044697Y0021442D01*
X0044695Y0021600D01*
X0247562Y0379200D02*
X0247564Y0379284D01*
X0247570Y0379367D01*
X0247580Y0379450D01*
X0247594Y0379533D01*
X0247611Y0379615D01*
X0247633Y0379696D01*
X0247658Y0379775D01*
X0247687Y0379854D01*
X0247720Y0379931D01*
X0247756Y0380006D01*
X0247796Y0380080D01*
X0247839Y0380152D01*
X0247886Y0380221D01*
X0247936Y0380288D01*
X0247989Y0380353D01*
X0248045Y0380415D01*
X0248103Y0380475D01*
X0248165Y0380532D01*
X0248229Y0380585D01*
X0248296Y0380636D01*
X0248365Y0380683D01*
X0248436Y0380728D01*
X0248509Y0380768D01*
X0248584Y0380805D01*
X0248661Y0380839D01*
X0248739Y0380869D01*
X0248818Y0380895D01*
X0248899Y0380918D01*
X0248981Y0380936D01*
X0249063Y0380951D01*
X0249146Y0380962D01*
X0249229Y0380969D01*
X0249313Y0380972D01*
X0249397Y0380971D01*
X0249480Y0380966D01*
X0249564Y0380957D01*
X0249646Y0380944D01*
X0249728Y0380928D01*
X0249809Y0380907D01*
X0249890Y0380883D01*
X0249968Y0380855D01*
X0250046Y0380823D01*
X0250122Y0380787D01*
X0250196Y0380748D01*
X0250268Y0380706D01*
X0250338Y0380660D01*
X0250406Y0380611D01*
X0250471Y0380559D01*
X0250534Y0380504D01*
X0250594Y0380446D01*
X0250652Y0380385D01*
X0250706Y0380321D01*
X0250758Y0380255D01*
X0250806Y0380187D01*
X0250851Y0380116D01*
X0250892Y0380043D01*
X0250931Y0379969D01*
X0250965Y0379893D01*
X0250996Y0379815D01*
X0251023Y0379736D01*
X0251047Y0379655D01*
X0251066Y0379574D01*
X0251082Y0379492D01*
X0251094Y0379409D01*
X0251102Y0379325D01*
X0251106Y0379242D01*
X0251106Y0379158D01*
X0251102Y0379075D01*
X0251094Y0378991D01*
X0251082Y0378908D01*
X0251066Y0378826D01*
X0251047Y0378745D01*
X0251023Y0378664D01*
X0250996Y0378585D01*
X0250965Y0378507D01*
X0250931Y0378431D01*
X0250892Y0378357D01*
X0250851Y0378284D01*
X0250806Y0378213D01*
X0250758Y0378145D01*
X0250706Y0378079D01*
X0250652Y0378015D01*
X0250594Y0377954D01*
X0250534Y0377896D01*
X0250471Y0377841D01*
X0250406Y0377789D01*
X0250338Y0377740D01*
X0250268Y0377694D01*
X0250196Y0377652D01*
X0250122Y0377613D01*
X0250046Y0377577D01*
X0249968Y0377545D01*
X0249890Y0377517D01*
X0249809Y0377493D01*
X0249728Y0377472D01*
X0249646Y0377456D01*
X0249564Y0377443D01*
X0249480Y0377434D01*
X0249397Y0377429D01*
X0249313Y0377428D01*
X0249229Y0377431D01*
X0249146Y0377438D01*
X0249063Y0377449D01*
X0248981Y0377464D01*
X0248899Y0377482D01*
X0248818Y0377505D01*
X0248739Y0377531D01*
X0248661Y0377561D01*
X0248584Y0377595D01*
X0248509Y0377632D01*
X0248436Y0377672D01*
X0248365Y0377717D01*
X0248296Y0377764D01*
X0248229Y0377815D01*
X0248165Y0377868D01*
X0248103Y0377925D01*
X0248045Y0377985D01*
X0247989Y0378047D01*
X0247936Y0378112D01*
X0247886Y0378179D01*
X0247839Y0378248D01*
X0247796Y0378320D01*
X0247756Y0378394D01*
X0247720Y0378469D01*
X0247687Y0378546D01*
X0247658Y0378625D01*
X0247633Y0378704D01*
X0247611Y0378785D01*
X0247594Y0378867D01*
X0247580Y0378950D01*
X0247570Y0379033D01*
X0247564Y0379116D01*
X0247562Y0379200D01*
X0264885Y0379200D02*
X0264887Y0379284D01*
X0264893Y0379367D01*
X0264903Y0379450D01*
X0264917Y0379533D01*
X0264934Y0379615D01*
X0264956Y0379696D01*
X0264981Y0379775D01*
X0265010Y0379854D01*
X0265043Y0379931D01*
X0265079Y0380006D01*
X0265119Y0380080D01*
X0265162Y0380152D01*
X0265209Y0380221D01*
X0265259Y0380288D01*
X0265312Y0380353D01*
X0265368Y0380415D01*
X0265426Y0380475D01*
X0265488Y0380532D01*
X0265552Y0380585D01*
X0265619Y0380636D01*
X0265688Y0380683D01*
X0265759Y0380728D01*
X0265832Y0380768D01*
X0265907Y0380805D01*
X0265984Y0380839D01*
X0266062Y0380869D01*
X0266141Y0380895D01*
X0266222Y0380918D01*
X0266304Y0380936D01*
X0266386Y0380951D01*
X0266469Y0380962D01*
X0266552Y0380969D01*
X0266636Y0380972D01*
X0266720Y0380971D01*
X0266803Y0380966D01*
X0266887Y0380957D01*
X0266969Y0380944D01*
X0267051Y0380928D01*
X0267132Y0380907D01*
X0267213Y0380883D01*
X0267291Y0380855D01*
X0267369Y0380823D01*
X0267445Y0380787D01*
X0267519Y0380748D01*
X0267591Y0380706D01*
X0267661Y0380660D01*
X0267729Y0380611D01*
X0267794Y0380559D01*
X0267857Y0380504D01*
X0267917Y0380446D01*
X0267975Y0380385D01*
X0268029Y0380321D01*
X0268081Y0380255D01*
X0268129Y0380187D01*
X0268174Y0380116D01*
X0268215Y0380043D01*
X0268254Y0379969D01*
X0268288Y0379893D01*
X0268319Y0379815D01*
X0268346Y0379736D01*
X0268370Y0379655D01*
X0268389Y0379574D01*
X0268405Y0379492D01*
X0268417Y0379409D01*
X0268425Y0379325D01*
X0268429Y0379242D01*
X0268429Y0379158D01*
X0268425Y0379075D01*
X0268417Y0378991D01*
X0268405Y0378908D01*
X0268389Y0378826D01*
X0268370Y0378745D01*
X0268346Y0378664D01*
X0268319Y0378585D01*
X0268288Y0378507D01*
X0268254Y0378431D01*
X0268215Y0378357D01*
X0268174Y0378284D01*
X0268129Y0378213D01*
X0268081Y0378145D01*
X0268029Y0378079D01*
X0267975Y0378015D01*
X0267917Y0377954D01*
X0267857Y0377896D01*
X0267794Y0377841D01*
X0267729Y0377789D01*
X0267661Y0377740D01*
X0267591Y0377694D01*
X0267519Y0377652D01*
X0267445Y0377613D01*
X0267369Y0377577D01*
X0267291Y0377545D01*
X0267213Y0377517D01*
X0267132Y0377493D01*
X0267051Y0377472D01*
X0266969Y0377456D01*
X0266887Y0377443D01*
X0266803Y0377434D01*
X0266720Y0377429D01*
X0266636Y0377428D01*
X0266552Y0377431D01*
X0266469Y0377438D01*
X0266386Y0377449D01*
X0266304Y0377464D01*
X0266222Y0377482D01*
X0266141Y0377505D01*
X0266062Y0377531D01*
X0265984Y0377561D01*
X0265907Y0377595D01*
X0265832Y0377632D01*
X0265759Y0377672D01*
X0265688Y0377717D01*
X0265619Y0377764D01*
X0265552Y0377815D01*
X0265488Y0377868D01*
X0265426Y0377925D01*
X0265368Y0377985D01*
X0265312Y0378047D01*
X0265259Y0378112D01*
X0265209Y0378179D01*
X0265162Y0378248D01*
X0265119Y0378320D01*
X0265079Y0378394D01*
X0265043Y0378469D01*
X0265010Y0378546D01*
X0264981Y0378625D01*
X0264956Y0378704D01*
X0264934Y0378785D01*
X0264917Y0378867D01*
X0264903Y0378950D01*
X0264893Y0379033D01*
X0264887Y0379116D01*
X0264885Y0379200D01*
X0412495Y0389400D02*
X0412497Y0389558D01*
X0412503Y0389717D01*
X0412513Y0389875D01*
X0412527Y0390032D01*
X0412545Y0390190D01*
X0412566Y0390346D01*
X0412592Y0390503D01*
X0412622Y0390658D01*
X0412655Y0390813D01*
X0412693Y0390967D01*
X0412734Y0391120D01*
X0412779Y0391271D01*
X0412828Y0391422D01*
X0412881Y0391571D01*
X0412937Y0391719D01*
X0412998Y0391866D01*
X0413061Y0392011D01*
X0413129Y0392154D01*
X0413200Y0392295D01*
X0413274Y0392435D01*
X0413352Y0392573D01*
X0413434Y0392709D01*
X0413519Y0392842D01*
X0413607Y0392974D01*
X0413698Y0393103D01*
X0413793Y0393230D01*
X0413891Y0393354D01*
X0413992Y0393476D01*
X0414096Y0393596D01*
X0414202Y0393713D01*
X0414312Y0393827D01*
X0414425Y0393938D01*
X0414540Y0394046D01*
X0414659Y0394152D01*
X0414779Y0394254D01*
X0414902Y0394354D01*
X0415028Y0394450D01*
X0415156Y0394543D01*
X0415287Y0394633D01*
X0415419Y0394719D01*
X0415554Y0394802D01*
X0415691Y0394882D01*
X0415830Y0394958D01*
X0415970Y0395031D01*
X0416113Y0395100D01*
X0416257Y0395166D01*
X0416402Y0395228D01*
X0416550Y0395286D01*
X0416698Y0395341D01*
X0416848Y0395392D01*
X0416999Y0395439D01*
X0417152Y0395482D01*
X0417305Y0395521D01*
X0417459Y0395557D01*
X0417614Y0395588D01*
X0417770Y0395616D01*
X0417927Y0395640D01*
X0418084Y0395660D01*
X0418242Y0395676D01*
X0418399Y0395688D01*
X0418558Y0395696D01*
X0418716Y0395700D01*
X0418874Y0395700D01*
X0419032Y0395696D01*
X0419191Y0395688D01*
X0419348Y0395676D01*
X0419506Y0395660D01*
X0419663Y0395640D01*
X0419820Y0395616D01*
X0419976Y0395588D01*
X0420131Y0395557D01*
X0420285Y0395521D01*
X0420438Y0395482D01*
X0420591Y0395439D01*
X0420742Y0395392D01*
X0420892Y0395341D01*
X0421040Y0395286D01*
X0421188Y0395228D01*
X0421333Y0395166D01*
X0421477Y0395100D01*
X0421620Y0395031D01*
X0421760Y0394958D01*
X0421899Y0394882D01*
X0422036Y0394802D01*
X0422171Y0394719D01*
X0422303Y0394633D01*
X0422434Y0394543D01*
X0422562Y0394450D01*
X0422688Y0394354D01*
X0422811Y0394254D01*
X0422931Y0394152D01*
X0423050Y0394046D01*
X0423165Y0393938D01*
X0423278Y0393827D01*
X0423388Y0393713D01*
X0423494Y0393596D01*
X0423598Y0393476D01*
X0423699Y0393354D01*
X0423797Y0393230D01*
X0423892Y0393103D01*
X0423983Y0392974D01*
X0424071Y0392842D01*
X0424156Y0392709D01*
X0424238Y0392573D01*
X0424316Y0392435D01*
X0424390Y0392295D01*
X0424461Y0392154D01*
X0424529Y0392011D01*
X0424592Y0391866D01*
X0424653Y0391719D01*
X0424709Y0391571D01*
X0424762Y0391422D01*
X0424811Y0391271D01*
X0424856Y0391120D01*
X0424897Y0390967D01*
X0424935Y0390813D01*
X0424968Y0390658D01*
X0424998Y0390503D01*
X0425024Y0390346D01*
X0425045Y0390190D01*
X0425063Y0390032D01*
X0425077Y0389875D01*
X0425087Y0389717D01*
X0425093Y0389558D01*
X0425095Y0389400D01*
X0425093Y0389242D01*
X0425087Y0389083D01*
X0425077Y0388925D01*
X0425063Y0388768D01*
X0425045Y0388610D01*
X0425024Y0388454D01*
X0424998Y0388297D01*
X0424968Y0388142D01*
X0424935Y0387987D01*
X0424897Y0387833D01*
X0424856Y0387680D01*
X0424811Y0387529D01*
X0424762Y0387378D01*
X0424709Y0387229D01*
X0424653Y0387081D01*
X0424592Y0386934D01*
X0424529Y0386789D01*
X0424461Y0386646D01*
X0424390Y0386505D01*
X0424316Y0386365D01*
X0424238Y0386227D01*
X0424156Y0386091D01*
X0424071Y0385958D01*
X0423983Y0385826D01*
X0423892Y0385697D01*
X0423797Y0385570D01*
X0423699Y0385446D01*
X0423598Y0385324D01*
X0423494Y0385204D01*
X0423388Y0385087D01*
X0423278Y0384973D01*
X0423165Y0384862D01*
X0423050Y0384754D01*
X0422931Y0384648D01*
X0422811Y0384546D01*
X0422688Y0384446D01*
X0422562Y0384350D01*
X0422434Y0384257D01*
X0422303Y0384167D01*
X0422171Y0384081D01*
X0422036Y0383998D01*
X0421899Y0383918D01*
X0421760Y0383842D01*
X0421620Y0383769D01*
X0421477Y0383700D01*
X0421333Y0383634D01*
X0421188Y0383572D01*
X0421040Y0383514D01*
X0420892Y0383459D01*
X0420742Y0383408D01*
X0420591Y0383361D01*
X0420438Y0383318D01*
X0420285Y0383279D01*
X0420131Y0383243D01*
X0419976Y0383212D01*
X0419820Y0383184D01*
X0419663Y0383160D01*
X0419506Y0383140D01*
X0419348Y0383124D01*
X0419191Y0383112D01*
X0419032Y0383104D01*
X0418874Y0383100D01*
X0418716Y0383100D01*
X0418558Y0383104D01*
X0418399Y0383112D01*
X0418242Y0383124D01*
X0418084Y0383140D01*
X0417927Y0383160D01*
X0417770Y0383184D01*
X0417614Y0383212D01*
X0417459Y0383243D01*
X0417305Y0383279D01*
X0417152Y0383318D01*
X0416999Y0383361D01*
X0416848Y0383408D01*
X0416698Y0383459D01*
X0416550Y0383514D01*
X0416402Y0383572D01*
X0416257Y0383634D01*
X0416113Y0383700D01*
X0415970Y0383769D01*
X0415830Y0383842D01*
X0415691Y0383918D01*
X0415554Y0383998D01*
X0415419Y0384081D01*
X0415287Y0384167D01*
X0415156Y0384257D01*
X0415028Y0384350D01*
X0414902Y0384446D01*
X0414779Y0384546D01*
X0414659Y0384648D01*
X0414540Y0384754D01*
X0414425Y0384862D01*
X0414312Y0384973D01*
X0414202Y0385087D01*
X0414096Y0385204D01*
X0413992Y0385324D01*
X0413891Y0385446D01*
X0413793Y0385570D01*
X0413698Y0385697D01*
X0413607Y0385826D01*
X0413519Y0385958D01*
X0413434Y0386091D01*
X0413352Y0386227D01*
X0413274Y0386365D01*
X0413200Y0386505D01*
X0413129Y0386646D01*
X0413061Y0386789D01*
X0412998Y0386934D01*
X0412937Y0387081D01*
X0412881Y0387229D01*
X0412828Y0387378D01*
X0412779Y0387529D01*
X0412734Y0387680D01*
X0412693Y0387833D01*
X0412655Y0387987D01*
X0412622Y0388142D01*
X0412592Y0388297D01*
X0412566Y0388454D01*
X0412545Y0388610D01*
X0412527Y0388768D01*
X0412513Y0388925D01*
X0412503Y0389083D01*
X0412497Y0389242D01*
X0412495Y0389400D01*
X0044695Y0389400D02*
X0044697Y0389558D01*
X0044703Y0389717D01*
X0044713Y0389875D01*
X0044727Y0390032D01*
X0044745Y0390190D01*
X0044766Y0390346D01*
X0044792Y0390503D01*
X0044822Y0390658D01*
X0044855Y0390813D01*
X0044893Y0390967D01*
X0044934Y0391120D01*
X0044979Y0391271D01*
X0045028Y0391422D01*
X0045081Y0391571D01*
X0045137Y0391719D01*
X0045198Y0391866D01*
X0045261Y0392011D01*
X0045329Y0392154D01*
X0045400Y0392295D01*
X0045474Y0392435D01*
X0045552Y0392573D01*
X0045634Y0392709D01*
X0045719Y0392842D01*
X0045807Y0392974D01*
X0045898Y0393103D01*
X0045993Y0393230D01*
X0046091Y0393354D01*
X0046192Y0393476D01*
X0046296Y0393596D01*
X0046402Y0393713D01*
X0046512Y0393827D01*
X0046625Y0393938D01*
X0046740Y0394046D01*
X0046859Y0394152D01*
X0046979Y0394254D01*
X0047102Y0394354D01*
X0047228Y0394450D01*
X0047356Y0394543D01*
X0047487Y0394633D01*
X0047619Y0394719D01*
X0047754Y0394802D01*
X0047891Y0394882D01*
X0048030Y0394958D01*
X0048170Y0395031D01*
X0048313Y0395100D01*
X0048457Y0395166D01*
X0048602Y0395228D01*
X0048750Y0395286D01*
X0048898Y0395341D01*
X0049048Y0395392D01*
X0049199Y0395439D01*
X0049352Y0395482D01*
X0049505Y0395521D01*
X0049659Y0395557D01*
X0049814Y0395588D01*
X0049970Y0395616D01*
X0050127Y0395640D01*
X0050284Y0395660D01*
X0050442Y0395676D01*
X0050599Y0395688D01*
X0050758Y0395696D01*
X0050916Y0395700D01*
X0051074Y0395700D01*
X0051232Y0395696D01*
X0051391Y0395688D01*
X0051548Y0395676D01*
X0051706Y0395660D01*
X0051863Y0395640D01*
X0052020Y0395616D01*
X0052176Y0395588D01*
X0052331Y0395557D01*
X0052485Y0395521D01*
X0052638Y0395482D01*
X0052791Y0395439D01*
X0052942Y0395392D01*
X0053092Y0395341D01*
X0053240Y0395286D01*
X0053388Y0395228D01*
X0053533Y0395166D01*
X0053677Y0395100D01*
X0053820Y0395031D01*
X0053960Y0394958D01*
X0054099Y0394882D01*
X0054236Y0394802D01*
X0054371Y0394719D01*
X0054503Y0394633D01*
X0054634Y0394543D01*
X0054762Y0394450D01*
X0054888Y0394354D01*
X0055011Y0394254D01*
X0055131Y0394152D01*
X0055250Y0394046D01*
X0055365Y0393938D01*
X0055478Y0393827D01*
X0055588Y0393713D01*
X0055694Y0393596D01*
X0055798Y0393476D01*
X0055899Y0393354D01*
X0055997Y0393230D01*
X0056092Y0393103D01*
X0056183Y0392974D01*
X0056271Y0392842D01*
X0056356Y0392709D01*
X0056438Y0392573D01*
X0056516Y0392435D01*
X0056590Y0392295D01*
X0056661Y0392154D01*
X0056729Y0392011D01*
X0056792Y0391866D01*
X0056853Y0391719D01*
X0056909Y0391571D01*
X0056962Y0391422D01*
X0057011Y0391271D01*
X0057056Y0391120D01*
X0057097Y0390967D01*
X0057135Y0390813D01*
X0057168Y0390658D01*
X0057198Y0390503D01*
X0057224Y0390346D01*
X0057245Y0390190D01*
X0057263Y0390032D01*
X0057277Y0389875D01*
X0057287Y0389717D01*
X0057293Y0389558D01*
X0057295Y0389400D01*
X0057293Y0389242D01*
X0057287Y0389083D01*
X0057277Y0388925D01*
X0057263Y0388768D01*
X0057245Y0388610D01*
X0057224Y0388454D01*
X0057198Y0388297D01*
X0057168Y0388142D01*
X0057135Y0387987D01*
X0057097Y0387833D01*
X0057056Y0387680D01*
X0057011Y0387529D01*
X0056962Y0387378D01*
X0056909Y0387229D01*
X0056853Y0387081D01*
X0056792Y0386934D01*
X0056729Y0386789D01*
X0056661Y0386646D01*
X0056590Y0386505D01*
X0056516Y0386365D01*
X0056438Y0386227D01*
X0056356Y0386091D01*
X0056271Y0385958D01*
X0056183Y0385826D01*
X0056092Y0385697D01*
X0055997Y0385570D01*
X0055899Y0385446D01*
X0055798Y0385324D01*
X0055694Y0385204D01*
X0055588Y0385087D01*
X0055478Y0384973D01*
X0055365Y0384862D01*
X0055250Y0384754D01*
X0055131Y0384648D01*
X0055011Y0384546D01*
X0054888Y0384446D01*
X0054762Y0384350D01*
X0054634Y0384257D01*
X0054503Y0384167D01*
X0054371Y0384081D01*
X0054236Y0383998D01*
X0054099Y0383918D01*
X0053960Y0383842D01*
X0053820Y0383769D01*
X0053677Y0383700D01*
X0053533Y0383634D01*
X0053388Y0383572D01*
X0053240Y0383514D01*
X0053092Y0383459D01*
X0052942Y0383408D01*
X0052791Y0383361D01*
X0052638Y0383318D01*
X0052485Y0383279D01*
X0052331Y0383243D01*
X0052176Y0383212D01*
X0052020Y0383184D01*
X0051863Y0383160D01*
X0051706Y0383140D01*
X0051548Y0383124D01*
X0051391Y0383112D01*
X0051232Y0383104D01*
X0051074Y0383100D01*
X0050916Y0383100D01*
X0050758Y0383104D01*
X0050599Y0383112D01*
X0050442Y0383124D01*
X0050284Y0383140D01*
X0050127Y0383160D01*
X0049970Y0383184D01*
X0049814Y0383212D01*
X0049659Y0383243D01*
X0049505Y0383279D01*
X0049352Y0383318D01*
X0049199Y0383361D01*
X0049048Y0383408D01*
X0048898Y0383459D01*
X0048750Y0383514D01*
X0048602Y0383572D01*
X0048457Y0383634D01*
X0048313Y0383700D01*
X0048170Y0383769D01*
X0048030Y0383842D01*
X0047891Y0383918D01*
X0047754Y0383998D01*
X0047619Y0384081D01*
X0047487Y0384167D01*
X0047356Y0384257D01*
X0047228Y0384350D01*
X0047102Y0384446D01*
X0046979Y0384546D01*
X0046859Y0384648D01*
X0046740Y0384754D01*
X0046625Y0384862D01*
X0046512Y0384973D01*
X0046402Y0385087D01*
X0046296Y0385204D01*
X0046192Y0385324D01*
X0046091Y0385446D01*
X0045993Y0385570D01*
X0045898Y0385697D01*
X0045807Y0385826D01*
X0045719Y0385958D01*
X0045634Y0386091D01*
X0045552Y0386227D01*
X0045474Y0386365D01*
X0045400Y0386505D01*
X0045329Y0386646D01*
X0045261Y0386789D01*
X0045198Y0386934D01*
X0045137Y0387081D01*
X0045081Y0387229D01*
X0045028Y0387378D01*
X0044979Y0387529D01*
X0044934Y0387680D01*
X0044893Y0387833D01*
X0044855Y0387987D01*
X0044822Y0388142D01*
X0044792Y0388297D01*
X0044766Y0388454D01*
X0044745Y0388610D01*
X0044727Y0388768D01*
X0044713Y0388925D01*
X0044703Y0389083D01*
X0044697Y0389242D01*
X0044695Y0389400D01*
X0412495Y0021600D02*
X0412497Y0021758D01*
X0412503Y0021917D01*
X0412513Y0022075D01*
X0412527Y0022232D01*
X0412545Y0022390D01*
X0412566Y0022546D01*
X0412592Y0022703D01*
X0412622Y0022858D01*
X0412655Y0023013D01*
X0412693Y0023167D01*
X0412734Y0023320D01*
X0412779Y0023471D01*
X0412828Y0023622D01*
X0412881Y0023771D01*
X0412937Y0023919D01*
X0412998Y0024066D01*
X0413061Y0024211D01*
X0413129Y0024354D01*
X0413200Y0024495D01*
X0413274Y0024635D01*
X0413352Y0024773D01*
X0413434Y0024909D01*
X0413519Y0025042D01*
X0413607Y0025174D01*
X0413698Y0025303D01*
X0413793Y0025430D01*
X0413891Y0025554D01*
X0413992Y0025676D01*
X0414096Y0025796D01*
X0414202Y0025913D01*
X0414312Y0026027D01*
X0414425Y0026138D01*
X0414540Y0026246D01*
X0414659Y0026352D01*
X0414779Y0026454D01*
X0414902Y0026554D01*
X0415028Y0026650D01*
X0415156Y0026743D01*
X0415287Y0026833D01*
X0415419Y0026919D01*
X0415554Y0027002D01*
X0415691Y0027082D01*
X0415830Y0027158D01*
X0415970Y0027231D01*
X0416113Y0027300D01*
X0416257Y0027366D01*
X0416402Y0027428D01*
X0416550Y0027486D01*
X0416698Y0027541D01*
X0416848Y0027592D01*
X0416999Y0027639D01*
X0417152Y0027682D01*
X0417305Y0027721D01*
X0417459Y0027757D01*
X0417614Y0027788D01*
X0417770Y0027816D01*
X0417927Y0027840D01*
X0418084Y0027860D01*
X0418242Y0027876D01*
X0418399Y0027888D01*
X0418558Y0027896D01*
X0418716Y0027900D01*
X0418874Y0027900D01*
X0419032Y0027896D01*
X0419191Y0027888D01*
X0419348Y0027876D01*
X0419506Y0027860D01*
X0419663Y0027840D01*
X0419820Y0027816D01*
X0419976Y0027788D01*
X0420131Y0027757D01*
X0420285Y0027721D01*
X0420438Y0027682D01*
X0420591Y0027639D01*
X0420742Y0027592D01*
X0420892Y0027541D01*
X0421040Y0027486D01*
X0421188Y0027428D01*
X0421333Y0027366D01*
X0421477Y0027300D01*
X0421620Y0027231D01*
X0421760Y0027158D01*
X0421899Y0027082D01*
X0422036Y0027002D01*
X0422171Y0026919D01*
X0422303Y0026833D01*
X0422434Y0026743D01*
X0422562Y0026650D01*
X0422688Y0026554D01*
X0422811Y0026454D01*
X0422931Y0026352D01*
X0423050Y0026246D01*
X0423165Y0026138D01*
X0423278Y0026027D01*
X0423388Y0025913D01*
X0423494Y0025796D01*
X0423598Y0025676D01*
X0423699Y0025554D01*
X0423797Y0025430D01*
X0423892Y0025303D01*
X0423983Y0025174D01*
X0424071Y0025042D01*
X0424156Y0024909D01*
X0424238Y0024773D01*
X0424316Y0024635D01*
X0424390Y0024495D01*
X0424461Y0024354D01*
X0424529Y0024211D01*
X0424592Y0024066D01*
X0424653Y0023919D01*
X0424709Y0023771D01*
X0424762Y0023622D01*
X0424811Y0023471D01*
X0424856Y0023320D01*
X0424897Y0023167D01*
X0424935Y0023013D01*
X0424968Y0022858D01*
X0424998Y0022703D01*
X0425024Y0022546D01*
X0425045Y0022390D01*
X0425063Y0022232D01*
X0425077Y0022075D01*
X0425087Y0021917D01*
X0425093Y0021758D01*
X0425095Y0021600D01*
X0425093Y0021442D01*
X0425087Y0021283D01*
X0425077Y0021125D01*
X0425063Y0020968D01*
X0425045Y0020810D01*
X0425024Y0020654D01*
X0424998Y0020497D01*
X0424968Y0020342D01*
X0424935Y0020187D01*
X0424897Y0020033D01*
X0424856Y0019880D01*
X0424811Y0019729D01*
X0424762Y0019578D01*
X0424709Y0019429D01*
X0424653Y0019281D01*
X0424592Y0019134D01*
X0424529Y0018989D01*
X0424461Y0018846D01*
X0424390Y0018705D01*
X0424316Y0018565D01*
X0424238Y0018427D01*
X0424156Y0018291D01*
X0424071Y0018158D01*
X0423983Y0018026D01*
X0423892Y0017897D01*
X0423797Y0017770D01*
X0423699Y0017646D01*
X0423598Y0017524D01*
X0423494Y0017404D01*
X0423388Y0017287D01*
X0423278Y0017173D01*
X0423165Y0017062D01*
X0423050Y0016954D01*
X0422931Y0016848D01*
X0422811Y0016746D01*
X0422688Y0016646D01*
X0422562Y0016550D01*
X0422434Y0016457D01*
X0422303Y0016367D01*
X0422171Y0016281D01*
X0422036Y0016198D01*
X0421899Y0016118D01*
X0421760Y0016042D01*
X0421620Y0015969D01*
X0421477Y0015900D01*
X0421333Y0015834D01*
X0421188Y0015772D01*
X0421040Y0015714D01*
X0420892Y0015659D01*
X0420742Y0015608D01*
X0420591Y0015561D01*
X0420438Y0015518D01*
X0420285Y0015479D01*
X0420131Y0015443D01*
X0419976Y0015412D01*
X0419820Y0015384D01*
X0419663Y0015360D01*
X0419506Y0015340D01*
X0419348Y0015324D01*
X0419191Y0015312D01*
X0419032Y0015304D01*
X0418874Y0015300D01*
X0418716Y0015300D01*
X0418558Y0015304D01*
X0418399Y0015312D01*
X0418242Y0015324D01*
X0418084Y0015340D01*
X0417927Y0015360D01*
X0417770Y0015384D01*
X0417614Y0015412D01*
X0417459Y0015443D01*
X0417305Y0015479D01*
X0417152Y0015518D01*
X0416999Y0015561D01*
X0416848Y0015608D01*
X0416698Y0015659D01*
X0416550Y0015714D01*
X0416402Y0015772D01*
X0416257Y0015834D01*
X0416113Y0015900D01*
X0415970Y0015969D01*
X0415830Y0016042D01*
X0415691Y0016118D01*
X0415554Y0016198D01*
X0415419Y0016281D01*
X0415287Y0016367D01*
X0415156Y0016457D01*
X0415028Y0016550D01*
X0414902Y0016646D01*
X0414779Y0016746D01*
X0414659Y0016848D01*
X0414540Y0016954D01*
X0414425Y0017062D01*
X0414312Y0017173D01*
X0414202Y0017287D01*
X0414096Y0017404D01*
X0413992Y0017524D01*
X0413891Y0017646D01*
X0413793Y0017770D01*
X0413698Y0017897D01*
X0413607Y0018026D01*
X0413519Y0018158D01*
X0413434Y0018291D01*
X0413352Y0018427D01*
X0413274Y0018565D01*
X0413200Y0018705D01*
X0413129Y0018846D01*
X0413061Y0018989D01*
X0412998Y0019134D01*
X0412937Y0019281D01*
X0412881Y0019429D01*
X0412828Y0019578D01*
X0412779Y0019729D01*
X0412734Y0019880D01*
X0412693Y0020033D01*
X0412655Y0020187D01*
X0412622Y0020342D01*
X0412592Y0020497D01*
X0412566Y0020654D01*
X0412545Y0020810D01*
X0412527Y0020968D01*
X0412513Y0021125D01*
X0412503Y0021283D01*
X0412497Y0021442D01*
X0412495Y0021600D01*
M02*
