G75*
%MOIN*%
%OFA0B0*%
%FSLAX25Y25*%
%IPPOS*%
%LPD*%
%AMOC8*
5,1,8,0,0,1.08239X$1,22.5*
%
%ADD10R,0.01181X0.03543*%
%ADD11R,0.03543X0.01181*%
%ADD12R,0.04724X0.04724*%
%ADD13R,0.03937X0.04331*%
%ADD14R,0.04331X0.03937*%
%ADD15C,0.04800*%
%ADD16R,0.01969X0.11811*%
%ADD17R,0.09843X0.11811*%
%ADD18R,0.00984X0.04331*%
%ADD19R,0.09055X0.12205*%
%ADD20R,0.03150X0.01575*%
%ADD21R,0.01575X0.02362*%
%ADD22R,0.02362X0.08661*%
%ADD23C,0.06024*%
%ADD24C,0.05906*%
%ADD25R,0.06024X0.06024*%
%ADD26C,0.06024*%
%ADD27R,0.04724X0.02165*%
%ADD28OC8,0.06024*%
%ADD29R,0.08268X0.08268*%
%ADD30C,0.08268*%
%ADD31R,0.01575X0.05906*%
%ADD32R,0.01969X0.09843*%
%ADD33R,0.07874X0.09843*%
%ADD34R,0.05906X0.04331*%
%ADD35R,0.05669X0.03937*%
%ADD36R,0.05669X0.04724*%
%ADD37R,0.05906X0.05118*%
%ADD38R,0.05906X0.05906*%
%ADD39R,0.08661X0.20079*%
%ADD40R,0.10236X0.05709*%
%ADD41R,0.07000X0.03600*%
%ADD42R,0.06299X0.07087*%
%ADD43R,0.05709X0.10236*%
%ADD44R,0.03937X0.05512*%
%ADD45R,0.07087X0.06299*%
%ADD46R,0.11024X0.09449*%
%ADD47R,0.05118X0.05906*%
%ADD48R,0.40984X0.42520*%
%ADD49R,0.08500X0.04200*%
%ADD50R,0.05512X0.03937*%
%ADD51C,0.10000*%
%ADD52R,0.07098X0.06299*%
%ADD53R,0.13386X0.07480*%
%ADD54R,0.03600X0.07000*%
%ADD55R,0.02756X0.09291*%
%ADD56R,0.04000X0.04000*%
%ADD57C,0.04000*%
%ADD58C,0.00800*%
%ADD59C,0.02400*%
%ADD60C,0.01600*%
%ADD61C,0.02381*%
%ADD62C,0.00787*%
%ADD63C,0.02400*%
D10*
X0165023Y0094006D03*
X0166992Y0094006D03*
X0168960Y0094006D03*
X0170929Y0094006D03*
X0172897Y0094006D03*
X0174866Y0094006D03*
X0176834Y0094006D03*
X0178803Y0094006D03*
X0180771Y0094006D03*
X0182740Y0094006D03*
X0184708Y0094006D03*
X0186677Y0094006D03*
X0188645Y0094006D03*
X0190614Y0094006D03*
X0192582Y0094006D03*
X0194551Y0094006D03*
X0196519Y0094006D03*
X0198488Y0094006D03*
X0200456Y0094006D03*
X0202425Y0094006D03*
X0204393Y0094006D03*
X0206362Y0094006D03*
X0208330Y0094006D03*
X0210299Y0094006D03*
X0212267Y0094006D03*
X0212267Y0154794D03*
X0210299Y0154794D03*
X0208330Y0154794D03*
X0206362Y0154794D03*
X0204393Y0154794D03*
X0202425Y0154794D03*
X0200456Y0154794D03*
X0198488Y0154794D03*
X0196519Y0154794D03*
X0194551Y0154794D03*
X0192582Y0154794D03*
X0190614Y0154794D03*
X0188645Y0154794D03*
X0186677Y0154794D03*
X0184708Y0154794D03*
X0182740Y0154794D03*
X0180771Y0154794D03*
X0178803Y0154794D03*
X0176834Y0154794D03*
X0174866Y0154794D03*
X0172897Y0154794D03*
X0170929Y0154794D03*
X0168960Y0154794D03*
X0166992Y0154794D03*
X0165023Y0154794D03*
D11*
X0158251Y0148022D03*
X0158251Y0146054D03*
X0158251Y0144085D03*
X0158251Y0142117D03*
X0158251Y0140148D03*
X0158251Y0138180D03*
X0158251Y0136211D03*
X0158251Y0134243D03*
X0158251Y0132274D03*
X0158251Y0130306D03*
X0158251Y0128337D03*
X0158251Y0126369D03*
X0158251Y0124400D03*
X0158251Y0122431D03*
X0158251Y0120463D03*
X0158251Y0118494D03*
X0158251Y0116526D03*
X0158251Y0114557D03*
X0158251Y0112589D03*
X0158251Y0110620D03*
X0158251Y0108652D03*
X0158251Y0106683D03*
X0158251Y0104715D03*
X0158251Y0102746D03*
X0158251Y0100778D03*
X0219039Y0100778D03*
X0219039Y0102746D03*
X0219039Y0104715D03*
X0219039Y0106683D03*
X0219039Y0108652D03*
X0219039Y0110620D03*
X0219039Y0112589D03*
X0219039Y0114557D03*
X0219039Y0116526D03*
X0219039Y0118494D03*
X0219039Y0120463D03*
X0219039Y0122431D03*
X0219039Y0124400D03*
X0219039Y0126369D03*
X0219039Y0128337D03*
X0219039Y0130306D03*
X0219039Y0132274D03*
X0219039Y0134243D03*
X0219039Y0136211D03*
X0219039Y0138180D03*
X0219039Y0140148D03*
X0219039Y0142117D03*
X0219039Y0144085D03*
X0219039Y0146054D03*
X0219039Y0148022D03*
D12*
X0301145Y0145650D03*
X0301145Y0135650D03*
X0301145Y0125650D03*
X0311145Y0125650D03*
X0311145Y0135650D03*
X0311145Y0145650D03*
X0311145Y0155650D03*
X0301145Y0155650D03*
X0301145Y0165650D03*
X0301145Y0175650D03*
X0311145Y0175650D03*
X0311145Y0165650D03*
X0311145Y0185650D03*
X0301145Y0185650D03*
X0301145Y0195650D03*
X0301145Y0205650D03*
X0311145Y0205650D03*
X0311145Y0195650D03*
X0311145Y0215650D03*
X0301145Y0215650D03*
X0301145Y0225650D03*
X0301145Y0235650D03*
X0311145Y0235650D03*
X0311145Y0225650D03*
X0311145Y0245650D03*
X0301145Y0245650D03*
X0301145Y0255650D03*
X0301145Y0265650D03*
X0311145Y0265650D03*
X0311145Y0255650D03*
X0311145Y0275650D03*
X0301145Y0275650D03*
X0301145Y0285650D03*
X0301145Y0295650D03*
X0311145Y0295650D03*
X0311145Y0285650D03*
X0311145Y0305650D03*
X0301145Y0305650D03*
X0301145Y0315650D03*
X0301145Y0325650D03*
X0311145Y0325650D03*
X0311145Y0315650D03*
X0311145Y0335650D03*
X0301145Y0335650D03*
X0301145Y0345650D03*
X0301145Y0355650D03*
X0311145Y0355650D03*
X0311145Y0345650D03*
X0311145Y0365650D03*
X0301145Y0365650D03*
X0301145Y0375650D03*
X0311145Y0375650D03*
X0091614Y0373150D03*
X0091614Y0363150D03*
X0091614Y0353150D03*
X0091614Y0343150D03*
X0091614Y0333150D03*
X0091614Y0323150D03*
X0091614Y0313150D03*
X0091614Y0303150D03*
X0091614Y0293150D03*
X0091614Y0283150D03*
X0091614Y0273150D03*
X0091614Y0263150D03*
X0091614Y0253150D03*
X0091614Y0243150D03*
X0091614Y0233150D03*
X0091614Y0223150D03*
X0091614Y0213150D03*
X0091614Y0203150D03*
X0091614Y0193150D03*
X0091614Y0183150D03*
X0091614Y0173150D03*
X0091614Y0163150D03*
X0091614Y0153150D03*
X0091614Y0143150D03*
X0091614Y0133150D03*
X0091614Y0123150D03*
X0091614Y0113150D03*
X0091614Y0103150D03*
X0091614Y0093150D03*
X0091614Y0083150D03*
X0081614Y0083150D03*
X0081614Y0093150D03*
X0081614Y0103150D03*
X0081614Y0113150D03*
X0081614Y0123150D03*
X0081614Y0133150D03*
X0081614Y0143150D03*
X0081614Y0153150D03*
X0081614Y0163150D03*
X0081614Y0173150D03*
X0081614Y0183150D03*
X0081614Y0193150D03*
X0081614Y0203150D03*
X0081614Y0213150D03*
X0081614Y0223150D03*
X0081614Y0233150D03*
X0081614Y0243150D03*
X0081614Y0253150D03*
X0081614Y0263150D03*
X0081614Y0273150D03*
X0081614Y0283150D03*
X0081614Y0293150D03*
X0081614Y0303150D03*
X0081614Y0313150D03*
X0081614Y0323150D03*
X0081614Y0333150D03*
X0081614Y0343150D03*
X0081614Y0353150D03*
X0081614Y0363150D03*
X0081614Y0373150D03*
X0301145Y0115650D03*
X0301145Y0105650D03*
X0301145Y0095650D03*
X0311145Y0095650D03*
X0311145Y0105650D03*
X0311145Y0115650D03*
X0311145Y0085650D03*
X0301145Y0085650D03*
D13*
X0276942Y0083400D03*
X0270249Y0083400D03*
X0248742Y0088800D03*
X0242049Y0088800D03*
X0224895Y0056496D03*
X0224895Y0049804D03*
X0185620Y0073385D03*
X0185620Y0080078D03*
X0139492Y0068750D03*
X0132799Y0068750D03*
X0125642Y0068750D03*
X0118949Y0068750D03*
X0118949Y0060800D03*
X0125642Y0060800D03*
X0132799Y0060800D03*
X0139492Y0060800D03*
X0069595Y0111254D03*
X0069595Y0117946D03*
X0186849Y0203100D03*
X0193542Y0203100D03*
X0246249Y0207300D03*
X0252942Y0207300D03*
X0272395Y0222854D03*
X0272395Y0229546D03*
X0320649Y0019200D03*
X0327342Y0019200D03*
X0058542Y0292200D03*
X0051849Y0292200D03*
D14*
X0050395Y0281146D03*
X0050395Y0274454D03*
X0060595Y0274454D03*
X0060595Y0281146D03*
X0071395Y0288204D03*
X0071395Y0294896D03*
X0057942Y0261600D03*
X0051249Y0261600D03*
X0050995Y0215746D03*
X0050995Y0209054D03*
X0050995Y0200146D03*
X0050995Y0193454D03*
X0061195Y0193454D03*
X0061195Y0200146D03*
X0063595Y0209054D03*
X0063595Y0215746D03*
X0137845Y0217846D03*
X0137845Y0211154D03*
X0137745Y0204346D03*
X0137745Y0197654D03*
X0147245Y0197754D03*
X0147245Y0204446D03*
X0147101Y0211297D03*
X0147101Y0217990D03*
X0158845Y0217946D03*
X0158845Y0211254D03*
X0158945Y0204546D03*
X0158945Y0197854D03*
X0180299Y0170500D03*
X0186992Y0170500D03*
X0194599Y0165650D03*
X0201292Y0165650D03*
X0219049Y0165650D03*
X0225742Y0165650D03*
X0229895Y0145696D03*
X0229895Y0139004D03*
X0267845Y0098146D03*
X0267845Y0091454D03*
X0277345Y0091804D03*
X0277345Y0098496D03*
X0252595Y0064546D03*
X0252595Y0057854D03*
X0223195Y0085454D03*
X0223195Y0092146D03*
X0289195Y0201254D03*
X0289195Y0207946D03*
X0206742Y0266400D03*
X0200049Y0266400D03*
X0211195Y0334454D03*
X0211195Y0341146D03*
X0219595Y0341146D03*
X0219595Y0334454D03*
X0235449Y0354000D03*
X0242142Y0354000D03*
X0324445Y0343946D03*
X0324445Y0337254D03*
X0101745Y0137246D03*
X0101745Y0130554D03*
X0102595Y0101746D03*
X0102595Y0095054D03*
X0070295Y0097946D03*
X0070295Y0091254D03*
X0071545Y0132954D03*
X0071545Y0139646D03*
D15*
X0197895Y0183150D03*
X0216895Y0183150D03*
D16*
X0262514Y0038150D03*
X0266451Y0038150D03*
X0270388Y0038150D03*
X0274325Y0038150D03*
D17*
X0286264Y0028150D03*
X0251264Y0028150D03*
D18*
X0220781Y0035650D03*
X0218812Y0035650D03*
X0216844Y0035650D03*
X0214875Y0035650D03*
X0212907Y0035650D03*
X0210938Y0035650D03*
X0208970Y0035650D03*
X0207001Y0035650D03*
X0205033Y0035650D03*
X0203064Y0035650D03*
X0201096Y0035650D03*
X0199127Y0035650D03*
X0197159Y0035650D03*
X0195190Y0035650D03*
X0193222Y0035650D03*
X0191253Y0035650D03*
X0189285Y0035650D03*
X0187316Y0035650D03*
X0185348Y0035650D03*
X0183379Y0035650D03*
X0181411Y0035650D03*
X0179442Y0035650D03*
X0177474Y0035650D03*
X0175505Y0035650D03*
X0173537Y0035650D03*
X0171568Y0035650D03*
X0169600Y0035650D03*
X0167631Y0035650D03*
X0165663Y0035650D03*
X0163694Y0035650D03*
X0161726Y0035650D03*
X0159757Y0035650D03*
X0157789Y0035650D03*
X0155820Y0035650D03*
X0153852Y0035650D03*
X0151883Y0035650D03*
X0149915Y0035650D03*
X0147946Y0035650D03*
X0145978Y0035650D03*
X0144009Y0035650D03*
X0141995Y0035650D03*
X0140026Y0035650D03*
X0138058Y0035650D03*
X0136089Y0035650D03*
X0134121Y0035650D03*
X0132152Y0035650D03*
X0130184Y0035650D03*
X0128215Y0035650D03*
X0126247Y0035650D03*
X0124278Y0035650D03*
D19*
X0118060Y0028957D03*
X0227277Y0028957D03*
D20*
X0360095Y0217200D03*
X0360095Y0220325D03*
X0360095Y0223450D03*
X0360095Y0226575D03*
X0360095Y0229700D03*
X0360095Y0232825D03*
X0360095Y0235950D03*
X0360095Y0239075D03*
X0360095Y0242200D03*
X0360095Y0245325D03*
X0360095Y0248450D03*
X0360095Y0251575D03*
X0360095Y0254700D03*
X0360095Y0257825D03*
X0360095Y0260950D03*
X0360095Y0264075D03*
X0360095Y0267200D03*
X0360095Y0270325D03*
X0360095Y0273450D03*
X0360095Y0276575D03*
X0360095Y0279700D03*
X0360095Y0282825D03*
X0405095Y0282825D03*
X0405095Y0279700D03*
X0405095Y0276575D03*
X0405095Y0273450D03*
X0405095Y0270325D03*
X0405095Y0267200D03*
X0405095Y0264075D03*
X0405095Y0260950D03*
X0405095Y0257825D03*
X0405095Y0254700D03*
X0405095Y0251575D03*
X0405095Y0248450D03*
X0405095Y0245325D03*
X0405095Y0242200D03*
X0405095Y0239075D03*
X0405095Y0235950D03*
X0405095Y0232825D03*
X0405095Y0229700D03*
X0405095Y0226575D03*
X0405095Y0223450D03*
X0405095Y0220325D03*
X0405095Y0217200D03*
D21*
X0217864Y0058306D03*
X0214739Y0058306D03*
X0211614Y0058306D03*
X0208489Y0058306D03*
X0208489Y0052681D03*
X0211614Y0052681D03*
X0214739Y0052681D03*
X0217864Y0052681D03*
X0203839Y0052525D03*
X0200714Y0052525D03*
X0197589Y0052525D03*
X0194464Y0052525D03*
X0189814Y0052525D03*
X0186689Y0052525D03*
X0183564Y0052525D03*
X0180439Y0052525D03*
X0175645Y0053125D03*
X0172520Y0053125D03*
X0169395Y0053125D03*
X0166270Y0053125D03*
X0161614Y0052681D03*
X0158489Y0052681D03*
X0155364Y0052681D03*
X0152239Y0052681D03*
X0152239Y0058306D03*
X0155364Y0058306D03*
X0158489Y0058306D03*
X0161614Y0058306D03*
X0166270Y0058750D03*
X0169395Y0058750D03*
X0172520Y0058750D03*
X0175645Y0058750D03*
X0180439Y0058150D03*
X0183564Y0058150D03*
X0186689Y0058150D03*
X0189814Y0058150D03*
X0194464Y0058150D03*
X0197589Y0058150D03*
X0200714Y0058150D03*
X0203839Y0058150D03*
X0122395Y0192375D03*
X0119270Y0192375D03*
X0116145Y0192375D03*
X0113020Y0192375D03*
X0113020Y0198000D03*
X0116145Y0198000D03*
X0119270Y0198000D03*
X0122395Y0198000D03*
D22*
X0062695Y0227964D03*
X0057695Y0227964D03*
X0052695Y0227964D03*
X0047695Y0227964D03*
X0047695Y0248436D03*
X0052695Y0248436D03*
X0057695Y0248436D03*
X0062695Y0248436D03*
X0062695Y0148236D03*
X0057695Y0148236D03*
X0052695Y0148236D03*
X0047695Y0148236D03*
X0047695Y0127764D03*
X0052695Y0127764D03*
X0057695Y0127764D03*
X0062695Y0127764D03*
D23*
X0057607Y0104000D02*
X0051583Y0104000D01*
X0051583Y0094000D02*
X0057607Y0094000D01*
X0057607Y0084000D02*
X0051583Y0084000D01*
D24*
X0054989Y0312020D03*
X0054989Y0325800D03*
X0054989Y0339580D03*
X0416001Y0116090D03*
X0416001Y0102310D03*
D25*
X0374995Y0322800D03*
X0182995Y0334200D03*
X0143995Y0372000D03*
X0143995Y0286200D03*
X0130795Y0127200D03*
D26*
X0374995Y0332800D03*
X0374995Y0342800D03*
X0384995Y0342800D03*
X0384995Y0332800D03*
X0384995Y0322800D03*
D27*
X0339313Y0034340D03*
X0339313Y0030600D03*
X0339313Y0026860D03*
X0329077Y0026860D03*
X0329077Y0030600D03*
X0329077Y0034340D03*
X0075313Y0059860D03*
X0075313Y0063600D03*
X0075313Y0067340D03*
X0065077Y0067340D03*
X0065077Y0059860D03*
D28*
X0120795Y0127200D03*
X0120795Y0137200D03*
X0120795Y0147200D03*
X0120795Y0157200D03*
X0120795Y0167200D03*
X0130795Y0167200D03*
X0130795Y0157200D03*
X0130795Y0147200D03*
X0130795Y0137200D03*
X0143995Y0246200D03*
X0143995Y0256200D03*
X0143995Y0266200D03*
X0153995Y0266200D03*
X0153995Y0256200D03*
X0153995Y0246200D03*
X0153995Y0276200D03*
X0143995Y0276200D03*
X0153995Y0286200D03*
X0182995Y0294200D03*
X0182995Y0304200D03*
X0192995Y0304200D03*
X0192995Y0294200D03*
X0192995Y0314200D03*
X0182995Y0314200D03*
X0182995Y0324200D03*
X0192995Y0324200D03*
X0192995Y0334200D03*
X0153995Y0332000D03*
X0143995Y0332000D03*
X0143995Y0342000D03*
X0143995Y0352000D03*
X0153995Y0352000D03*
X0153995Y0342000D03*
X0153995Y0362000D03*
X0143995Y0362000D03*
X0153995Y0372000D03*
D29*
X0363595Y0166200D03*
D30*
X0383595Y0166200D03*
D31*
X0262029Y0305528D03*
X0259470Y0305528D03*
X0256911Y0305528D03*
X0254352Y0305528D03*
X0251793Y0305528D03*
X0249234Y0305528D03*
X0246675Y0305528D03*
X0244116Y0305528D03*
X0241557Y0305528D03*
X0238998Y0305528D03*
X0236438Y0305528D03*
X0233879Y0305528D03*
X0231320Y0305528D03*
X0228761Y0305528D03*
X0228761Y0334072D03*
X0231320Y0334072D03*
X0233879Y0334072D03*
X0236438Y0334072D03*
X0238998Y0334072D03*
X0241557Y0334072D03*
X0244116Y0334072D03*
X0246675Y0334072D03*
X0249234Y0334072D03*
X0251793Y0334072D03*
X0254352Y0334072D03*
X0256911Y0334072D03*
X0259470Y0334072D03*
X0262029Y0334072D03*
D32*
X0261145Y0369357D03*
X0264294Y0369357D03*
X0257995Y0369357D03*
X0254846Y0369357D03*
X0251696Y0369357D03*
D33*
X0240279Y0369357D03*
X0240279Y0391011D03*
X0275712Y0391011D03*
X0275712Y0369357D03*
D34*
X0275995Y0357765D03*
X0275995Y0349035D03*
D35*
X0260526Y0346060D03*
X0260526Y0353540D03*
X0251864Y0346060D03*
D36*
X0251864Y0352753D03*
D37*
X0275995Y0340340D03*
X0275995Y0332860D03*
X0367795Y0114740D03*
X0367795Y0107260D03*
X0358195Y0092540D03*
X0358195Y0085060D03*
X0362395Y0060740D03*
X0362395Y0053260D03*
X0343795Y0053260D03*
X0343795Y0060740D03*
X0350995Y0033740D03*
X0350995Y0026260D03*
X0232795Y0085660D03*
X0232795Y0093140D03*
X0101395Y0045740D03*
X0101395Y0038260D03*
D38*
X0211195Y0313510D03*
X0219595Y0313510D03*
X0219595Y0327290D03*
X0211195Y0327290D03*
D39*
X0291545Y0053400D03*
X0307795Y0053400D03*
X0078045Y0042600D03*
X0061795Y0042600D03*
D40*
X0131395Y0080974D03*
X0131395Y0100226D03*
D41*
X0100795Y0069600D03*
X0100795Y0054600D03*
D42*
X0064683Y0023400D03*
X0075707Y0023400D03*
D43*
X0087569Y0021600D03*
X0106821Y0021600D03*
D44*
X0390455Y0106069D03*
X0397935Y0106069D03*
X0394195Y0114731D03*
D45*
X0380395Y0116512D03*
X0380395Y0105488D03*
X0361195Y0036112D03*
X0361195Y0025088D03*
X0118195Y0086888D03*
X0118195Y0097912D03*
X0092995Y0046912D03*
X0092995Y0035888D03*
D46*
X0329995Y0052398D03*
X0329995Y0077202D03*
X0337795Y0092598D03*
X0337795Y0117402D03*
D47*
X0349655Y0070200D03*
X0357135Y0070200D03*
X0350535Y0043800D03*
X0343055Y0043800D03*
D48*
X0406595Y0067200D03*
D49*
X0373795Y0067200D03*
X0373795Y0060500D03*
X0373795Y0053800D03*
X0373795Y0073900D03*
X0373795Y0080600D03*
D50*
X0319326Y0034340D03*
X0319326Y0026860D03*
X0310664Y0030600D03*
D51*
X0252595Y0268000D02*
X0252595Y0278000D01*
X0235195Y0278000D02*
X0235195Y0268000D01*
X0217795Y0268000D02*
X0217795Y0278000D01*
X0060795Y0169200D02*
X0050795Y0169200D01*
D52*
X0192595Y0366402D03*
X0192595Y0377598D03*
D53*
X0214795Y0379677D03*
X0214795Y0364323D03*
D54*
X0258595Y0063000D03*
X0273595Y0063000D03*
D55*
X0249595Y0220800D03*
X0244595Y0220800D03*
X0239595Y0220800D03*
X0234595Y0220800D03*
X0217795Y0220800D03*
X0212795Y0220800D03*
X0207795Y0220800D03*
X0202795Y0220800D03*
X0202795Y0250800D03*
X0207795Y0250800D03*
X0212795Y0250800D03*
X0217795Y0250800D03*
X0234595Y0250800D03*
X0239595Y0250800D03*
X0244595Y0250800D03*
X0249595Y0250800D03*
D56*
X0262795Y0256800D03*
X0189595Y0256800D03*
D57*
X0189595Y0251800D03*
X0189595Y0246800D03*
X0189595Y0241800D03*
X0189595Y0236800D03*
X0189595Y0231800D03*
X0189595Y0226800D03*
X0189595Y0221800D03*
X0189595Y0216800D03*
X0262795Y0216800D03*
X0262795Y0221800D03*
X0262795Y0226800D03*
X0262795Y0231800D03*
X0262795Y0236800D03*
X0262795Y0241800D03*
X0262795Y0246800D03*
X0262795Y0251800D03*
D58*
X0276595Y0251800D01*
X0276595Y0201600D01*
X0234595Y0201600D01*
X0234595Y0207000D01*
X0246249Y0207000D01*
X0246249Y0207300D01*
X0244595Y0212400D02*
X0256195Y0212400D01*
X0256195Y0221800D01*
X0262795Y0221800D01*
X0262795Y0216800D02*
X0262795Y0207300D01*
X0252942Y0207300D01*
X0244595Y0212400D02*
X0244595Y0220800D01*
X0244595Y0237000D01*
X0239395Y0237000D01*
X0239395Y0241800D01*
X0239595Y0241800D01*
X0239595Y0250800D01*
X0234595Y0250800D02*
X0234595Y0260109D01*
X0202449Y0260109D01*
X0200049Y0260109D01*
X0200049Y0266400D01*
X0195595Y0266400D01*
X0195595Y0273000D01*
X0198595Y0276600D02*
X0180595Y0276600D01*
X0167395Y0263400D01*
X0167395Y0261000D01*
X0162595Y0267000D02*
X0162595Y0235200D01*
X0124795Y0235200D01*
X0096595Y0207000D01*
X0096595Y0163200D01*
X0096545Y0163150D01*
X0091614Y0163150D01*
X0086695Y0157931D02*
X0081614Y0153150D01*
X0081614Y0143150D01*
X0081614Y0138600D01*
X0081914Y0138300D01*
X0081614Y0138000D01*
X0081614Y0133150D01*
X0081564Y0133200D01*
X0081614Y0133150D02*
X0081614Y0132881D01*
X0081914Y0138300D02*
X0096895Y0138300D01*
X0097949Y0137246D01*
X0101745Y0137246D01*
X0106195Y0139200D02*
X0104995Y0141000D01*
X0102595Y0144000D01*
X0102595Y0150600D01*
X0106195Y0150600D01*
X0106195Y0189600D01*
X0113020Y0189600D01*
X0113020Y0192375D01*
X0116145Y0192375D02*
X0116145Y0186600D01*
X0108595Y0186600D01*
X0108595Y0148200D01*
X0106795Y0148200D01*
X0106795Y0144000D01*
X0109195Y0140400D01*
X0109195Y0114600D01*
X0111595Y0112500D01*
X0147895Y0112500D01*
X0150595Y0114600D01*
X0150638Y0114557D01*
X0158251Y0114557D01*
X0158251Y0112589D02*
X0151584Y0112589D01*
X0149395Y0110400D01*
X0109195Y0110400D01*
X0106195Y0112200D01*
X0106195Y0139200D01*
X0112195Y0141600D02*
X0110995Y0144000D01*
X0110995Y0183000D01*
X0119395Y0183000D01*
X0119395Y0192375D01*
X0119270Y0192375D01*
X0122395Y0192375D02*
X0122395Y0179400D01*
X0114595Y0179400D01*
X0114595Y0143400D01*
X0115795Y0142200D01*
X0115195Y0141600D01*
X0115195Y0119400D01*
X0116395Y0117000D01*
X0146395Y0117000D01*
X0147890Y0118494D01*
X0158251Y0118494D01*
X0158251Y0116526D02*
X0148921Y0116526D01*
X0146995Y0114600D01*
X0113995Y0114600D01*
X0112195Y0117000D01*
X0112195Y0141600D01*
X0120795Y0137200D02*
X0125195Y0141600D01*
X0135595Y0141600D01*
X0144921Y0132274D01*
X0158251Y0132274D01*
X0164669Y0132274D01*
X0170395Y0138000D01*
X0172495Y0134700D02*
X0168101Y0130306D01*
X0158251Y0130306D01*
X0143590Y0130306D01*
X0136495Y0137400D01*
X0130995Y0137400D01*
X0130795Y0137200D01*
X0125595Y0132000D02*
X0137995Y0132000D01*
X0141658Y0128337D01*
X0158251Y0128337D01*
X0171532Y0128337D01*
X0174595Y0131400D01*
X0178645Y0124400D02*
X0181995Y0124400D01*
X0182740Y0123656D01*
X0182740Y0105306D01*
X0184708Y0107087D02*
X0184708Y0115463D01*
X0187395Y0118150D01*
X0190845Y0118150D01*
X0203395Y0105600D01*
X0203395Y0103800D01*
X0201595Y0102000D01*
X0201595Y0098400D01*
X0202425Y0097570D01*
X0202425Y0094006D01*
X0204393Y0094006D02*
X0204393Y0100598D01*
X0207595Y0103800D01*
X0211195Y0102000D02*
X0212417Y0100778D01*
X0219039Y0100778D01*
X0219039Y0102746D02*
X0291142Y0102746D01*
X0293995Y0105600D01*
X0301095Y0105600D01*
X0301145Y0105650D01*
X0288595Y0108000D02*
X0285310Y0104715D01*
X0219039Y0104715D01*
X0219039Y0106683D02*
X0204712Y0106683D01*
X0190195Y0121200D01*
X0187395Y0118150D02*
X0185395Y0120150D01*
X0185395Y0123600D01*
X0186595Y0124800D01*
X0196795Y0124800D01*
X0204595Y0117000D01*
X0209995Y0117000D01*
X0211490Y0118494D01*
X0219039Y0118494D01*
X0219039Y0116526D02*
X0274795Y0116526D01*
X0274795Y0155400D01*
X0280195Y0159600D02*
X0280195Y0114557D01*
X0219039Y0114557D01*
X0219039Y0112589D02*
X0286195Y0112589D01*
X0286195Y0166800D01*
X0287395Y0168000D01*
X0298795Y0168000D01*
X0301145Y0165650D01*
X0305995Y0160800D01*
X0316795Y0160800D01*
X0323995Y0168000D01*
X0323995Y0178800D01*
X0338995Y0193800D01*
X0382795Y0193800D01*
X0382795Y0209100D01*
X0413395Y0209100D01*
X0413395Y0242100D01*
X0405095Y0242100D01*
X0405095Y0242200D01*
X0405095Y0239400D02*
X0405095Y0239075D01*
X0405095Y0238800D01*
X0410995Y0238800D01*
X0410995Y0211200D01*
X0379795Y0211200D01*
X0379795Y0196800D01*
X0337795Y0196800D01*
X0320995Y0180000D01*
X0320995Y0169200D01*
X0317445Y0165650D01*
X0311145Y0165650D01*
X0301145Y0165600D02*
X0301145Y0165650D01*
X0301145Y0155650D02*
X0301145Y0154850D01*
X0305395Y0150600D01*
X0316195Y0150600D01*
X0332395Y0166800D01*
X0332395Y0178200D01*
X0341995Y0187800D01*
X0388795Y0187800D01*
X0388795Y0203400D01*
X0418195Y0203400D01*
X0418195Y0254700D01*
X0405095Y0254700D01*
X0405095Y0257700D02*
X0405095Y0257825D01*
X0405095Y0257700D02*
X0420595Y0257700D01*
X0420595Y0200400D01*
X0391795Y0200400D01*
X0391795Y0185400D01*
X0343195Y0185400D01*
X0335395Y0177600D01*
X0335395Y0165600D01*
X0315445Y0145650D01*
X0311145Y0145650D01*
X0305495Y0140400D02*
X0301145Y0144750D01*
X0301145Y0145650D01*
X0305495Y0140400D02*
X0328195Y0140400D01*
X0337795Y0135600D02*
X0337795Y0175800D01*
X0344995Y0183000D01*
X0394195Y0183000D01*
X0394195Y0198000D01*
X0422995Y0198000D01*
X0422995Y0260950D01*
X0405095Y0260950D01*
X0405095Y0264075D02*
X0366595Y0264075D01*
X0366595Y0288600D01*
X0320995Y0288600D01*
X0318895Y0290700D01*
X0306095Y0290700D01*
X0301145Y0295650D01*
X0295195Y0300600D02*
X0291595Y0300600D01*
X0275995Y0316200D01*
X0255595Y0316200D01*
X0255595Y0313800D01*
X0255595Y0316200D02*
X0245995Y0316200D01*
X0244116Y0314320D01*
X0244116Y0305528D01*
X0238998Y0305528D02*
X0238998Y0298200D01*
X0209995Y0298200D01*
X0194395Y0282600D01*
X0162595Y0282600D01*
X0161395Y0281400D01*
X0153995Y0286200D02*
X0173395Y0286200D01*
X0174595Y0285000D01*
X0193195Y0285000D01*
X0214195Y0306000D01*
X0228290Y0306000D01*
X0228761Y0305528D01*
X0236395Y0305528D02*
X0236395Y0313200D01*
X0241795Y0318600D01*
X0253195Y0318600D01*
X0254395Y0319800D01*
X0254395Y0327000D01*
X0256911Y0329516D01*
X0256911Y0334072D01*
X0254395Y0334115D02*
X0254352Y0334072D01*
X0254352Y0330557D01*
X0249595Y0325800D01*
X0246675Y0325800D01*
X0246675Y0322800D01*
X0233995Y0322800D01*
X0233995Y0318600D01*
X0233995Y0322800D02*
X0233995Y0334072D01*
X0233879Y0334072D01*
X0233995Y0334072D02*
X0236438Y0334072D01*
X0241557Y0334072D02*
X0241795Y0334310D01*
X0241795Y0340200D01*
X0219942Y0340200D01*
X0219595Y0341146D01*
X0223795Y0345600D02*
X0212995Y0345600D01*
X0211195Y0343800D01*
X0211195Y0341146D01*
X0211195Y0334454D02*
X0211195Y0327290D01*
X0219595Y0327290D02*
X0219595Y0334454D01*
X0227395Y0342000D02*
X0223795Y0345600D01*
X0227395Y0342000D02*
X0243595Y0342000D01*
X0244195Y0341400D01*
X0244195Y0334151D01*
X0244116Y0334072D01*
X0246675Y0334072D02*
X0246675Y0325800D01*
X0249234Y0334072D02*
X0249234Y0339961D01*
X0245395Y0343800D01*
X0234595Y0343800D01*
X0231595Y0346800D01*
X0235795Y0346800D01*
X0231595Y0346800D02*
X0230395Y0348000D01*
X0230395Y0352800D01*
X0203995Y0352800D01*
X0203995Y0313510D01*
X0219595Y0313510D01*
X0211195Y0313510D01*
X0192995Y0314200D02*
X0187795Y0309300D01*
X0177295Y0309300D01*
X0172195Y0304200D01*
X0107395Y0304200D01*
X0096345Y0293150D01*
X0091614Y0293150D01*
X0095395Y0288000D02*
X0086995Y0288000D01*
X0082145Y0283150D01*
X0081614Y0283150D01*
X0086395Y0278100D02*
X0095395Y0278100D01*
X0097795Y0280200D01*
X0097795Y0286800D01*
X0110095Y0299100D01*
X0187795Y0299100D01*
X0192895Y0304200D01*
X0192995Y0304200D01*
X0182995Y0304200D02*
X0180595Y0301800D01*
X0109195Y0301800D01*
X0095395Y0288000D01*
X0100195Y0286200D02*
X0100195Y0279600D01*
X0093745Y0273150D01*
X0091614Y0273150D01*
X0097795Y0274200D02*
X0097795Y0270000D01*
X0095395Y0267900D01*
X0086395Y0267900D01*
X0081945Y0263150D01*
X0081614Y0263150D01*
X0086995Y0258000D02*
X0095395Y0258000D01*
X0103195Y0265800D01*
X0103195Y0271800D01*
X0107995Y0276600D01*
X0107995Y0281100D01*
X0149195Y0281100D01*
X0153995Y0286200D01*
X0143995Y0286200D02*
X0107395Y0286200D01*
X0105595Y0284400D01*
X0105595Y0277800D01*
X0100795Y0273000D01*
X0100795Y0268800D01*
X0095145Y0263150D01*
X0091614Y0263150D01*
X0086995Y0258000D02*
X0082145Y0253150D01*
X0081614Y0253150D01*
X0086995Y0248100D02*
X0082345Y0243150D01*
X0081614Y0243150D01*
X0086995Y0248100D02*
X0095695Y0248100D01*
X0110095Y0262800D01*
X0109795Y0267600D01*
X0113395Y0271200D01*
X0149595Y0271200D01*
X0153995Y0276200D01*
X0143995Y0276200D02*
X0142995Y0277200D01*
X0112195Y0277200D01*
X0106195Y0271200D01*
X0106195Y0264600D01*
X0094745Y0253150D01*
X0091614Y0253150D01*
X0091614Y0243150D02*
X0093745Y0243150D01*
X0112795Y0262200D01*
X0112795Y0264600D01*
X0113995Y0265800D01*
X0143595Y0265800D01*
X0143995Y0266200D01*
X0149395Y0261300D02*
X0153995Y0266200D01*
X0149395Y0261300D02*
X0116995Y0261300D01*
X0098995Y0243600D01*
X0098995Y0239400D01*
X0092745Y0233150D01*
X0091614Y0233150D01*
X0095995Y0228000D02*
X0102595Y0234600D01*
X0102595Y0241200D01*
X0118195Y0256800D01*
X0143395Y0256800D01*
X0143995Y0256200D01*
X0149795Y0251100D02*
X0153995Y0256200D01*
X0149795Y0251100D02*
X0121195Y0251100D01*
X0106195Y0236400D01*
X0106195Y0234600D01*
X0094745Y0223150D01*
X0091614Y0223150D01*
X0096295Y0218100D02*
X0108595Y0230100D01*
X0108595Y0232800D01*
X0121795Y0246000D01*
X0143795Y0246000D01*
X0143995Y0246200D01*
X0147795Y0240000D02*
X0153995Y0246200D01*
X0147795Y0240000D02*
X0124795Y0240000D01*
X0097945Y0213150D01*
X0091614Y0213150D01*
X0096295Y0218100D02*
X0086395Y0218100D01*
X0081745Y0213150D01*
X0081614Y0213150D01*
X0086395Y0208200D02*
X0075595Y0208200D01*
X0075595Y0233150D01*
X0081614Y0233150D01*
X0075595Y0233150D02*
X0068395Y0233150D01*
X0068395Y0248400D01*
X0062695Y0248400D01*
X0062695Y0248436D01*
X0062695Y0256846D01*
X0057942Y0261600D01*
X0071395Y0261600D01*
X0071395Y0282000D01*
X0071395Y0288204D01*
X0071395Y0294896D02*
X0071395Y0297600D01*
X0076945Y0303150D01*
X0081614Y0303150D01*
X0081614Y0303319D01*
X0086395Y0308100D01*
X0098395Y0308100D01*
X0102595Y0312000D01*
X0165595Y0312000D01*
X0177595Y0324000D01*
X0182795Y0324000D01*
X0182995Y0324200D01*
X0178795Y0319200D02*
X0187995Y0319200D01*
X0192995Y0324200D01*
X0187895Y0329100D02*
X0192995Y0334200D01*
X0187895Y0329100D02*
X0177295Y0329100D01*
X0162595Y0314400D01*
X0101395Y0314400D01*
X0100145Y0313150D01*
X0091614Y0313150D01*
X0086395Y0318300D02*
X0081614Y0313519D01*
X0081614Y0313150D01*
X0086395Y0318300D02*
X0162295Y0318300D01*
X0178195Y0334200D01*
X0182995Y0334200D01*
X0178795Y0319200D02*
X0168595Y0309000D01*
X0103795Y0309000D01*
X0097945Y0303150D01*
X0091614Y0303150D01*
X0086395Y0298200D02*
X0097195Y0298200D01*
X0105595Y0306600D01*
X0170395Y0306600D01*
X0178195Y0314400D01*
X0182795Y0314400D01*
X0182995Y0314200D01*
X0182995Y0294200D02*
X0108195Y0294200D01*
X0100195Y0286200D01*
X0102595Y0284700D02*
X0109795Y0291900D01*
X0172495Y0291900D01*
X0176395Y0288000D01*
X0186795Y0288000D01*
X0192995Y0294200D01*
X0196795Y0279600D02*
X0212395Y0295200D01*
X0291895Y0295200D01*
X0291895Y0250500D01*
X0320395Y0250500D01*
X0320395Y0249000D01*
X0326995Y0245400D02*
X0311395Y0245400D01*
X0311145Y0245650D01*
X0306195Y0240600D02*
X0301145Y0245650D01*
X0306195Y0240600D02*
X0328195Y0240600D01*
X0339095Y0229700D01*
X0360095Y0229700D01*
X0360095Y0226575D02*
X0338020Y0226575D01*
X0328795Y0235800D01*
X0311295Y0235800D01*
X0311145Y0235650D01*
X0305195Y0230700D02*
X0301145Y0235650D01*
X0305195Y0230700D02*
X0330295Y0230700D01*
X0337195Y0223800D01*
X0353395Y0223800D01*
X0353395Y0211800D01*
X0366595Y0211800D01*
X0366595Y0235950D01*
X0405095Y0235950D01*
X0405095Y0232825D02*
X0368995Y0232825D01*
X0368995Y0208800D01*
X0350995Y0208800D01*
X0350995Y0221400D01*
X0335395Y0221400D01*
X0330595Y0226200D01*
X0311695Y0226200D01*
X0311145Y0225650D01*
X0306295Y0220800D02*
X0301145Y0215650D01*
X0306295Y0220800D02*
X0331795Y0220800D01*
X0334195Y0218400D01*
X0348595Y0218400D01*
X0348595Y0205800D01*
X0371395Y0205800D01*
X0371395Y0229700D01*
X0405095Y0229700D01*
X0405095Y0226575D02*
X0373795Y0226575D01*
X0373795Y0203400D01*
X0346195Y0203400D01*
X0346195Y0215400D01*
X0311145Y0215400D01*
X0311145Y0215650D01*
X0301145Y0205650D02*
X0298849Y0207946D01*
X0289195Y0207946D01*
X0289195Y0201254D02*
X0289195Y0194400D01*
X0289795Y0193800D01*
X0279595Y0198600D02*
X0279595Y0291000D01*
X0212995Y0291000D01*
X0198595Y0276600D01*
X0196795Y0279600D02*
X0175195Y0279600D01*
X0162595Y0267000D01*
X0174595Y0256800D02*
X0189595Y0256800D01*
X0189595Y0251800D02*
X0176395Y0251800D01*
X0176395Y0252000D01*
X0174595Y0256800D02*
X0169795Y0252000D01*
X0169795Y0227400D01*
X0169195Y0227400D01*
X0169195Y0166200D01*
X0172897Y0162498D01*
X0172897Y0154794D01*
X0170995Y0154860D02*
X0170929Y0154794D01*
X0170995Y0154860D02*
X0170995Y0161400D01*
X0166795Y0165600D01*
X0166795Y0222600D01*
X0165895Y0223800D01*
X0171595Y0226200D02*
X0172795Y0226200D01*
X0172795Y0246800D01*
X0189595Y0246800D01*
X0202449Y0250800D02*
X0202449Y0260109D01*
X0206742Y0266400D02*
X0211195Y0266400D01*
X0217795Y0273000D01*
X0228595Y0256800D02*
X0228595Y0249600D01*
X0229195Y0249000D01*
X0229195Y0244200D01*
X0227995Y0243000D01*
X0227995Y0210600D01*
X0202795Y0210600D01*
X0202795Y0220800D01*
X0207595Y0220800D02*
X0207795Y0220800D01*
X0207795Y0213000D01*
X0225595Y0213000D01*
X0225595Y0246600D01*
X0221995Y0250800D02*
X0217795Y0250800D01*
X0221995Y0250800D02*
X0221995Y0232200D01*
X0217795Y0237000D02*
X0217795Y0220800D01*
X0213595Y0221800D02*
X0212795Y0221800D01*
X0212795Y0238000D01*
X0216595Y0241800D01*
X0212395Y0241500D02*
X0209395Y0238500D01*
X0209395Y0232200D01*
X0194995Y0232200D01*
X0194995Y0226800D01*
X0189595Y0226800D01*
X0177595Y0226800D01*
X0177595Y0222000D01*
X0175795Y0222000D01*
X0175795Y0168600D01*
X0178803Y0165593D01*
X0178803Y0154794D01*
X0180771Y0154794D02*
X0180771Y0144424D01*
X0188395Y0136800D01*
X0205195Y0136800D01*
X0205195Y0126600D01*
X0184195Y0126600D01*
X0181995Y0124400D01*
X0188995Y0130800D02*
X0171773Y0148022D01*
X0166992Y0148022D01*
X0166992Y0154794D01*
X0166992Y0160800D01*
X0162595Y0160800D01*
X0158995Y0160800D01*
X0158995Y0187800D01*
X0158995Y0197854D01*
X0158945Y0197854D01*
X0158945Y0204546D02*
X0154195Y0204546D01*
X0154195Y0184200D01*
X0155395Y0184200D01*
X0155395Y0154794D01*
X0165023Y0154794D01*
X0166992Y0154794D02*
X0168960Y0154794D01*
X0174866Y0154794D02*
X0174866Y0164130D01*
X0171595Y0167400D01*
X0171595Y0226200D01*
X0173395Y0224400D02*
X0175195Y0224400D01*
X0175195Y0231800D01*
X0189595Y0231800D01*
X0197995Y0229200D02*
X0207595Y0229200D01*
X0207595Y0220800D01*
X0212795Y0220800D02*
X0212795Y0221800D01*
X0197995Y0229200D02*
X0197995Y0207600D01*
X0230395Y0207600D01*
X0230395Y0229200D01*
X0239595Y0229200D01*
X0239595Y0220800D01*
X0234595Y0220800D02*
X0234595Y0207000D01*
X0238795Y0198600D02*
X0279595Y0198600D01*
X0272395Y0216800D02*
X0262795Y0216800D01*
X0272395Y0216800D02*
X0272395Y0222854D01*
X0272395Y0229546D02*
X0272395Y0236800D01*
X0262795Y0236800D01*
X0257395Y0231600D02*
X0257395Y0250800D01*
X0249595Y0250800D01*
X0244795Y0250800D02*
X0244595Y0250800D01*
X0244595Y0241800D01*
X0253795Y0241800D01*
X0253795Y0226800D01*
X0262795Y0226800D01*
X0250195Y0220800D02*
X0250195Y0236800D01*
X0250195Y0220800D02*
X0249595Y0220800D01*
X0238795Y0198600D02*
X0238795Y0174000D01*
X0224745Y0159250D02*
X0224445Y0158950D01*
X0217948Y0159753D02*
X0217948Y0165650D01*
X0217948Y0159753D02*
X0217195Y0159000D01*
X0216595Y0152400D02*
X0229795Y0152400D01*
X0229795Y0145796D01*
X0229895Y0145696D01*
X0229795Y0152400D02*
X0238795Y0152400D01*
X0238795Y0158400D01*
X0219039Y0142117D02*
X0192595Y0142117D01*
X0192595Y0147000D01*
X0192582Y0147013D01*
X0192582Y0154794D01*
X0188645Y0154794D02*
X0188645Y0166550D01*
X0187195Y0168000D01*
X0187195Y0170296D01*
X0186992Y0170500D01*
X0187195Y0170704D01*
X0182740Y0165256D02*
X0180299Y0167696D01*
X0180299Y0170500D01*
X0182740Y0165256D02*
X0182740Y0154794D01*
X0182740Y0149056D01*
X0184195Y0147600D01*
X0187795Y0143400D02*
X0188645Y0144250D01*
X0188645Y0154794D01*
X0186677Y0154794D02*
X0186677Y0161319D01*
X0185695Y0162600D01*
X0192595Y0163646D02*
X0192595Y0160200D01*
X0192582Y0160187D01*
X0192595Y0160200D02*
X0201595Y0160200D01*
X0202425Y0159370D01*
X0204393Y0160748D02*
X0204393Y0162548D01*
X0201292Y0165650D01*
X0206362Y0167933D02*
X0206362Y0169567D01*
X0206745Y0169950D01*
X0194599Y0165650D02*
X0192595Y0163646D01*
X0196519Y0154794D02*
X0196519Y0144000D01*
X0208195Y0144000D01*
X0216595Y0152400D01*
X0205195Y0147000D02*
X0200456Y0151739D01*
X0200456Y0154794D01*
X0198488Y0154794D02*
X0198488Y0148907D01*
X0200395Y0147000D01*
X0209995Y0139200D02*
X0209995Y0124200D01*
X0211764Y0122431D01*
X0219039Y0122431D01*
X0219039Y0120463D02*
X0205195Y0120463D01*
X0205195Y0126600D01*
X0213595Y0133800D02*
X0214038Y0134243D01*
X0219039Y0134243D01*
X0219039Y0132274D02*
X0256195Y0132274D01*
X0256195Y0137400D01*
X0259795Y0134400D02*
X0259795Y0130306D01*
X0219039Y0130306D01*
X0219039Y0128337D02*
X0262795Y0128337D01*
X0262795Y0140400D01*
X0266395Y0145800D02*
X0266395Y0126369D01*
X0219039Y0126369D01*
X0219039Y0124400D02*
X0271195Y0124400D01*
X0271195Y0149400D01*
X0287995Y0173400D02*
X0295195Y0180600D01*
X0317395Y0180600D01*
X0336595Y0199800D01*
X0376795Y0199800D01*
X0376795Y0223450D01*
X0405095Y0223450D01*
X0415795Y0206400D02*
X0415795Y0245400D01*
X0405095Y0245400D01*
X0405095Y0245325D01*
X0405095Y0248450D02*
X0399045Y0248450D01*
X0395995Y0245400D01*
X0397620Y0251575D02*
X0395995Y0253200D01*
X0397620Y0251575D02*
X0405095Y0251575D01*
X0405095Y0267200D02*
X0368995Y0267200D01*
X0368995Y0291000D01*
X0322795Y0291000D01*
X0318595Y0295200D01*
X0311595Y0295200D01*
X0311145Y0295650D01*
X0311145Y0300600D02*
X0311145Y0305650D01*
X0306295Y0310500D02*
X0301145Y0315650D01*
X0306295Y0310500D02*
X0316795Y0310500D01*
X0333895Y0293400D01*
X0371395Y0293400D01*
X0371395Y0270325D01*
X0405095Y0270325D01*
X0405095Y0273450D02*
X0373795Y0273450D01*
X0373795Y0296400D01*
X0335995Y0296400D01*
X0316795Y0315600D01*
X0311195Y0315600D01*
X0311145Y0315650D01*
X0311145Y0325650D02*
X0311295Y0325800D01*
X0315595Y0325800D01*
X0342595Y0298800D01*
X0376195Y0298800D01*
X0376195Y0276575D01*
X0405095Y0276575D01*
X0377395Y0252600D02*
X0373245Y0248450D01*
X0360095Y0248450D01*
X0360095Y0245325D02*
X0346270Y0245325D01*
X0341395Y0250200D01*
X0336595Y0246000D02*
X0339595Y0243000D01*
X0350995Y0243000D01*
X0351795Y0242200D01*
X0360095Y0242200D01*
X0360095Y0239075D02*
X0348920Y0239075D01*
X0348895Y0239100D01*
X0340345Y0235950D02*
X0315295Y0261000D01*
X0305795Y0261000D01*
X0301145Y0265650D01*
X0306195Y0270600D02*
X0301145Y0275650D01*
X0306595Y0280200D02*
X0301145Y0285650D01*
X0306595Y0280200D02*
X0323695Y0280200D01*
X0333570Y0270325D01*
X0360095Y0270325D01*
X0360095Y0267200D02*
X0333395Y0267200D01*
X0324895Y0275700D01*
X0311195Y0275700D01*
X0311145Y0275650D01*
X0306195Y0270600D02*
X0326095Y0270600D01*
X0332620Y0264075D01*
X0360095Y0264075D01*
X0360095Y0260950D02*
X0331845Y0260950D01*
X0326995Y0265800D01*
X0311295Y0265800D01*
X0311145Y0265650D01*
X0301145Y0255650D02*
X0301095Y0255600D01*
X0295195Y0255600D01*
X0295195Y0300600D01*
X0311145Y0300600D01*
X0311145Y0285650D02*
X0311195Y0285600D01*
X0322195Y0285600D01*
X0334345Y0273450D01*
X0360095Y0273450D01*
X0360095Y0257825D02*
X0328195Y0257825D01*
X0328195Y0258000D01*
X0332395Y0254700D02*
X0332395Y0254400D01*
X0332395Y0254700D02*
X0360095Y0254700D01*
X0360095Y0251575D02*
X0366170Y0251575D01*
X0371995Y0257400D01*
X0360095Y0235950D02*
X0340345Y0235950D01*
X0339570Y0232825D02*
X0326995Y0245400D01*
X0339570Y0232825D02*
X0360095Y0232825D01*
X0385795Y0206400D02*
X0415795Y0206400D01*
X0385795Y0206400D02*
X0385795Y0190800D01*
X0340795Y0190800D01*
X0328195Y0178200D01*
X0328195Y0167400D01*
X0316445Y0155650D01*
X0311145Y0155650D01*
X0337795Y0135600D02*
X0357595Y0115800D01*
X0353395Y0126600D02*
X0353395Y0154800D01*
X0427048Y0154800D01*
X0427064Y0028463D01*
X0425365Y0030162D01*
X0422925Y0031571D01*
X0420204Y0032300D01*
X0417386Y0032300D01*
X0414665Y0031571D01*
X0412225Y0030162D01*
X0410233Y0028170D01*
X0408824Y0025730D01*
X0408095Y0023009D01*
X0408095Y0020191D01*
X0408824Y0017470D01*
X0410233Y0015030D01*
X0411463Y0013800D01*
X0368395Y0013800D01*
X0368395Y0045600D01*
X0385795Y0045600D01*
X0385795Y0092400D01*
X0407395Y0092400D01*
X0407395Y0100200D01*
X0412597Y0100200D01*
X0412650Y0100071D01*
X0413762Y0098959D01*
X0415215Y0098357D01*
X0416788Y0098357D01*
X0418240Y0098959D01*
X0419352Y0100071D01*
X0419954Y0101524D01*
X0419954Y0103096D01*
X0419352Y0104549D01*
X0418240Y0105661D01*
X0416788Y0106263D01*
X0415215Y0106263D01*
X0413762Y0105661D01*
X0412650Y0104549D01*
X0412340Y0103800D01*
X0407541Y0103800D01*
X0407395Y0103946D01*
X0407395Y0126600D01*
X0353395Y0126600D01*
X0353395Y0127180D02*
X0427051Y0127180D01*
X0427051Y0127978D02*
X0353395Y0127978D01*
X0353395Y0128777D02*
X0427051Y0128777D01*
X0427051Y0129575D02*
X0353395Y0129575D01*
X0353395Y0130374D02*
X0427051Y0130374D01*
X0427051Y0131172D02*
X0353395Y0131172D01*
X0353395Y0131971D02*
X0427051Y0131971D01*
X0427051Y0132769D02*
X0353395Y0132769D01*
X0353395Y0133568D02*
X0427051Y0133568D01*
X0427050Y0134366D02*
X0353395Y0134366D01*
X0353395Y0135165D02*
X0427050Y0135165D01*
X0427050Y0135963D02*
X0353395Y0135963D01*
X0353395Y0136762D02*
X0427050Y0136762D01*
X0427050Y0137560D02*
X0353395Y0137560D01*
X0353395Y0138359D02*
X0427050Y0138359D01*
X0427050Y0139157D02*
X0353395Y0139157D01*
X0353395Y0139956D02*
X0427050Y0139956D01*
X0427050Y0140754D02*
X0353395Y0140754D01*
X0353395Y0141553D02*
X0427050Y0141553D01*
X0427049Y0142351D02*
X0353395Y0142351D01*
X0353395Y0143150D02*
X0427049Y0143150D01*
X0427049Y0143948D02*
X0353395Y0143948D01*
X0353395Y0144747D02*
X0427049Y0144747D01*
X0427049Y0145545D02*
X0353395Y0145545D01*
X0353395Y0146344D02*
X0427049Y0146344D01*
X0427049Y0147142D02*
X0353395Y0147142D01*
X0353395Y0147941D02*
X0427049Y0147941D01*
X0427049Y0148739D02*
X0353395Y0148739D01*
X0353395Y0149538D02*
X0427049Y0149538D01*
X0427048Y0150337D02*
X0353395Y0150337D01*
X0353395Y0151135D02*
X0427048Y0151135D01*
X0427048Y0151934D02*
X0353395Y0151934D01*
X0353395Y0152732D02*
X0427048Y0152732D01*
X0427048Y0153531D02*
X0353395Y0153531D01*
X0353395Y0154329D02*
X0427048Y0154329D01*
X0427051Y0126381D02*
X0407395Y0126381D01*
X0407395Y0125583D02*
X0427052Y0125583D01*
X0427052Y0124784D02*
X0407395Y0124784D01*
X0407395Y0123986D02*
X0427052Y0123986D01*
X0427052Y0123187D02*
X0407395Y0123187D01*
X0407395Y0122389D02*
X0427052Y0122389D01*
X0427052Y0121590D02*
X0407395Y0121590D01*
X0407395Y0120792D02*
X0427052Y0120792D01*
X0427052Y0119993D02*
X0407395Y0119993D01*
X0407395Y0119195D02*
X0427052Y0119195D01*
X0427052Y0118396D02*
X0407395Y0118396D01*
X0407395Y0117598D02*
X0427053Y0117598D01*
X0427053Y0116799D02*
X0407395Y0116799D01*
X0407395Y0116001D02*
X0427053Y0116001D01*
X0427053Y0115202D02*
X0407395Y0115202D01*
X0407395Y0114403D02*
X0427053Y0114403D01*
X0427053Y0113605D02*
X0407395Y0113605D01*
X0407395Y0112806D02*
X0427053Y0112806D01*
X0427053Y0112008D02*
X0407395Y0112008D01*
X0407395Y0111209D02*
X0427053Y0111209D01*
X0427054Y0110411D02*
X0407395Y0110411D01*
X0407395Y0109612D02*
X0427054Y0109612D01*
X0427054Y0108814D02*
X0407395Y0108814D01*
X0407395Y0108015D02*
X0427054Y0108015D01*
X0427054Y0107217D02*
X0407395Y0107217D01*
X0407395Y0106418D02*
X0427054Y0106418D01*
X0427054Y0105620D02*
X0418282Y0105620D01*
X0419080Y0104821D02*
X0427054Y0104821D01*
X0427054Y0104023D02*
X0419570Y0104023D01*
X0419901Y0103224D02*
X0427054Y0103224D01*
X0427055Y0102426D02*
X0419954Y0102426D01*
X0419954Y0101627D02*
X0427055Y0101627D01*
X0427055Y0100829D02*
X0419666Y0100829D01*
X0419312Y0100030D02*
X0427055Y0100030D01*
X0427055Y0099232D02*
X0418513Y0099232D01*
X0416971Y0098433D02*
X0427055Y0098433D01*
X0427055Y0097635D02*
X0407395Y0097635D01*
X0407395Y0098433D02*
X0415032Y0098433D01*
X0413490Y0099232D02*
X0407395Y0099232D01*
X0407395Y0100030D02*
X0412691Y0100030D01*
X0412432Y0104023D02*
X0407395Y0104023D01*
X0407395Y0104821D02*
X0412923Y0104821D01*
X0413721Y0105620D02*
X0407395Y0105620D01*
X0407395Y0096836D02*
X0427055Y0096836D01*
X0427055Y0096038D02*
X0407395Y0096038D01*
X0407395Y0095239D02*
X0427055Y0095239D01*
X0427056Y0094441D02*
X0407395Y0094441D01*
X0407395Y0093642D02*
X0427056Y0093642D01*
X0427056Y0092844D02*
X0407395Y0092844D01*
X0427056Y0092045D02*
X0385795Y0092045D01*
X0385795Y0091247D02*
X0427056Y0091247D01*
X0427056Y0090448D02*
X0385795Y0090448D01*
X0385795Y0089650D02*
X0427056Y0089650D01*
X0427056Y0088851D02*
X0385795Y0088851D01*
X0385795Y0088053D02*
X0427056Y0088053D01*
X0427056Y0087254D02*
X0385795Y0087254D01*
X0385795Y0086456D02*
X0427057Y0086456D01*
X0427057Y0085657D02*
X0385795Y0085657D01*
X0385795Y0084859D02*
X0427057Y0084859D01*
X0427057Y0084060D02*
X0385795Y0084060D01*
X0385795Y0083262D02*
X0427057Y0083262D01*
X0427057Y0082463D02*
X0385795Y0082463D01*
X0385795Y0081665D02*
X0427057Y0081665D01*
X0427057Y0080866D02*
X0385795Y0080866D01*
X0385795Y0080068D02*
X0427057Y0080068D01*
X0427057Y0079269D02*
X0385795Y0079269D01*
X0385795Y0078470D02*
X0427058Y0078470D01*
X0427058Y0077672D02*
X0385795Y0077672D01*
X0385795Y0076873D02*
X0427058Y0076873D01*
X0427058Y0076075D02*
X0385795Y0076075D01*
X0385795Y0075276D02*
X0427058Y0075276D01*
X0427058Y0074478D02*
X0385795Y0074478D01*
X0385795Y0073679D02*
X0427058Y0073679D01*
X0427058Y0072881D02*
X0385795Y0072881D01*
X0385795Y0072082D02*
X0427058Y0072082D01*
X0427058Y0071284D02*
X0385795Y0071284D01*
X0385795Y0070485D02*
X0427059Y0070485D01*
X0427059Y0069687D02*
X0385795Y0069687D01*
X0385795Y0068888D02*
X0427059Y0068888D01*
X0427059Y0068090D02*
X0385795Y0068090D01*
X0385795Y0067291D02*
X0427059Y0067291D01*
X0427059Y0066493D02*
X0385795Y0066493D01*
X0385795Y0065694D02*
X0427059Y0065694D01*
X0427059Y0064896D02*
X0385795Y0064896D01*
X0385795Y0064097D02*
X0427059Y0064097D01*
X0427059Y0063299D02*
X0385795Y0063299D01*
X0385795Y0062500D02*
X0427060Y0062500D01*
X0427060Y0061702D02*
X0385795Y0061702D01*
X0385795Y0060903D02*
X0427060Y0060903D01*
X0427060Y0060105D02*
X0385795Y0060105D01*
X0385795Y0059306D02*
X0427060Y0059306D01*
X0427060Y0058508D02*
X0385795Y0058508D01*
X0385795Y0057709D02*
X0427060Y0057709D01*
X0427060Y0056911D02*
X0385795Y0056911D01*
X0385795Y0056112D02*
X0427060Y0056112D01*
X0427061Y0055314D02*
X0385795Y0055314D01*
X0385795Y0054515D02*
X0427061Y0054515D01*
X0427061Y0053717D02*
X0385795Y0053717D01*
X0385795Y0052918D02*
X0427061Y0052918D01*
X0427061Y0052120D02*
X0385795Y0052120D01*
X0385795Y0051321D02*
X0427061Y0051321D01*
X0427061Y0050523D02*
X0385795Y0050523D01*
X0385795Y0049724D02*
X0427061Y0049724D01*
X0427061Y0048926D02*
X0385795Y0048926D01*
X0385795Y0048127D02*
X0427061Y0048127D01*
X0427062Y0047329D02*
X0385795Y0047329D01*
X0385795Y0046530D02*
X0427062Y0046530D01*
X0427062Y0045732D02*
X0385795Y0045732D01*
X0368395Y0044933D02*
X0427062Y0044933D01*
X0427062Y0044134D02*
X0368395Y0044134D01*
X0368395Y0043336D02*
X0427062Y0043336D01*
X0427062Y0042537D02*
X0368395Y0042537D01*
X0368395Y0041739D02*
X0427062Y0041739D01*
X0427062Y0040940D02*
X0368395Y0040940D01*
X0368395Y0040142D02*
X0427062Y0040142D01*
X0427063Y0039343D02*
X0368395Y0039343D01*
X0368395Y0038545D02*
X0427063Y0038545D01*
X0427063Y0037746D02*
X0368395Y0037746D01*
X0368395Y0036948D02*
X0427063Y0036948D01*
X0427063Y0036149D02*
X0368395Y0036149D01*
X0368395Y0035351D02*
X0427063Y0035351D01*
X0427063Y0034552D02*
X0368395Y0034552D01*
X0368395Y0033754D02*
X0427063Y0033754D01*
X0427063Y0032955D02*
X0368395Y0032955D01*
X0368395Y0032157D02*
X0416852Y0032157D01*
X0414297Y0031358D02*
X0368395Y0031358D01*
X0368395Y0030560D02*
X0412914Y0030560D01*
X0411824Y0029761D02*
X0368395Y0029761D01*
X0368395Y0028963D02*
X0411026Y0028963D01*
X0410230Y0028164D02*
X0368395Y0028164D01*
X0368395Y0027366D02*
X0409769Y0027366D01*
X0409308Y0026567D02*
X0368395Y0026567D01*
X0368395Y0025769D02*
X0408847Y0025769D01*
X0408621Y0024970D02*
X0368395Y0024970D01*
X0368395Y0024172D02*
X0408407Y0024172D01*
X0408193Y0023373D02*
X0368395Y0023373D01*
X0368395Y0022575D02*
X0408095Y0022575D01*
X0408095Y0021776D02*
X0368395Y0021776D01*
X0368395Y0020978D02*
X0408095Y0020978D01*
X0408098Y0020179D02*
X0368395Y0020179D01*
X0368395Y0019381D02*
X0408312Y0019381D01*
X0408526Y0018582D02*
X0368395Y0018582D01*
X0368395Y0017784D02*
X0408740Y0017784D01*
X0409104Y0016985D02*
X0368395Y0016985D01*
X0368395Y0016187D02*
X0409565Y0016187D01*
X0410026Y0015388D02*
X0368395Y0015388D01*
X0368395Y0014590D02*
X0410673Y0014590D01*
X0420738Y0032157D02*
X0427063Y0032157D01*
X0427064Y0031358D02*
X0423293Y0031358D01*
X0424676Y0030560D02*
X0427064Y0030560D01*
X0427064Y0029761D02*
X0425766Y0029761D01*
X0426564Y0028963D02*
X0427064Y0028963D01*
X0361195Y0036112D02*
X0359395Y0036712D01*
X0339313Y0036282D02*
X0339313Y0034340D01*
X0339313Y0036282D02*
X0337195Y0038400D01*
X0326995Y0038400D01*
X0320995Y0044400D01*
X0317995Y0044400D01*
X0318595Y0039600D02*
X0318595Y0035071D01*
X0319326Y0034340D01*
X0327342Y0019200D02*
X0327595Y0018946D01*
X0327595Y0016200D01*
X0326395Y0015000D01*
X0302395Y0015000D01*
X0274325Y0019800D02*
X0274325Y0038150D01*
X0274195Y0038150D01*
X0274195Y0049800D01*
X0279595Y0049800D01*
X0279595Y0040200D01*
X0270595Y0038357D02*
X0270595Y0047400D01*
X0267595Y0050400D01*
X0262195Y0050400D01*
X0254395Y0050400D01*
X0252595Y0052200D01*
X0252595Y0057854D01*
X0248395Y0051600D02*
X0252595Y0047400D01*
X0254995Y0047400D01*
X0263995Y0047400D01*
X0266395Y0045000D01*
X0266395Y0038206D01*
X0266451Y0038150D01*
X0270388Y0038150D02*
X0270595Y0038357D01*
X0270595Y0038150D02*
X0270388Y0038150D01*
X0270595Y0038150D02*
X0270595Y0023400D01*
X0259195Y0023400D01*
X0259195Y0039600D01*
X0249595Y0039600D01*
X0244795Y0044400D01*
X0244795Y0046844D01*
X0208330Y0083309D01*
X0206362Y0082933D02*
X0241195Y0048100D01*
X0241195Y0019800D01*
X0274325Y0019800D01*
X0262514Y0038150D02*
X0262195Y0038469D01*
X0262195Y0045000D01*
X0259195Y0045000D01*
X0257995Y0043800D01*
X0250795Y0043800D01*
X0249595Y0045000D01*
X0245395Y0049200D01*
X0244939Y0049200D01*
X0210299Y0083840D01*
X0212267Y0085153D02*
X0245820Y0051600D01*
X0248395Y0051600D01*
X0232795Y0051600D02*
X0227899Y0056496D01*
X0224895Y0056496D01*
X0217864Y0058306D02*
X0217864Y0061269D01*
X0220195Y0063600D01*
X0215995Y0063600D02*
X0215995Y0067800D01*
X0215995Y0063600D02*
X0214739Y0062344D01*
X0214739Y0058306D01*
X0211614Y0058306D02*
X0211614Y0065219D01*
X0211795Y0065400D01*
X0205195Y0067200D02*
X0205195Y0072000D01*
X0201595Y0069600D02*
X0201595Y0065400D01*
X0200714Y0064519D01*
X0200714Y0058150D01*
X0203839Y0058150D02*
X0203839Y0065844D01*
X0205195Y0067200D01*
X0198595Y0067200D02*
X0197589Y0066194D01*
X0197589Y0058150D01*
X0194464Y0058150D02*
X0194464Y0064131D01*
X0194395Y0064200D01*
X0191458Y0066744D02*
X0189814Y0065100D01*
X0189814Y0058150D01*
X0186689Y0058150D02*
X0186689Y0064944D01*
X0188645Y0066900D01*
X0183564Y0062137D02*
X0183564Y0058150D01*
X0180439Y0058150D02*
X0180439Y0062294D01*
X0178803Y0063930D01*
X0180771Y0064930D02*
X0183564Y0062137D01*
X0176834Y0059939D02*
X0175645Y0058750D01*
X0176834Y0059939D02*
X0176834Y0066217D01*
X0174895Y0066075D02*
X0174895Y0062700D01*
X0172520Y0060325D01*
X0172520Y0058750D01*
X0169395Y0058750D02*
X0169395Y0061400D01*
X0171145Y0063150D01*
X0166270Y0063025D02*
X0166270Y0058750D01*
X0166270Y0063025D02*
X0166145Y0063150D01*
X0166270Y0053125D02*
X0166270Y0047337D01*
X0165663Y0046730D01*
X0167631Y0045574D02*
X0169395Y0047337D01*
X0169395Y0053125D01*
X0172520Y0053125D02*
X0172520Y0048902D01*
X0173537Y0047885D01*
X0175505Y0046260D02*
X0175645Y0046400D01*
X0175645Y0053125D01*
X0180439Y0052525D02*
X0180439Y0048694D01*
X0177474Y0045729D01*
X0179442Y0044416D02*
X0183564Y0048537D01*
X0183564Y0052525D01*
X0186689Y0052525D02*
X0186689Y0048225D01*
X0181411Y0042947D01*
X0183379Y0042259D02*
X0189814Y0048694D01*
X0189814Y0052525D01*
X0194464Y0052525D02*
X0194464Y0049281D01*
X0191253Y0046071D01*
X0193222Y0044758D02*
X0197589Y0049125D01*
X0197589Y0052525D01*
X0200714Y0052525D02*
X0200714Y0049125D01*
X0195190Y0043602D01*
X0197159Y0042758D02*
X0203839Y0049437D01*
X0203839Y0052525D01*
X0216301Y0042056D02*
X0224049Y0049804D01*
X0224895Y0049804D01*
X0227899Y0046800D01*
X0231595Y0046800D01*
X0220781Y0035650D02*
X0219795Y0035650D01*
X0218812Y0035650D01*
X0216844Y0035650D02*
X0215995Y0034801D01*
X0216844Y0035650D02*
X0214875Y0035650D01*
X0212907Y0035650D02*
X0212907Y0032188D01*
X0215095Y0030000D01*
X0215995Y0028800D01*
X0215995Y0025200D01*
X0214795Y0024000D01*
X0205195Y0024000D01*
X0199795Y0029400D01*
X0186595Y0029400D01*
X0185348Y0029400D01*
X0169600Y0029400D01*
X0169600Y0035650D01*
X0169600Y0029400D02*
X0157789Y0029400D01*
X0154795Y0029400D01*
X0149695Y0029400D01*
X0147895Y0031200D01*
X0147895Y0035650D01*
X0147946Y0035650D01*
X0145978Y0035650D02*
X0145978Y0042000D01*
X0145795Y0042000D01*
X0146995Y0046800D02*
X0143395Y0050400D01*
X0143395Y0096600D01*
X0147595Y0102300D02*
X0149995Y0104700D01*
X0158236Y0104700D01*
X0158251Y0104715D01*
X0158251Y0106683D02*
X0158251Y0106800D01*
X0146995Y0106800D01*
X0147595Y0102300D02*
X0147595Y0052200D01*
X0141995Y0053400D02*
X0122995Y0053400D01*
X0122995Y0051600D01*
X0108595Y0051600D01*
X0108595Y0053400D01*
X0115795Y0046800D02*
X0125395Y0046800D01*
X0125395Y0051600D01*
X0140026Y0051600D01*
X0140026Y0035650D01*
X0138058Y0035650D02*
X0138058Y0049800D01*
X0127795Y0049800D01*
X0127795Y0043800D01*
X0119995Y0043800D01*
X0115795Y0044400D02*
X0115795Y0046800D01*
X0119007Y0055400D02*
X0119007Y0060742D01*
X0118949Y0060800D01*
X0118949Y0068750D01*
X0125642Y0068750D02*
X0130195Y0068750D01*
X0130195Y0075000D01*
X0130195Y0068750D02*
X0132799Y0068750D01*
X0139492Y0068750D02*
X0139492Y0060800D01*
X0139195Y0060504D01*
X0139195Y0056400D01*
X0141995Y0053400D02*
X0141995Y0035650D01*
X0143995Y0035636D02*
X0143995Y0031200D01*
X0149395Y0025800D01*
X0172195Y0025800D01*
X0157789Y0029400D02*
X0157789Y0035650D01*
X0144009Y0035650D02*
X0143995Y0035636D01*
X0136089Y0035650D02*
X0136089Y0026506D01*
X0136795Y0025800D01*
X0132152Y0028957D02*
X0132152Y0035650D01*
X0130195Y0035650D02*
X0130195Y0046800D01*
X0134995Y0046800D01*
X0128215Y0042000D02*
X0128215Y0035650D01*
X0128215Y0022380D01*
X0130795Y0019800D01*
X0130184Y0035650D02*
X0130195Y0035650D01*
X0128215Y0042000D02*
X0124195Y0042000D01*
X0122395Y0040200D01*
X0107395Y0040200D01*
X0105595Y0038400D01*
X0101535Y0038400D01*
X0101395Y0038260D01*
X0125642Y0060800D02*
X0132799Y0060800D01*
X0132799Y0057396D01*
X0133795Y0056400D01*
X0139492Y0060800D02*
X0139795Y0060800D01*
X0159595Y0092400D02*
X0158251Y0093744D01*
X0158251Y0100778D01*
X0158251Y0108652D02*
X0163143Y0108652D01*
X0164395Y0107400D01*
X0167995Y0109800D02*
X0167995Y0115200D01*
X0164995Y0118200D01*
X0162132Y0120463D01*
X0158251Y0120463D01*
X0158114Y0120600D01*
X0142795Y0120600D01*
X0142749Y0126322D02*
X0142795Y0126369D01*
X0131627Y0126369D01*
X0130795Y0127200D01*
X0125595Y0132000D02*
X0120795Y0127200D01*
X0104222Y0125400D02*
X0104222Y0103373D01*
X0102595Y0101746D01*
X0101192Y0103150D01*
X0091614Y0103150D01*
X0086542Y0098078D01*
X0086542Y0097946D01*
X0086542Y0087622D01*
X0091614Y0083150D01*
X0091614Y0093150D02*
X0100692Y0093150D01*
X0102595Y0095054D01*
X0102595Y0101746D02*
X0101923Y0102419D01*
X0086542Y0097946D02*
X0070295Y0097946D01*
X0070295Y0091254D02*
X0079717Y0091254D01*
X0081614Y0093150D01*
X0081614Y0103150D02*
X0081564Y0103200D01*
X0074395Y0103200D01*
X0069595Y0108000D01*
X0069595Y0111254D01*
X0069249Y0111600D01*
X0061795Y0111600D01*
X0057695Y0115700D01*
X0057695Y0127764D01*
X0057695Y0148236D01*
X0052695Y0148236D01*
X0047695Y0148236D01*
X0047395Y0138000D02*
X0047395Y0128064D01*
X0047695Y0127764D01*
X0047695Y0118200D01*
X0047995Y0118200D01*
X0043795Y0111600D02*
X0052795Y0111600D01*
X0052795Y0125400D01*
X0052695Y0125500D01*
X0052695Y0127764D01*
X0052795Y0127864D01*
X0052795Y0138000D01*
X0062695Y0127764D02*
X0063331Y0128400D01*
X0071395Y0130200D02*
X0071395Y0132804D01*
X0071545Y0132954D01*
X0071395Y0130200D02*
X0078445Y0123150D01*
X0081614Y0123150D01*
X0070195Y0117346D02*
X0069595Y0117946D01*
X0069595Y0111254D02*
X0069595Y0107400D01*
X0065995Y0103800D01*
X0054795Y0103800D01*
X0054595Y0104000D01*
X0053795Y0094800D02*
X0045595Y0094800D01*
X0043795Y0096600D01*
X0043795Y0111600D01*
X0053795Y0094800D02*
X0054595Y0094000D01*
X0080573Y0072600D02*
X0075313Y0067340D01*
X0080573Y0072600D02*
X0082795Y0072600D01*
X0101995Y0125400D02*
X0104222Y0125400D01*
X0101745Y0130554D02*
X0094210Y0130554D01*
X0091614Y0133150D01*
X0081614Y0143150D02*
X0075049Y0143150D01*
X0071545Y0139646D01*
X0086695Y0157931D02*
X0086695Y0178200D01*
X0091345Y0183150D01*
X0091614Y0183150D01*
X0086395Y0188369D01*
X0086395Y0198000D01*
X0085795Y0198300D01*
X0086395Y0198300D01*
X0086395Y0208200D01*
X0081614Y0203150D02*
X0070195Y0203150D01*
X0070195Y0227400D01*
X0062695Y0227400D01*
X0062695Y0227964D01*
X0057695Y0227964D02*
X0057695Y0223700D01*
X0063595Y0217800D01*
X0063595Y0215746D01*
X0056995Y0219000D02*
X0056995Y0205200D01*
X0056395Y0204600D01*
X0056395Y0200146D01*
X0055195Y0200146D01*
X0050995Y0200146D01*
X0056395Y0200146D02*
X0061195Y0200146D01*
X0061195Y0193454D02*
X0066595Y0193454D01*
X0068649Y0193454D01*
X0071049Y0195854D01*
X0073795Y0198300D01*
X0085795Y0198300D01*
X0066595Y0193454D02*
X0066595Y0206054D01*
X0063595Y0209054D01*
X0056995Y0219000D02*
X0052695Y0223300D01*
X0052695Y0227964D01*
X0057695Y0227964D02*
X0057695Y0234100D01*
X0058795Y0235200D01*
X0062995Y0235200D01*
X0064795Y0237000D01*
X0059995Y0238800D02*
X0057695Y0241100D01*
X0057695Y0248436D01*
X0052695Y0248436D02*
X0052695Y0241100D01*
X0050395Y0238800D01*
X0047995Y0235200D02*
X0047695Y0234900D01*
X0047695Y0227964D01*
X0047695Y0219046D01*
X0050995Y0215746D01*
X0052795Y0235200D02*
X0047995Y0235200D01*
X0052795Y0235200D02*
X0055195Y0237600D01*
X0047695Y0248400D02*
X0047695Y0248436D01*
X0047695Y0258046D01*
X0051249Y0261600D01*
X0051249Y0261946D01*
X0046795Y0266400D01*
X0050395Y0274454D02*
X0053142Y0274454D01*
X0058795Y0268800D01*
X0058795Y0262454D01*
X0057942Y0261600D01*
X0065395Y0268200D02*
X0065395Y0269654D01*
X0060595Y0274454D01*
X0060595Y0281146D02*
X0060595Y0285000D01*
X0059995Y0286200D01*
X0059995Y0290746D01*
X0058542Y0292200D01*
X0058542Y0312020D01*
X0054989Y0312020D01*
X0054989Y0325800D02*
X0047995Y0325800D01*
X0047995Y0295800D01*
X0048249Y0295800D01*
X0051849Y0292200D01*
X0050349Y0291000D01*
X0050395Y0286200D01*
X0050395Y0281146D01*
X0081614Y0273150D02*
X0081745Y0273150D01*
X0086395Y0278100D01*
X0097795Y0274200D02*
X0102595Y0279000D01*
X0102595Y0284700D01*
X0086395Y0298200D02*
X0081614Y0293419D01*
X0081614Y0293150D01*
X0081614Y0323150D02*
X0086664Y0328200D01*
X0114595Y0328200D01*
X0118395Y0332000D01*
X0121448Y0332000D01*
X0143995Y0332000D01*
X0143995Y0342000D02*
X0142845Y0343150D01*
X0091614Y0343150D01*
X0086095Y0348300D02*
X0137695Y0348300D01*
X0139195Y0346800D01*
X0149795Y0346800D01*
X0153995Y0342000D01*
X0153995Y0332000D02*
X0154195Y0331800D01*
X0154195Y0322800D01*
X0112195Y0322800D01*
X0111845Y0323150D01*
X0091614Y0323150D01*
X0081614Y0333150D02*
X0081464Y0333000D01*
X0072595Y0333000D01*
X0066016Y0339580D01*
X0054989Y0339580D01*
X0081614Y0343150D02*
X0081614Y0343219D01*
X0086095Y0348300D01*
X0081614Y0353150D02*
X0081614Y0353419D01*
X0086095Y0358200D01*
X0138895Y0358200D01*
X0140695Y0356700D01*
X0149895Y0356700D01*
X0153995Y0352000D01*
X0143995Y0352000D02*
X0142845Y0353150D01*
X0091614Y0353150D01*
X0091614Y0363150D02*
X0142845Y0363150D01*
X0143995Y0362000D01*
X0149395Y0366600D02*
X0153995Y0362000D01*
X0149395Y0366600D02*
X0135595Y0366600D01*
X0134395Y0368100D01*
X0085795Y0368100D01*
X0081614Y0363619D01*
X0081614Y0363150D01*
X0081614Y0373150D02*
X0081614Y0375019D01*
X0085195Y0378600D01*
X0151795Y0378600D01*
X0154195Y0376200D01*
X0154195Y0372200D01*
X0153995Y0372000D01*
X0143995Y0372000D02*
X0142845Y0373150D01*
X0091614Y0373150D01*
X0202449Y0250800D02*
X0202795Y0250800D01*
X0207795Y0250800D02*
X0207795Y0241800D01*
X0207595Y0241800D01*
X0212395Y0241500D02*
X0212395Y0250400D01*
X0212795Y0250800D01*
X0189595Y0221800D02*
X0182395Y0221800D01*
X0182395Y0203100D01*
X0186849Y0203100D01*
X0193542Y0203100D02*
X0193542Y0216800D01*
X0189595Y0216800D01*
X0173395Y0224400D02*
X0173395Y0168000D01*
X0176834Y0164561D01*
X0176834Y0154794D01*
X0166992Y0148022D02*
X0158251Y0148022D01*
X0158251Y0146054D02*
X0153595Y0146054D01*
X0153595Y0180600D01*
X0151495Y0180600D01*
X0151495Y0204446D01*
X0147245Y0204446D01*
X0147245Y0211297D01*
X0147101Y0211297D01*
X0147101Y0217990D02*
X0147101Y0229800D01*
X0147595Y0229800D01*
X0138595Y0229800D02*
X0137845Y0229800D01*
X0137845Y0217846D01*
X0137845Y0211154D02*
X0137745Y0211154D01*
X0137745Y0204346D01*
X0142495Y0204346D01*
X0142495Y0177600D01*
X0151795Y0177600D01*
X0151795Y0144085D01*
X0158251Y0144085D01*
X0158251Y0142117D02*
X0151279Y0142117D01*
X0138595Y0154800D01*
X0138595Y0164100D01*
X0135595Y0167100D01*
X0130895Y0167100D01*
X0130795Y0167200D01*
X0134395Y0162000D02*
X0125595Y0162000D01*
X0120795Y0157200D01*
X0125695Y0152100D02*
X0120795Y0147200D01*
X0125695Y0152100D02*
X0132895Y0152100D01*
X0148784Y0136211D01*
X0158251Y0136211D01*
X0158251Y0134243D02*
X0161238Y0134243D01*
X0168595Y0141600D01*
X0158251Y0140148D02*
X0150547Y0140148D01*
X0136195Y0154500D01*
X0136195Y0160200D01*
X0134395Y0162000D01*
X0130795Y0157200D02*
X0149816Y0138180D01*
X0158251Y0138180D01*
X0158251Y0134243D02*
X0146253Y0134243D01*
X0133495Y0147000D01*
X0130995Y0147000D01*
X0130795Y0147200D01*
X0146995Y0160800D02*
X0146995Y0174000D01*
X0120795Y0174000D01*
X0120795Y0167200D01*
X0138295Y0187800D02*
X0137745Y0188350D01*
X0137745Y0197654D01*
X0130195Y0198000D02*
X0130195Y0203400D01*
X0130195Y0198000D02*
X0122395Y0198000D01*
X0119270Y0198000D02*
X0119270Y0203400D01*
X0120595Y0203400D01*
X0116145Y0203400D02*
X0116145Y0198000D01*
X0113020Y0198000D02*
X0104395Y0198000D01*
X0104395Y0203400D01*
X0112195Y0203400D02*
X0116145Y0203400D01*
X0095995Y0228000D02*
X0086395Y0228000D01*
X0081614Y0223219D01*
X0081614Y0223150D01*
X0147245Y0197754D02*
X0147295Y0197754D01*
X0147295Y0187800D01*
X0158945Y0204546D02*
X0158945Y0211254D01*
X0158845Y0211254D01*
X0158845Y0217946D02*
X0158845Y0229800D01*
X0158395Y0229800D01*
X0236395Y0305528D02*
X0236438Y0305528D01*
X0259470Y0334072D02*
X0259470Y0341400D01*
X0251995Y0341400D01*
X0251995Y0346060D01*
X0251864Y0346060D01*
X0251724Y0346200D01*
X0246595Y0346200D01*
X0244795Y0348000D01*
X0242395Y0354000D02*
X0242395Y0358800D01*
X0242395Y0354000D02*
X0242142Y0354000D01*
X0242395Y0354000D02*
X0250617Y0354000D01*
X0251864Y0352753D01*
X0250795Y0353822D01*
X0250795Y0358800D01*
X0251696Y0360901D01*
X0251696Y0369357D01*
X0257995Y0369357D02*
X0257995Y0361800D01*
X0254995Y0358800D01*
X0259795Y0358800D02*
X0261145Y0360150D01*
X0261145Y0369357D01*
X0264294Y0369357D02*
X0264294Y0357765D01*
X0275995Y0357765D01*
X0275995Y0349035D02*
X0275560Y0348600D01*
X0271195Y0348600D01*
X0266255Y0353540D01*
X0260526Y0353540D01*
X0260666Y0346200D02*
X0260526Y0346060D01*
X0262029Y0344557D01*
X0262029Y0334072D01*
X0260666Y0346200D02*
X0268195Y0346200D01*
X0275995Y0349035D02*
X0275995Y0340340D01*
X0276135Y0340200D01*
X0278995Y0340200D01*
X0283795Y0345000D01*
X0282595Y0333000D02*
X0276135Y0333000D01*
X0275995Y0332860D01*
X0275995Y0333000D01*
X0275995Y0332860D02*
X0275995Y0316200D01*
X0301145Y0335650D02*
X0305895Y0330900D01*
X0346795Y0330900D01*
X0354895Y0322800D01*
X0374995Y0322800D01*
X0374995Y0332800D02*
X0374995Y0342800D01*
X0349995Y0342800D01*
X0343795Y0336600D01*
X0325099Y0336600D01*
X0324445Y0337254D01*
X0322842Y0335650D01*
X0311145Y0335650D01*
X0311145Y0345650D02*
X0324445Y0345650D01*
X0324445Y0343946D01*
X0275712Y0369357D02*
X0275712Y0391011D01*
X0240279Y0391011D01*
X0240279Y0388800D01*
X0240279Y0369357D01*
X0235449Y0354000D02*
X0235449Y0353400D01*
X0230395Y0353400D01*
X0230395Y0352800D01*
X0251696Y0352921D02*
X0251864Y0352753D01*
X0190195Y0143400D02*
X0190195Y0139200D01*
X0209995Y0139200D01*
X0190195Y0143400D02*
X0187795Y0143400D01*
X0168645Y0124400D02*
X0167045Y0126000D01*
X0163195Y0126000D01*
X0161595Y0124400D01*
X0158251Y0124400D01*
X0158251Y0122431D02*
X0164364Y0122431D01*
X0164995Y0122400D01*
X0168595Y0120600D02*
X0168645Y0120650D01*
X0158251Y0126369D02*
X0142795Y0126369D01*
X0186677Y0111681D02*
X0186677Y0094006D01*
X0186677Y0085200D01*
X0191995Y0085200D01*
X0191995Y0074400D01*
X0190795Y0073200D01*
X0185805Y0073200D01*
X0185620Y0073385D01*
X0185620Y0080078D02*
X0184708Y0080990D01*
X0184708Y0094006D01*
X0192582Y0094006D02*
X0192595Y0094019D01*
X0192595Y0100800D01*
X0194395Y0098400D02*
X0196195Y0100200D01*
X0196195Y0103200D01*
X0194395Y0105000D01*
X0199195Y0104400D02*
X0199195Y0100200D01*
X0196519Y0097524D01*
X0196519Y0094006D01*
X0194551Y0094006D02*
X0194395Y0094162D01*
X0194395Y0098400D01*
X0199195Y0104400D02*
X0199795Y0105000D01*
X0205795Y0109800D02*
X0207595Y0109800D01*
X0205795Y0109800D02*
X0196795Y0118800D01*
X0188995Y0114000D02*
X0186677Y0111681D01*
X0219039Y0110620D02*
X0279975Y0110620D01*
X0281995Y0108600D01*
X0267845Y0098496D02*
X0267845Y0098146D01*
X0277345Y0091804D02*
X0277949Y0091200D01*
X0276942Y0083400D02*
X0298895Y0083400D01*
X0301145Y0085650D01*
X0274795Y0075600D02*
X0269395Y0075600D01*
X0256195Y0088800D01*
X0248742Y0088800D01*
X0244795Y0084000D02*
X0256795Y0084000D01*
X0262795Y0078000D01*
X0262795Y0075000D01*
X0256195Y0075000D02*
X0237595Y0075000D01*
X0238195Y0079800D02*
X0240595Y0079800D01*
X0244795Y0084000D01*
X0242049Y0088800D02*
X0241195Y0088800D01*
X0234135Y0085800D02*
X0232795Y0085660D01*
X0233789Y0085454D01*
X0223195Y0092146D02*
X0223195Y0095400D01*
X0226195Y0098400D01*
X0219039Y0108652D02*
X0251043Y0108652D01*
X0251995Y0107700D01*
X0210938Y0035650D02*
X0210938Y0031457D01*
X0212995Y0029400D01*
X0212995Y0027000D01*
X0207001Y0030669D02*
X0204951Y0028619D01*
X0207001Y0030669D02*
X0207001Y0031119D01*
D59*
X0212995Y0027000D03*
X0227395Y0038400D03*
X0231595Y0046800D03*
X0232795Y0051600D03*
X0247495Y0054900D03*
X0249595Y0045000D03*
X0254995Y0047400D03*
X0257395Y0054000D03*
X0262195Y0050400D03*
X0276595Y0056400D03*
X0279595Y0040200D03*
X0298195Y0029400D03*
X0300895Y0036300D03*
X0318595Y0039600D03*
X0317995Y0044400D03*
X0329995Y0043200D03*
X0359395Y0042600D03*
X0359395Y0018600D03*
X0388795Y0046800D03*
X0394195Y0046800D03*
X0398995Y0046800D03*
X0403795Y0046800D03*
X0403795Y0051600D03*
X0398995Y0051600D03*
X0394195Y0051600D03*
X0394195Y0056400D03*
X0394195Y0061200D03*
X0394195Y0066000D03*
X0394195Y0070800D03*
X0394195Y0075600D03*
X0394195Y0080400D03*
X0394195Y0085200D03*
X0398995Y0085200D03*
X0398995Y0080400D03*
X0398995Y0075600D03*
X0398995Y0070800D03*
X0398995Y0066000D03*
X0398995Y0061200D03*
X0398995Y0056400D03*
X0403795Y0056400D03*
X0403795Y0061200D03*
X0403795Y0066000D03*
X0403795Y0070800D03*
X0403795Y0075600D03*
X0403795Y0080400D03*
X0403795Y0085200D03*
X0408595Y0085200D03*
X0408595Y0080400D03*
X0408595Y0075600D03*
X0408595Y0070800D03*
X0408595Y0066000D03*
X0408595Y0061200D03*
X0408595Y0056400D03*
X0408595Y0051600D03*
X0413395Y0051600D03*
X0413395Y0056400D03*
X0413395Y0061200D03*
X0413395Y0066000D03*
X0413395Y0070800D03*
X0413395Y0075600D03*
X0413395Y0080400D03*
X0413395Y0085200D03*
X0418195Y0085200D03*
X0418195Y0080400D03*
X0418195Y0075600D03*
X0418195Y0070800D03*
X0418195Y0066000D03*
X0418195Y0061200D03*
X0418195Y0056400D03*
X0418195Y0051600D03*
X0422995Y0051600D03*
X0422995Y0056400D03*
X0422995Y0061200D03*
X0422995Y0066000D03*
X0422995Y0070800D03*
X0422995Y0075600D03*
X0422995Y0080400D03*
X0422995Y0085200D03*
X0388795Y0085200D03*
X0388795Y0080400D03*
X0388795Y0075600D03*
X0388795Y0070800D03*
X0388795Y0066000D03*
X0388795Y0061200D03*
X0388795Y0056400D03*
X0388795Y0051600D03*
X0408595Y0046800D03*
X0413395Y0046800D03*
X0418195Y0046800D03*
X0422995Y0046800D03*
X0373795Y0088200D03*
X0356395Y0100800D03*
X0359995Y0106800D03*
X0357595Y0115800D03*
X0328195Y0140400D03*
X0292195Y0164700D03*
X0287995Y0173400D03*
X0280195Y0159600D03*
X0274795Y0155400D03*
X0271195Y0149400D03*
X0266395Y0145800D03*
X0262795Y0140400D03*
X0259795Y0134400D03*
X0256195Y0137400D03*
X0245395Y0136200D03*
X0224395Y0138600D03*
X0213595Y0133800D03*
X0209995Y0124200D03*
X0209995Y0117000D03*
X0207595Y0109800D03*
X0207595Y0103800D03*
X0211195Y0102000D03*
X0199795Y0105000D03*
X0194395Y0105000D03*
X0192595Y0100800D03*
X0188995Y0114000D03*
X0190195Y0121200D03*
X0196795Y0118800D03*
X0188995Y0130800D03*
X0187795Y0143400D03*
X0184195Y0147600D03*
X0192595Y0147000D03*
X0200395Y0147000D03*
X0205195Y0147000D03*
X0217195Y0159000D03*
X0224445Y0158950D03*
X0238795Y0158400D03*
X0238795Y0174000D03*
X0269395Y0193800D03*
X0274195Y0188400D03*
X0289795Y0193800D03*
X0257395Y0231600D03*
X0250195Y0236800D03*
X0239395Y0241800D03*
X0228595Y0256800D03*
X0225595Y0246600D03*
X0216595Y0241800D03*
X0217795Y0237000D03*
X0221995Y0232200D03*
X0207595Y0241800D03*
X0176395Y0252000D03*
X0167395Y0261000D03*
X0161395Y0281400D03*
X0195595Y0273000D03*
X0165895Y0223800D03*
X0158995Y0187800D03*
X0147295Y0187800D03*
X0138295Y0187800D03*
X0130195Y0203400D03*
X0120595Y0203400D03*
X0112195Y0203400D03*
X0104395Y0203400D03*
X0102595Y0193800D03*
X0074695Y0188400D03*
X0102595Y0144000D03*
X0106795Y0144000D03*
X0110995Y0144000D03*
X0115795Y0142200D03*
X0101995Y0125400D03*
X0118195Y0103200D03*
X0100195Y0088800D03*
X0091795Y0069600D03*
X0083095Y0066300D03*
X0082795Y0072600D03*
X0081595Y0059400D03*
X0068995Y0076200D03*
X0107995Y0046800D03*
X0108595Y0053400D03*
X0119007Y0055400D03*
X0115795Y0044400D03*
X0119995Y0043800D03*
X0133795Y0056400D03*
X0139195Y0056400D03*
X0147595Y0052200D03*
X0146995Y0046800D03*
X0145795Y0042000D03*
X0134995Y0046800D03*
X0132152Y0028957D03*
X0136795Y0025800D03*
X0130795Y0019800D03*
X0154795Y0029400D03*
X0172195Y0025800D03*
X0186595Y0029400D03*
X0220195Y0063600D03*
X0215995Y0067800D03*
X0211795Y0065400D03*
X0232795Y0070200D03*
X0237595Y0075000D03*
X0238195Y0079800D03*
X0245995Y0095400D03*
X0256795Y0099000D03*
X0260995Y0091200D03*
X0262795Y0075000D03*
X0256195Y0075000D03*
X0274795Y0075600D03*
X0284395Y0091200D03*
X0284395Y0098400D03*
X0281995Y0108600D03*
X0288595Y0108000D03*
X0251995Y0107700D03*
X0226195Y0098400D03*
X0174595Y0131400D03*
X0172495Y0134700D03*
X0170395Y0138000D03*
X0168595Y0141600D03*
X0166992Y0148022D03*
X0162595Y0160800D03*
X0146995Y0160800D03*
X0185695Y0162600D03*
X0192595Y0160200D03*
X0164995Y0122400D03*
X0164995Y0118200D03*
X0167995Y0109800D03*
X0164395Y0107400D03*
X0159595Y0092400D03*
X0143395Y0096600D03*
X0146995Y0106800D03*
X0142795Y0120600D03*
X0130195Y0075000D03*
X0122995Y0076200D03*
X0108595Y0069600D03*
X0100795Y0030600D03*
X0080995Y0025800D03*
X0047995Y0118200D03*
X0047395Y0138000D03*
X0052795Y0138000D03*
X0055195Y0237600D03*
X0050395Y0238800D03*
X0059995Y0238800D03*
X0064795Y0237000D03*
X0065395Y0268200D03*
X0071395Y0282000D03*
X0059995Y0286200D03*
X0050395Y0286200D03*
X0046795Y0266400D03*
X0112195Y0322800D03*
X0121448Y0332000D03*
X0233995Y0318600D03*
X0254395Y0319800D03*
X0255595Y0313800D03*
X0282595Y0333000D03*
X0283795Y0345000D03*
X0268195Y0346200D03*
X0259795Y0358800D03*
X0254995Y0358800D03*
X0244795Y0348000D03*
X0235795Y0346800D03*
X0242395Y0358800D03*
X0328195Y0258000D03*
X0332395Y0254400D03*
X0336595Y0246000D03*
X0341395Y0250200D03*
X0348895Y0239100D03*
X0371995Y0257400D03*
X0377395Y0252600D03*
X0395995Y0253200D03*
X0395995Y0245400D03*
X0320395Y0249000D03*
X0302395Y0015000D03*
D60*
X0298195Y0016800D02*
X0298195Y0019200D01*
X0298195Y0029400D01*
X0298195Y0019200D02*
X0320649Y0019200D01*
X0327342Y0019200D02*
X0334195Y0019200D01*
X0334195Y0030600D01*
X0329077Y0030600D01*
X0329077Y0034340D02*
X0319326Y0034340D01*
X0319326Y0026860D02*
X0329077Y0026860D01*
X0339313Y0026860D02*
X0350395Y0026860D01*
X0350995Y0026260D01*
X0352167Y0025088D01*
X0361195Y0025088D01*
X0359395Y0024488D01*
X0359395Y0018600D01*
X0354135Y0033740D02*
X0350995Y0033740D01*
X0350855Y0033600D01*
X0346795Y0033600D01*
X0343795Y0030600D01*
X0339313Y0030600D01*
X0350535Y0034200D02*
X0350995Y0033740D01*
X0350535Y0034200D02*
X0350535Y0043800D01*
X0350535Y0059860D01*
X0347695Y0062700D01*
X0346195Y0061200D01*
X0344255Y0061200D01*
X0343795Y0060740D01*
X0343795Y0064800D01*
X0331394Y0077202D01*
X0329995Y0077202D01*
X0319195Y0070200D02*
X0247495Y0070200D01*
X0247495Y0064546D01*
X0252595Y0064546D01*
X0247495Y0064546D02*
X0247495Y0054900D01*
X0247495Y0070200D02*
X0232795Y0070200D01*
X0232795Y0085660D02*
X0223195Y0085660D01*
X0223195Y0085454D01*
X0232795Y0085660D02*
X0241195Y0085660D01*
X0241195Y0088800D01*
X0245995Y0095400D02*
X0235055Y0095400D01*
X0232795Y0093140D01*
X0256795Y0095400D02*
X0256795Y0099000D01*
X0256795Y0095400D02*
X0260995Y0091200D01*
X0267592Y0091200D01*
X0267592Y0086057D01*
X0270249Y0083400D01*
X0267592Y0091200D02*
X0267845Y0091454D01*
X0267845Y0098146D02*
X0268195Y0098496D01*
X0277345Y0098496D01*
X0284299Y0098496D01*
X0284395Y0098400D01*
X0284395Y0091200D02*
X0277949Y0091200D01*
X0284395Y0091200D02*
X0293395Y0100200D01*
X0305995Y0100200D01*
X0311395Y0105600D01*
X0311195Y0105600D01*
X0311145Y0105650D01*
X0311395Y0105600D02*
X0320395Y0105600D01*
X0320395Y0117600D01*
X0320594Y0117402D01*
X0337795Y0117402D01*
X0337994Y0117600D01*
X0345595Y0117600D01*
X0355994Y0107202D01*
X0359594Y0107202D01*
X0359995Y0106800D01*
X0367335Y0106800D01*
X0367795Y0107260D01*
X0369567Y0105488D01*
X0380395Y0105488D01*
X0389874Y0105488D01*
X0390455Y0106069D01*
X0397935Y0106069D02*
X0398395Y0105609D01*
X0398395Y0098400D01*
X0395395Y0095400D01*
X0377395Y0095400D01*
X0371995Y0100800D01*
X0356395Y0100800D01*
X0359797Y0106602D02*
X0359995Y0106800D01*
X0367795Y0114740D02*
X0368395Y0114740D01*
X0368395Y0123600D01*
X0404395Y0123600D01*
X0404395Y0104400D01*
X0406795Y0102000D01*
X0415691Y0102000D01*
X0416001Y0102310D01*
X0394195Y0114731D02*
X0382176Y0114731D01*
X0380507Y0116400D01*
X0380395Y0116512D01*
X0369567Y0116512D01*
X0367795Y0114740D01*
X0365995Y0092540D02*
X0358195Y0092540D01*
X0358195Y0093000D01*
X0358055Y0085200D02*
X0352195Y0085200D01*
X0344797Y0092598D01*
X0337795Y0092598D01*
X0324794Y0092598D01*
X0319195Y0087000D01*
X0319195Y0070200D01*
X0307795Y0053400D02*
X0308995Y0052200D01*
X0329797Y0052200D01*
X0329995Y0052398D01*
X0329995Y0043200D01*
X0329995Y0052398D02*
X0342934Y0052398D01*
X0342934Y0045121D01*
X0343055Y0043800D01*
X0342934Y0052398D02*
X0343795Y0053260D01*
X0347695Y0062700D02*
X0349655Y0064660D01*
X0349655Y0070200D01*
X0356395Y0068400D02*
X0356395Y0053400D01*
X0362395Y0053400D01*
X0362395Y0053260D01*
X0373795Y0053260D01*
X0373795Y0053800D01*
X0373795Y0060500D02*
X0362635Y0060500D01*
X0362395Y0060740D01*
X0362395Y0076800D01*
X0358195Y0081000D01*
X0358195Y0085060D01*
X0358055Y0085200D01*
X0358195Y0085060D02*
X0357735Y0084600D01*
X0365995Y0092540D02*
X0365995Y0067200D01*
X0373795Y0067200D01*
X0406595Y0067200D01*
X0373795Y0060740D02*
X0373795Y0060500D01*
X0373795Y0073900D02*
X0373795Y0080600D01*
X0373795Y0088200D01*
X0357135Y0070200D02*
X0356395Y0068400D01*
X0359395Y0042600D02*
X0359395Y0037912D01*
X0361195Y0036112D01*
X0359883Y0036000D01*
X0356395Y0036000D01*
X0354135Y0033740D01*
X0298195Y0016800D02*
X0218395Y0016800D01*
X0218395Y0030000D01*
X0215995Y0032400D01*
X0215995Y0034801D01*
X0219795Y0035650D02*
X0219795Y0036800D01*
X0223195Y0040200D01*
X0225595Y0040200D01*
X0227395Y0038400D01*
X0291545Y0053400D02*
X0292195Y0052750D01*
X0320395Y0117600D02*
X0320395Y0130500D01*
X0305995Y0130500D01*
X0301145Y0135350D01*
X0301145Y0135650D01*
X0292195Y0135650D01*
X0292195Y0164700D01*
X0293895Y0188400D02*
X0274195Y0188400D01*
X0269395Y0193800D02*
X0268195Y0193200D01*
X0240645Y0165650D01*
X0233645Y0165650D01*
X0229895Y0139004D02*
X0242592Y0139004D01*
X0245395Y0136200D01*
X0229895Y0139004D02*
X0229492Y0138600D01*
X0224395Y0138600D01*
X0269395Y0193800D02*
X0289795Y0193800D01*
X0293895Y0188400D02*
X0301145Y0195650D01*
X0195595Y0273000D02*
X0185995Y0273000D01*
X0166795Y0253800D01*
X0166795Y0229800D01*
X0158845Y0229800D01*
X0158395Y0229800D02*
X0147595Y0229800D01*
X0138595Y0229800D01*
X0124795Y0229800D01*
X0099595Y0204600D01*
X0099595Y0196800D01*
X0102595Y0193800D01*
X0074695Y0188400D02*
X0074695Y0169200D01*
X0055795Y0169200D01*
X0050995Y0188400D02*
X0050995Y0193454D01*
X0043795Y0193454D01*
X0043795Y0209400D01*
X0050995Y0209400D01*
X0050995Y0209054D01*
X0043795Y0209400D02*
X0043795Y0248400D01*
X0047695Y0248400D01*
X0050995Y0188400D02*
X0074695Y0188400D01*
X0074695Y0169200D02*
X0074695Y0151200D01*
X0062695Y0137700D01*
X0062695Y0127764D01*
X0062695Y0122700D01*
X0067195Y0118200D01*
X0069342Y0118200D01*
X0069595Y0117946D01*
X0070195Y0117346D02*
X0076195Y0117346D01*
X0076195Y0108000D01*
X0087064Y0108000D01*
X0091614Y0103150D01*
X0100195Y0088800D02*
X0100195Y0083400D01*
X0083095Y0066300D01*
X0086395Y0062700D01*
X0086395Y0036000D01*
X0087707Y0035888D01*
X0092995Y0035888D01*
X0093595Y0035288D01*
X0093595Y0031800D01*
X0094795Y0030600D01*
X0100795Y0030600D01*
X0103795Y0030600D01*
X0106795Y0027600D01*
X0106795Y0021626D01*
X0106821Y0021600D01*
X0107395Y0022174D01*
X0099023Y0035888D02*
X0092995Y0035888D01*
X0099023Y0035888D02*
X0101395Y0038260D01*
X0100795Y0038260D01*
X0101395Y0038260D02*
X0101535Y0038260D01*
X0101395Y0045740D02*
X0101395Y0046800D01*
X0107995Y0046800D01*
X0101395Y0045740D02*
X0100795Y0046340D01*
X0100795Y0054600D01*
X0100223Y0046912D02*
X0092995Y0046912D01*
X0100223Y0046912D02*
X0101395Y0045740D01*
X0112795Y0055400D02*
X0112795Y0061800D01*
X0091195Y0061800D01*
X0091195Y0063600D01*
X0088495Y0066300D01*
X0083095Y0066300D01*
X0080395Y0063600D01*
X0075313Y0063600D01*
X0075313Y0059860D02*
X0081135Y0059860D01*
X0081595Y0059400D01*
X0078045Y0057128D02*
X0078045Y0042600D01*
X0078045Y0038450D01*
X0066595Y0027000D01*
X0066595Y0025312D01*
X0064683Y0023400D01*
X0075707Y0023400D02*
X0078107Y0025800D01*
X0080995Y0025800D01*
X0085795Y0025800D01*
X0085795Y0021600D01*
X0087569Y0021600D01*
X0061795Y0042600D02*
X0061795Y0056578D01*
X0065077Y0059860D01*
X0065077Y0067340D01*
X0065077Y0072282D01*
X0068995Y0076200D01*
X0075313Y0059860D02*
X0078045Y0057128D01*
X0091795Y0069600D02*
X0108595Y0086400D01*
X0108595Y0106200D01*
X0109195Y0106800D01*
X0130195Y0106800D01*
X0131395Y0105600D01*
X0131395Y0100226D01*
X0118195Y0097912D02*
X0118195Y0103200D01*
X0118195Y0086888D02*
X0118195Y0081000D01*
X0122995Y0076200D01*
X0112795Y0076200D01*
X0108595Y0072000D01*
X0108595Y0069600D01*
X0100795Y0069600D01*
X0112795Y0055400D02*
X0119007Y0055400D01*
X0122995Y0076200D02*
X0124195Y0076200D01*
X0128995Y0081000D01*
X0131369Y0081000D01*
X0131395Y0080974D01*
X0219118Y0360000D02*
X0214795Y0364323D01*
X0214635Y0361800D01*
X0199195Y0361800D01*
X0194594Y0366402D01*
X0192595Y0366402D01*
X0192595Y0377598D02*
X0194594Y0377598D01*
X0199195Y0382200D01*
X0214635Y0382200D01*
X0214795Y0379677D01*
X0223918Y0388800D01*
X0240279Y0388800D01*
X0241795Y0360000D02*
X0219118Y0360000D01*
X0241795Y0360000D02*
X0242395Y0359400D01*
X0242395Y0358800D01*
D61*
X0206745Y0169950D03*
X0211145Y0168150D03*
X0233645Y0165650D03*
X0187395Y0118150D03*
X0168645Y0120650D03*
X0202395Y0085650D03*
X0202395Y0081275D03*
X0208645Y0074400D03*
X0205195Y0072000D03*
X0201595Y0069600D03*
X0198595Y0067200D03*
X0194395Y0064200D03*
X0171145Y0063150D03*
X0166145Y0063150D03*
X0161614Y0062525D03*
X0158645Y0065650D03*
X0160195Y0069600D03*
X0164995Y0069600D03*
X0167764Y0072569D03*
X0168858Y0076588D03*
X0171145Y0080650D03*
X0154895Y0069400D03*
X0204951Y0028619D03*
X0209270Y0028775D03*
D62*
X0208970Y0028775D01*
X0208970Y0035650D01*
X0208970Y0038787D01*
X0220208Y0050025D01*
X0220208Y0056496D01*
X0224895Y0056496D01*
X0217864Y0052681D02*
X0217708Y0051119D01*
X0205033Y0038757D01*
X0205033Y0035650D01*
X0207001Y0035650D02*
X0207001Y0031119D01*
X0203064Y0035650D02*
X0203064Y0039288D01*
X0214895Y0050962D01*
X0214895Y0052525D01*
X0214739Y0052681D01*
X0211770Y0052525D02*
X0211770Y0050650D01*
X0201096Y0039976D01*
X0201096Y0035650D01*
X0199127Y0035650D02*
X0199127Y0040976D01*
X0208489Y0050337D01*
X0208489Y0052681D01*
X0211614Y0052681D02*
X0211770Y0052525D01*
X0208489Y0058306D02*
X0208645Y0058462D01*
X0208645Y0074400D01*
X0206362Y0082933D02*
X0206362Y0094006D01*
X0208330Y0094006D02*
X0208330Y0083309D01*
X0210299Y0083840D02*
X0210299Y0094006D01*
X0212267Y0094006D02*
X0212267Y0085153D01*
X0202395Y0085650D02*
X0200456Y0087589D01*
X0200456Y0094006D01*
X0198488Y0094006D02*
X0198488Y0082993D01*
X0202395Y0081275D01*
X0194739Y0087212D02*
X0194739Y0072994D01*
X0188645Y0066900D01*
X0191458Y0066744D02*
X0196614Y0071900D01*
X0196614Y0089244D01*
X0190614Y0089244D01*
X0190614Y0094006D01*
X0188645Y0094006D02*
X0188645Y0087212D01*
X0194739Y0087212D01*
X0184708Y0094006D02*
X0184708Y0107087D01*
X0182740Y0105306D02*
X0182740Y0094006D01*
X0180771Y0094006D02*
X0180771Y0064930D01*
X0178803Y0063930D02*
X0178803Y0094006D01*
X0176834Y0094006D02*
X0176834Y0066217D01*
X0174895Y0066075D02*
X0174895Y0093977D01*
X0174866Y0094006D01*
X0172897Y0094006D02*
X0172897Y0082402D01*
X0171145Y0080650D01*
X0170929Y0084533D02*
X0166795Y0080400D01*
X0166795Y0078338D01*
X0168858Y0076588D01*
X0167764Y0072569D02*
X0164995Y0074400D01*
X0164995Y0081600D01*
X0168960Y0085565D01*
X0168960Y0094006D01*
X0166992Y0094006D02*
X0166992Y0085996D01*
X0163195Y0082200D01*
X0163195Y0071400D01*
X0164995Y0069600D01*
X0160795Y0070200D02*
X0160195Y0069600D01*
X0160795Y0070200D02*
X0160795Y0082800D01*
X0165023Y0087028D01*
X0165023Y0094006D01*
X0170929Y0094006D02*
X0170929Y0084533D01*
X0155364Y0068931D02*
X0155364Y0058306D01*
X0158489Y0058306D02*
X0158645Y0058462D01*
X0158645Y0065650D01*
X0161614Y0062525D02*
X0161614Y0058306D01*
X0161614Y0052681D02*
X0161770Y0052525D01*
X0161770Y0049556D01*
X0163694Y0047632D01*
X0163694Y0035650D01*
X0161726Y0035650D02*
X0161726Y0046163D01*
X0158489Y0049400D01*
X0158489Y0052681D01*
X0155520Y0052525D02*
X0155520Y0049087D01*
X0159757Y0044850D01*
X0159757Y0035650D01*
X0157789Y0035650D02*
X0155820Y0035650D01*
X0153852Y0035650D01*
X0151883Y0035650D01*
X0149915Y0035650D02*
X0149915Y0047232D01*
X0152395Y0049712D01*
X0152395Y0052525D01*
X0152239Y0052681D01*
X0155364Y0052681D02*
X0155520Y0052525D01*
X0152239Y0058306D02*
X0152239Y0062056D01*
X0151145Y0063150D01*
X0151145Y0102746D01*
X0158251Y0102746D01*
X0168645Y0120650D02*
X0168645Y0124400D01*
X0178645Y0124400D01*
X0190614Y0154794D02*
X0192582Y0154794D01*
X0194551Y0154794D01*
X0202425Y0154794D02*
X0202425Y0159370D01*
X0204393Y0160748D02*
X0204393Y0154794D01*
X0206362Y0154794D02*
X0206362Y0167933D01*
X0208330Y0164085D02*
X0208330Y0154794D01*
X0210299Y0154794D02*
X0210299Y0161054D01*
X0214895Y0165650D01*
X0217948Y0165650D01*
X0219049Y0165650D01*
X0225742Y0165650D02*
X0233645Y0165650D01*
X0226145Y0165640D02*
X0226145Y0160650D01*
X0224745Y0159250D01*
X0224445Y0158950D02*
X0220289Y0154794D01*
X0212267Y0154794D01*
X0219039Y0148022D02*
X0219039Y0146054D01*
X0219039Y0144085D01*
X0219039Y0142117D01*
X0219039Y0140148D01*
X0219039Y0138180D01*
X0219039Y0136211D01*
X0219039Y0134243D01*
X0208330Y0164085D02*
X0211145Y0166900D01*
X0211145Y0168150D01*
X0225742Y0165650D02*
X0226145Y0165640D01*
X0154895Y0069400D02*
X0155364Y0068931D01*
X0173537Y0047885D02*
X0173537Y0035650D01*
X0175505Y0035650D02*
X0175505Y0046260D01*
X0177474Y0045729D02*
X0177474Y0035650D01*
X0179442Y0035650D02*
X0179442Y0044416D01*
X0181411Y0042947D02*
X0181411Y0035650D01*
X0183379Y0035650D02*
X0183379Y0042259D01*
X0185348Y0035650D02*
X0185348Y0029400D01*
X0185348Y0035650D02*
X0187316Y0035650D01*
X0189285Y0035650D01*
X0191253Y0035650D02*
X0191253Y0046071D01*
X0193222Y0044758D02*
X0193222Y0035650D01*
X0195190Y0035650D02*
X0195190Y0043602D01*
X0197159Y0042758D02*
X0197159Y0035650D01*
X0212907Y0035650D02*
X0212907Y0038662D01*
X0216301Y0042056D01*
X0171568Y0035650D02*
X0169600Y0035650D01*
X0169895Y0035650D01*
X0167631Y0035650D02*
X0167631Y0045574D01*
X0165663Y0046730D02*
X0165663Y0035650D01*
D63*
X0257395Y0054000D02*
X0258595Y0055200D01*
X0258595Y0063000D01*
X0273595Y0063000D02*
X0273595Y0059400D01*
X0276595Y0056400D01*
X0292195Y0052750D02*
X0292195Y0045000D01*
X0300895Y0036300D01*
X0302395Y0034800D01*
X0306595Y0030600D01*
X0310664Y0030600D01*
M02*
