%
M48
M72
T01C0.01181
T02C0.01200
T03C0.02362
T04C0.03150
T05C0.03200
T06C0.03543
T07C0.03937
T08C0.04016
T09C0.04331
T10C0.05512
T11C0.12600
%
T01
X154895Y69400
X158645Y65650
X160195Y69600
X164995Y69600
X167764Y72569
X168858Y76588
X171145Y80650
X171145Y63150
X166145Y63150
X161614Y62525
X194395Y64200
X198595Y67200
X201595Y69600
X205195Y72000
X208645Y74400
X202395Y81275
X202395Y85650
X187395Y118150
X168645Y120650
X206745Y169950
X211145Y168150
X233645Y165650
X209270Y28775
X204951Y28619
T02
X212995Y27000
X227395Y38400
X231595Y46800
X232795Y51600
X247495Y54900
X249595Y45000
X254995Y47400
X257395Y54000
X262195Y50400
X276595Y56400
X279595Y40200
X298195Y29400
X300895Y36300
X318595Y39600
X317995Y44400
X329995Y43200
X359395Y42600
X359395Y18600
X388795Y46800
X394195Y46800
X398995Y46800
X403795Y46800
X403795Y51600
X398995Y51600
X394195Y51600
X394195Y56400
X394195Y61200
X394195Y66000
X394195Y70800
X394195Y75600
X394195Y80400
X394195Y85200
X398995Y85200
X398995Y80400
X398995Y75600
X398995Y70800
X398995Y66000
X398995Y61200
X398995Y56400
X403795Y56400
X403795Y61200
X403795Y66000
X403795Y70800
X403795Y75600
X403795Y80400
X403795Y85200
X408595Y85200
X408595Y80400
X408595Y75600
X408595Y70800
X408595Y66000
X408595Y61200
X408595Y56400
X408595Y51600
X413395Y51600
X413395Y56400
X413395Y61200
X413395Y66000
X413395Y70800
X413395Y75600
X413395Y80400
X413395Y85200
X418195Y85200
X418195Y80400
X418195Y75600
X418195Y70800
X418195Y66000
X418195Y61200
X418195Y56400
X418195Y51600
X422995Y51600
X422995Y56400
X422995Y61200
X422995Y66000
X422995Y70800
X422995Y75600
X422995Y80400
X422995Y85200
X388795Y85200
X388795Y80400
X388795Y75600
X388795Y70800
X388795Y66000
X388795Y61200
X388795Y56400
X388795Y51600
X408595Y46800
X413395Y46800
X418195Y46800
X422995Y46800
X373795Y88200
X356395Y100800
X359995Y106800
X357595Y115800
X328195Y140400
X292195Y164700
X287995Y173400
X280195Y159600
X274795Y155400
X271195Y149400
X266395Y145800
X262795Y140400
X259795Y134400
X256195Y137400
X245395Y136200
X224395Y138600
X213595Y133800
X209995Y124200
X209995Y117000
X207595Y109800
X207595Y103800
X211195Y102000
X199795Y105000
X194395Y105000
X192595Y100800
X188995Y114000
X190195Y121200
X196795Y118800
X188995Y130800
X187795Y143400
X184195Y147600
X192595Y147000
X200395Y147000
X205195Y147000
X217195Y159000
X224445Y158950
X238795Y158400
X238795Y174000
X269395Y193800
X274195Y188400
X289795Y193800
X257395Y231600
X250195Y236800
X239395Y241800
X228595Y256800
X225595Y246600
X216595Y241800
X217795Y237000
X221995Y232200
X207595Y241800
X176395Y252000
X167395Y261000
X161395Y281400
X195595Y273000
X165895Y223800
X158995Y187800
X147295Y187800
X138295Y187800
X130195Y203400
X120595Y203400
X112195Y203400
X104395Y203400
X102595Y193800
X74695Y188400
X102595Y144000
X106795Y144000
X110995Y144000
X115795Y142200
X101995Y125400
X118195Y103200
X100195Y88800
X91795Y69600
X83095Y66300
X82795Y72600
X81595Y59400
X68995Y76200
X107995Y46800
X108595Y53400
X119007Y55400
X115795Y44400
X119995Y43800
X133795Y56400
X139195Y56400
X147595Y52200
X146995Y46800
X145795Y42000
X134995Y46800
X132152Y28957
X136795Y25800
X130795Y19800
X154795Y29400
X172195Y25800
X186595Y29400
X220195Y63600
X215995Y67800
X211795Y65400
X232795Y70200
X237595Y75000
X238195Y79800
X245995Y95400
X256795Y99000
X260995Y91200
X262795Y75000
X256195Y75000
X274795Y75600
X284395Y91200
X284395Y98400
X281995Y108600
X288595Y108000
X251995Y107700
X226195Y98400
X174595Y131400
X172495Y134700
X170395Y138000
X168595Y141600
X166992Y148022
X162595Y160800
X146995Y160800
X185695Y162600
X192595Y160200
X164995Y122400
X164995Y118200
X167995Y109800
X164395Y107400
X159595Y92400
X143395Y96600
X146995Y106800
X142795Y120600
X130195Y75000
X122995Y76200
X108595Y69600
X100795Y30600
X80995Y25800
X47995Y118200
X47395Y138000
X52795Y138000
X55195Y237600
X50395Y238800
X59995Y238800
X64795Y237000
X65395Y268200
X71395Y282000
X59995Y286200
X50395Y286200
X46795Y266400
X112195Y322800
X121448Y332000
X233995Y318600
X254395Y319800
X255595Y313800
X282595Y333000
X283795Y345000
X268195Y346200
X259795Y358800
X254995Y358800
X244795Y348000
X235795Y346800
X242395Y358800
X328195Y258000
X332395Y254400
X336595Y246000
X341395Y250200
X348895Y239100
X371995Y257400
X377395Y252600
X395995Y253200
X395995Y245400
X320395Y249000
X302395Y15000
T03
X262795Y216800
X262795Y221800
X262795Y226800
X262795Y231800
X262795Y236800
X262795Y241800
X262795Y246800
X262795Y251800
X262795Y256800
X189595Y256800
X189595Y251800
X189595Y246800
X189595Y241800
X189595Y236800
X189595Y231800
X189595Y226800
X189595Y221800
X189595Y216800
T04
X91614Y213150
X91614Y203150
X91614Y193150
X91614Y183150
X91614Y173150
X91614Y163150
X91614Y153150
X91614Y143150
X91614Y133150
X91614Y123150
X91614Y113150
X91614Y103150
X91614Y93150
X91614Y83150
X81614Y83150
X81614Y93150
X81614Y103150
X81614Y113150
X81614Y123150
X81614Y133150
X81614Y143150
X81614Y153150
X81614Y163150
X81614Y173150
X81614Y183150
X81614Y193150
X81614Y203150
X81614Y213150
X81614Y223150
X91614Y223150
X91614Y233150
X91614Y243150
X91614Y253150
X91614Y263150
X91614Y273150
X91614Y283150
X91614Y293150
X91614Y303150
X91614Y313150
X91614Y323150
X91614Y333150
X91614Y343150
X91614Y353150
X91614Y363150
X91614Y373150
X81614Y373150
X81614Y363150
X81614Y353150
X81614Y343150
X81614Y333150
X81614Y323150
X81614Y313150
X81614Y303150
X81614Y293150
X81614Y283150
X81614Y273150
X81614Y263150
X81614Y253150
X81614Y243150
X81614Y233150
X301145Y235650
X301145Y225650
X301145Y215650
X311145Y215650
X311145Y225650
X311145Y235650
X311145Y245650
X301145Y245650
X301145Y255650
X301145Y265650
X311145Y265650
X311145Y255650
X311145Y275650
X301145Y275650
X301145Y285650
X301145Y295650
X311145Y295650
X311145Y285650
X311145Y305650
X301145Y305650
X301145Y315650
X301145Y325650
X311145Y325650
X311145Y315650
X311145Y335650
X301145Y335650
X301145Y345650
X301145Y355650
X311145Y355650
X311145Y345650
X311145Y365650
X301145Y365650
X301145Y375650
X311145Y375650
X311145Y205650
X301145Y205650
X301145Y195650
X301145Y185650
X311145Y185650
X311145Y195650
X311145Y175650
X301145Y175650
X301145Y165650
X301145Y155650
X311145Y155650
X311145Y165650
X311145Y145650
X301145Y145650
X301145Y135650
X301145Y125650
X311145Y125650
X311145Y135650
X311145Y115650
X301145Y115650
X301145Y105650
X301145Y95650
X311145Y95650
X311145Y105650
X311145Y85650
X301145Y85650
T05
X216895Y183150
X197895Y183150
T06
X249334Y379200
X266657Y379200
T07
X54989Y339580
X54989Y325800
X54989Y312020
X416001Y116090
X416001Y102310
T08
X192995Y294200
X182995Y294200
X182995Y304200
X192995Y304200
X192995Y314200
X182995Y314200
X182995Y324200
X182995Y334200
X192995Y334200
X192995Y324200
X153995Y332000
X143995Y332000
X143995Y342000
X143995Y352000
X153995Y352000
X153995Y342000
X153995Y362000
X143995Y362000
X143995Y372000
X153995Y372000
X153995Y286200
X143995Y286200
X143995Y276200
X153995Y276200
X153995Y266200
X143995Y266200
X143995Y256200
X143995Y246200
X153995Y246200
X153995Y256200
X130795Y167200
X130795Y157200
X130795Y147200
X120795Y147200
X120795Y157200
X120795Y167200
X120795Y137200
X120795Y127200
X130795Y127200
X130795Y137200
X54595Y104000
X54595Y94000
X54595Y84000
X374995Y322800
X374995Y332800
X374995Y342800
X384995Y342800
X384995Y332800
X384995Y322800
T09
X252595Y273000
X235195Y273000
X217795Y273000
X55795Y169200
T10
X363595Y166200
X383595Y166200
T11
X50995Y21600
X50995Y389400
X418795Y389400
X418795Y21600
M30
