G75*
%MOIN*%
%OFA0B0*%
%FSLAX25Y25*%
%IPPOS*%
%LPD*%
%AMOC8*
5,1,8,0,0,1.08239X$1,22.5*
%
%ADD10C,0.15120*%
%ADD11R,0.99300X0.05100*%
%ADD12R,0.04200X0.48900*%
%ADD13R,0.49200X0.04200*%
%ADD14R,0.04500X0.49200*%
%ADD15R,0.49200X0.04500*%
%ADD16R,0.03900X0.68100*%
%ADD17R,0.04200X0.68100*%
%ADD18R,0.36000X0.06900*%
%ADD19R,0.35400X0.06900*%
%ADD20R,0.15300X0.10800*%
%ADD21R,0.01581X0.03943*%
%ADD22R,0.03943X0.01581*%
%ADD23R,0.05669X0.05669*%
%ADD24R,0.04724X0.05118*%
%ADD25R,0.05118X0.04724*%
%ADD26C,0.05760*%
%ADD27R,0.02369X0.12211*%
%ADD28R,0.11811X0.13780*%
%ADD29R,0.01384X0.04731*%
%ADD30R,0.10866X0.14016*%
%ADD31R,0.03550X0.01975*%
%ADD32R,0.01975X0.02762*%
%ADD33R,0.02835X0.09134*%
%ADD34C,0.07228*%
%ADD35C,0.07087*%
%ADD36R,0.07228X0.07228*%
%ADD37C,0.07228*%
%ADD38R,0.05157X0.02598*%
%ADD39OC8,0.07228*%
%ADD40R,0.09921X0.09921*%
%ADD41C,0.09921*%
%ADD42R,0.01975X0.06306*%
%ADD43R,0.02369X0.10243*%
%ADD44R,0.09449X0.11417*%
%ADD45C,0.04252*%
%ADD46R,0.06772X0.05197*%
%ADD47R,0.06457X0.04724*%
%ADD48R,0.06614X0.05669*%
%ADD49R,0.06929X0.06142*%
%ADD50R,0.07087X0.07087*%
%ADD51R,0.10394X0.21811*%
%ADD52R,0.11378X0.06850*%
%ADD53R,0.07720X0.04320*%
%ADD54R,0.07559X0.08346*%
%ADD55R,0.06850X0.11378*%
%ADD56R,0.04724X0.06299*%
%ADD57R,0.08346X0.07559*%
%ADD58R,0.12913X0.11339*%
%ADD59R,0.06142X0.06929*%
%ADD60R,0.44184X0.45720*%
%ADD61R,0.09340X0.05040*%
%ADD62R,0.06299X0.04724*%
%ADD63C,0.12000*%
%ADD64R,0.08358X0.07559*%
%ADD65R,0.14882X0.08976*%
%ADD66R,0.04320X0.07720*%
%ADD67R,0.03307X0.09843*%
%ADD68R,0.04800X0.04800*%
%ADD69C,0.04800*%
D10*
X0050995Y0021600D03*
X0050995Y0389400D03*
X0418795Y0389400D03*
X0418795Y0021600D03*
D11*
X0172945Y0035550D03*
D12*
X0218995Y0124350D03*
D13*
X0188695Y0154800D03*
D14*
X0158245Y0124500D03*
D15*
X0188695Y0094050D03*
D16*
X0360145Y0250050D03*
D17*
X0404995Y0250050D03*
D18*
X0245395Y0334050D03*
D19*
X0245395Y0305550D03*
D20*
X0258145Y0369300D03*
D21*
X0212267Y0154794D03*
X0210299Y0154794D03*
X0208330Y0154794D03*
X0206362Y0154794D03*
X0204393Y0154794D03*
X0202425Y0154794D03*
X0200456Y0154794D03*
X0198488Y0154794D03*
X0196519Y0154794D03*
X0194551Y0154794D03*
X0192582Y0154794D03*
X0190614Y0154794D03*
X0188645Y0154794D03*
X0186677Y0154794D03*
X0184708Y0154794D03*
X0182740Y0154794D03*
X0180771Y0154794D03*
X0178803Y0154794D03*
X0176834Y0154794D03*
X0174866Y0154794D03*
X0172897Y0154794D03*
X0170929Y0154794D03*
X0168960Y0154794D03*
X0166992Y0154794D03*
X0165023Y0154794D03*
X0165023Y0094006D03*
X0166992Y0094006D03*
X0168960Y0094006D03*
X0170929Y0094006D03*
X0172897Y0094006D03*
X0174866Y0094006D03*
X0176834Y0094006D03*
X0178803Y0094006D03*
X0180771Y0094006D03*
X0182740Y0094006D03*
X0184708Y0094006D03*
X0186677Y0094006D03*
X0188645Y0094006D03*
X0190614Y0094006D03*
X0192582Y0094006D03*
X0194551Y0094006D03*
X0196519Y0094006D03*
X0198488Y0094006D03*
X0200456Y0094006D03*
X0202425Y0094006D03*
X0204393Y0094006D03*
X0206362Y0094006D03*
X0208330Y0094006D03*
X0210299Y0094006D03*
X0212267Y0094006D03*
D22*
X0219039Y0100778D03*
X0219039Y0102746D03*
X0219039Y0104715D03*
X0219039Y0106683D03*
X0219039Y0108652D03*
X0219039Y0110620D03*
X0219039Y0112589D03*
X0219039Y0114557D03*
X0219039Y0116526D03*
X0219039Y0118494D03*
X0219039Y0120463D03*
X0219039Y0122431D03*
X0219039Y0124400D03*
X0219039Y0126369D03*
X0219039Y0128337D03*
X0219039Y0130306D03*
X0219039Y0132274D03*
X0219039Y0134243D03*
X0219039Y0136211D03*
X0219039Y0138180D03*
X0219039Y0140148D03*
X0219039Y0142117D03*
X0219039Y0144085D03*
X0219039Y0146054D03*
X0219039Y0148022D03*
X0158251Y0148022D03*
X0158251Y0146054D03*
X0158251Y0144085D03*
X0158251Y0142117D03*
X0158251Y0140148D03*
X0158251Y0138180D03*
X0158251Y0136211D03*
X0158251Y0134243D03*
X0158251Y0132274D03*
X0158251Y0130306D03*
X0158251Y0128337D03*
X0158251Y0126369D03*
X0158251Y0124400D03*
X0158251Y0122431D03*
X0158251Y0120463D03*
X0158251Y0118494D03*
X0158251Y0116526D03*
X0158251Y0114557D03*
X0158251Y0112589D03*
X0158251Y0110620D03*
X0158251Y0108652D03*
X0158251Y0106683D03*
X0158251Y0104715D03*
X0158251Y0102746D03*
X0158251Y0100778D03*
D23*
X0091614Y0103150D03*
X0091614Y0113150D03*
X0091614Y0123150D03*
X0091614Y0133150D03*
X0091614Y0143150D03*
X0091614Y0153150D03*
X0091614Y0163150D03*
X0091614Y0173150D03*
X0091614Y0183150D03*
X0091614Y0193150D03*
X0091614Y0203150D03*
X0091614Y0213150D03*
X0091614Y0223150D03*
X0091614Y0233150D03*
X0091614Y0243150D03*
X0091614Y0253150D03*
X0091614Y0263150D03*
X0091614Y0273150D03*
X0091614Y0283150D03*
X0091614Y0293150D03*
X0091614Y0303150D03*
X0091614Y0313150D03*
X0091614Y0323150D03*
X0091614Y0333150D03*
X0091614Y0343150D03*
X0091614Y0353150D03*
X0091614Y0363150D03*
X0091614Y0373150D03*
X0081614Y0373150D03*
X0081614Y0363150D03*
X0081614Y0353150D03*
X0081614Y0343150D03*
X0081614Y0333150D03*
X0081614Y0323150D03*
X0081614Y0313150D03*
X0081614Y0303150D03*
X0081614Y0293150D03*
X0081614Y0283150D03*
X0081614Y0273150D03*
X0081614Y0263150D03*
X0081614Y0253150D03*
X0081614Y0243150D03*
X0081614Y0233150D03*
X0081614Y0223150D03*
X0081614Y0213150D03*
X0081614Y0203150D03*
X0081614Y0193150D03*
X0081614Y0183150D03*
X0081614Y0173150D03*
X0081614Y0163150D03*
X0081614Y0153150D03*
X0081614Y0143150D03*
X0081614Y0133150D03*
X0081614Y0123150D03*
X0081614Y0113150D03*
X0081614Y0103150D03*
X0081614Y0093150D03*
X0081614Y0083150D03*
X0091614Y0083150D03*
X0091614Y0093150D03*
X0301145Y0095650D03*
X0301145Y0105650D03*
X0301145Y0115650D03*
X0311145Y0115650D03*
X0311145Y0105650D03*
X0311145Y0095650D03*
X0311145Y0085650D03*
X0301145Y0085650D03*
X0301145Y0125650D03*
X0301145Y0135650D03*
X0301145Y0145650D03*
X0311145Y0145650D03*
X0311145Y0135650D03*
X0311145Y0125650D03*
X0311145Y0155650D03*
X0301145Y0155650D03*
X0301145Y0165650D03*
X0301145Y0175650D03*
X0311145Y0175650D03*
X0311145Y0165650D03*
X0311145Y0185650D03*
X0301145Y0185650D03*
X0301145Y0195650D03*
X0301145Y0205650D03*
X0311145Y0205650D03*
X0311145Y0195650D03*
X0311145Y0215650D03*
X0301145Y0215650D03*
X0301145Y0225650D03*
X0301145Y0235650D03*
X0311145Y0235650D03*
X0311145Y0225650D03*
X0311145Y0245650D03*
X0301145Y0245650D03*
X0301145Y0255650D03*
X0301145Y0265650D03*
X0311145Y0265650D03*
X0311145Y0255650D03*
X0311145Y0275650D03*
X0301145Y0275650D03*
X0301145Y0285650D03*
X0301145Y0295650D03*
X0311145Y0295650D03*
X0311145Y0285650D03*
X0311145Y0305650D03*
X0301145Y0305650D03*
X0301145Y0315650D03*
X0301145Y0325650D03*
X0311145Y0325650D03*
X0311145Y0315650D03*
X0311145Y0335650D03*
X0301145Y0335650D03*
X0301145Y0345650D03*
X0301145Y0355650D03*
X0311145Y0355650D03*
X0311145Y0345650D03*
X0311145Y0365650D03*
X0301145Y0365650D03*
X0301145Y0375650D03*
X0311145Y0375650D03*
D24*
X0272395Y0229546D03*
X0272395Y0222854D03*
X0252942Y0207300D03*
X0246249Y0207300D03*
X0193542Y0203100D03*
X0186849Y0203100D03*
X0242049Y0088800D03*
X0248742Y0088800D03*
X0270249Y0083400D03*
X0276942Y0083400D03*
X0224895Y0056496D03*
X0224895Y0049804D03*
X0185620Y0073385D03*
X0185620Y0080078D03*
X0139492Y0068750D03*
X0132799Y0068750D03*
X0125642Y0068750D03*
X0118949Y0068750D03*
X0118949Y0060800D03*
X0125642Y0060800D03*
X0132799Y0060800D03*
X0139492Y0060800D03*
X0069595Y0111254D03*
X0069595Y0117946D03*
X0058542Y0292200D03*
X0051849Y0292200D03*
X0320649Y0019200D03*
X0327342Y0019200D03*
D25*
X0252595Y0057854D03*
X0252595Y0064546D03*
X0267845Y0091454D03*
X0267845Y0098146D03*
X0277345Y0098496D03*
X0277345Y0091804D03*
X0229895Y0139004D03*
X0229895Y0145696D03*
X0225742Y0165650D03*
X0219049Y0165650D03*
X0201292Y0165650D03*
X0194599Y0165650D03*
X0186992Y0170500D03*
X0180299Y0170500D03*
X0158945Y0197854D03*
X0158945Y0204546D03*
X0158845Y0211254D03*
X0158845Y0217946D03*
X0147101Y0217990D03*
X0147101Y0211297D03*
X0147245Y0204446D03*
X0147245Y0197754D03*
X0137745Y0197654D03*
X0137745Y0204346D03*
X0137845Y0211154D03*
X0137845Y0217846D03*
X0200049Y0266400D03*
X0206742Y0266400D03*
X0211195Y0334454D03*
X0211195Y0341146D03*
X0219595Y0341146D03*
X0219595Y0334454D03*
X0235449Y0354000D03*
X0242142Y0354000D03*
X0324445Y0343946D03*
X0324445Y0337254D03*
X0289195Y0207946D03*
X0289195Y0201254D03*
X0223195Y0092146D03*
X0223195Y0085454D03*
X0102595Y0095054D03*
X0102595Y0101746D03*
X0101745Y0130554D03*
X0101745Y0137246D03*
X0071545Y0139646D03*
X0071545Y0132954D03*
X0070295Y0097946D03*
X0070295Y0091254D03*
X0061195Y0193454D03*
X0061195Y0200146D03*
X0063595Y0209054D03*
X0063595Y0215746D03*
X0050995Y0215746D03*
X0050995Y0209054D03*
X0050995Y0200146D03*
X0050995Y0193454D03*
X0051249Y0261600D03*
X0057942Y0261600D03*
X0060595Y0274454D03*
X0060595Y0281146D03*
X0050395Y0281146D03*
X0050395Y0274454D03*
X0071395Y0288204D03*
X0071395Y0294896D03*
D26*
X0197895Y0183150D03*
X0216895Y0183150D03*
D27*
X0262514Y0038150D03*
X0266451Y0038150D03*
X0270388Y0038150D03*
X0274325Y0038150D03*
D28*
X0286264Y0028150D03*
X0251264Y0028150D03*
D29*
X0220781Y0035650D03*
X0218812Y0035650D03*
X0216844Y0035650D03*
X0214875Y0035650D03*
X0212907Y0035650D03*
X0210938Y0035650D03*
X0208970Y0035650D03*
X0207001Y0035650D03*
X0205033Y0035650D03*
X0203064Y0035650D03*
X0201096Y0035650D03*
X0199127Y0035650D03*
X0197159Y0035650D03*
X0195190Y0035650D03*
X0193222Y0035650D03*
X0191253Y0035650D03*
X0189285Y0035650D03*
X0187316Y0035650D03*
X0185348Y0035650D03*
X0183379Y0035650D03*
X0181411Y0035650D03*
X0179442Y0035650D03*
X0177474Y0035650D03*
X0175505Y0035650D03*
X0173537Y0035650D03*
X0171568Y0035650D03*
X0169600Y0035650D03*
X0167631Y0035650D03*
X0165663Y0035650D03*
X0163694Y0035650D03*
X0161726Y0035650D03*
X0159757Y0035650D03*
X0157789Y0035650D03*
X0155820Y0035650D03*
X0153852Y0035650D03*
X0151883Y0035650D03*
X0149915Y0035650D03*
X0147946Y0035650D03*
X0145978Y0035650D03*
X0144009Y0035650D03*
X0141995Y0035650D03*
X0140026Y0035650D03*
X0138058Y0035650D03*
X0136089Y0035650D03*
X0134121Y0035650D03*
X0132152Y0035650D03*
X0130184Y0035650D03*
X0128215Y0035650D03*
X0126247Y0035650D03*
X0124278Y0035650D03*
D30*
X0118060Y0028957D03*
X0227277Y0028957D03*
D31*
X0360095Y0217200D03*
X0360095Y0220325D03*
X0360095Y0223450D03*
X0360095Y0226575D03*
X0360095Y0229700D03*
X0360095Y0232825D03*
X0360095Y0235950D03*
X0360095Y0239075D03*
X0360095Y0242200D03*
X0360095Y0245325D03*
X0360095Y0248450D03*
X0360095Y0251575D03*
X0360095Y0254700D03*
X0360095Y0257825D03*
X0360095Y0260950D03*
X0360095Y0264075D03*
X0360095Y0267200D03*
X0360095Y0270325D03*
X0360095Y0273450D03*
X0360095Y0276575D03*
X0360095Y0279700D03*
X0360095Y0282825D03*
X0405095Y0282825D03*
X0405095Y0279700D03*
X0405095Y0276575D03*
X0405095Y0273450D03*
X0405095Y0270325D03*
X0405095Y0267200D03*
X0405095Y0264075D03*
X0405095Y0260950D03*
X0405095Y0257825D03*
X0405095Y0254700D03*
X0405095Y0251575D03*
X0405095Y0248450D03*
X0405095Y0245325D03*
X0405095Y0242200D03*
X0405095Y0239075D03*
X0405095Y0235950D03*
X0405095Y0232825D03*
X0405095Y0229700D03*
X0405095Y0226575D03*
X0405095Y0223450D03*
X0405095Y0220325D03*
X0405095Y0217200D03*
D32*
X0217864Y0058306D03*
X0214739Y0058306D03*
X0211614Y0058306D03*
X0208489Y0058306D03*
X0208489Y0052681D03*
X0211614Y0052681D03*
X0214739Y0052681D03*
X0217864Y0052681D03*
X0203839Y0052525D03*
X0200714Y0052525D03*
X0197589Y0052525D03*
X0194464Y0052525D03*
X0189814Y0052525D03*
X0186689Y0052525D03*
X0183564Y0052525D03*
X0180439Y0052525D03*
X0175645Y0053125D03*
X0172520Y0053125D03*
X0169395Y0053125D03*
X0166270Y0053125D03*
X0161614Y0052681D03*
X0158489Y0052681D03*
X0155364Y0052681D03*
X0152239Y0052681D03*
X0152239Y0058306D03*
X0155364Y0058306D03*
X0158489Y0058306D03*
X0161614Y0058306D03*
X0166270Y0058750D03*
X0169395Y0058750D03*
X0172520Y0058750D03*
X0175645Y0058750D03*
X0180439Y0058150D03*
X0183564Y0058150D03*
X0186689Y0058150D03*
X0189814Y0058150D03*
X0194464Y0058150D03*
X0197589Y0058150D03*
X0200714Y0058150D03*
X0203839Y0058150D03*
X0122395Y0192375D03*
X0119270Y0192375D03*
X0116145Y0192375D03*
X0113020Y0192375D03*
X0113020Y0198000D03*
X0116145Y0198000D03*
X0119270Y0198000D03*
X0122395Y0198000D03*
D33*
X0062695Y0227964D03*
X0057695Y0227964D03*
X0052695Y0227964D03*
X0047695Y0227964D03*
X0047695Y0248436D03*
X0052695Y0248436D03*
X0057695Y0248436D03*
X0062695Y0248436D03*
X0062695Y0148236D03*
X0057695Y0148236D03*
X0052695Y0148236D03*
X0047695Y0148236D03*
X0047695Y0127764D03*
X0052695Y0127764D03*
X0057695Y0127764D03*
X0062695Y0127764D03*
D34*
X0057607Y0104000D02*
X0051583Y0104000D01*
X0051583Y0094000D02*
X0057607Y0094000D01*
X0057607Y0084000D02*
X0051583Y0084000D01*
D35*
X0054989Y0312020D03*
X0054989Y0325800D03*
X0054989Y0339580D03*
X0416001Y0116090D03*
X0416001Y0102310D03*
D36*
X0374995Y0322800D03*
X0182995Y0334200D03*
X0143995Y0372000D03*
X0143995Y0286200D03*
X0130795Y0127200D03*
D37*
X0374995Y0332800D03*
X0374995Y0342800D03*
X0384995Y0342800D03*
X0384995Y0332800D03*
X0384995Y0322800D03*
D38*
X0339313Y0034340D03*
X0339313Y0030600D03*
X0339313Y0026860D03*
X0329077Y0026860D03*
X0329077Y0030600D03*
X0329077Y0034340D03*
X0075313Y0059860D03*
X0075313Y0063600D03*
X0075313Y0067340D03*
X0065077Y0067340D03*
X0065077Y0059860D03*
D39*
X0120795Y0127200D03*
X0120795Y0137200D03*
X0120795Y0147200D03*
X0120795Y0157200D03*
X0120795Y0167200D03*
X0130795Y0167200D03*
X0130795Y0157200D03*
X0130795Y0147200D03*
X0130795Y0137200D03*
X0143995Y0246200D03*
X0143995Y0256200D03*
X0143995Y0266200D03*
X0153995Y0266200D03*
X0153995Y0256200D03*
X0153995Y0246200D03*
X0153995Y0276200D03*
X0143995Y0276200D03*
X0153995Y0286200D03*
X0182995Y0294200D03*
X0182995Y0304200D03*
X0192995Y0304200D03*
X0192995Y0294200D03*
X0192995Y0314200D03*
X0182995Y0314200D03*
X0182995Y0324200D03*
X0192995Y0324200D03*
X0192995Y0334200D03*
X0153995Y0332000D03*
X0143995Y0332000D03*
X0143995Y0342000D03*
X0143995Y0352000D03*
X0153995Y0352000D03*
X0153995Y0342000D03*
X0153995Y0362000D03*
X0143995Y0362000D03*
X0153995Y0372000D03*
D40*
X0363595Y0166200D03*
D41*
X0383595Y0166200D03*
D42*
X0262029Y0305528D03*
X0259470Y0305528D03*
X0256911Y0305528D03*
X0254352Y0305528D03*
X0251793Y0305528D03*
X0249234Y0305528D03*
X0246675Y0305528D03*
X0244116Y0305528D03*
X0241557Y0305528D03*
X0238998Y0305528D03*
X0236438Y0305528D03*
X0233879Y0305528D03*
X0231320Y0305528D03*
X0228761Y0305528D03*
X0228761Y0334072D03*
X0231320Y0334072D03*
X0233879Y0334072D03*
X0236438Y0334072D03*
X0238998Y0334072D03*
X0241557Y0334072D03*
X0244116Y0334072D03*
X0246675Y0334072D03*
X0249234Y0334072D03*
X0251793Y0334072D03*
X0254352Y0334072D03*
X0256911Y0334072D03*
X0259470Y0334072D03*
X0262029Y0334072D03*
D43*
X0261145Y0369357D03*
X0264294Y0369357D03*
X0257995Y0369357D03*
X0254846Y0369357D03*
X0251696Y0369357D03*
D44*
X0240279Y0369357D03*
X0240279Y0391011D03*
X0275712Y0391011D03*
X0275712Y0369357D03*
D45*
X0266657Y0379200D03*
X0249334Y0379200D03*
D46*
X0275995Y0357765D03*
X0275995Y0349035D03*
D47*
X0260526Y0346060D03*
X0260526Y0353540D03*
X0251864Y0346060D03*
D48*
X0251864Y0352753D03*
D49*
X0275995Y0340340D03*
X0275995Y0332860D03*
X0367795Y0114740D03*
X0367795Y0107260D03*
X0358195Y0092540D03*
X0358195Y0085060D03*
X0362395Y0060740D03*
X0362395Y0053260D03*
X0343795Y0053260D03*
X0343795Y0060740D03*
X0350995Y0033740D03*
X0350995Y0026260D03*
X0232795Y0085660D03*
X0232795Y0093140D03*
X0101395Y0045740D03*
X0101395Y0038260D03*
D50*
X0211195Y0313510D03*
X0219595Y0313510D03*
X0219595Y0327290D03*
X0211195Y0327290D03*
D51*
X0291545Y0053400D03*
X0307795Y0053400D03*
X0078045Y0042600D03*
X0061795Y0042600D03*
D52*
X0131395Y0080974D03*
X0131395Y0100226D03*
D53*
X0100795Y0069600D03*
X0100795Y0054600D03*
D54*
X0075707Y0023400D03*
X0064683Y0023400D03*
D55*
X0087569Y0021600D03*
X0106821Y0021600D03*
D56*
X0390455Y0106069D03*
X0397935Y0106069D03*
X0394195Y0114731D03*
D57*
X0380395Y0116512D03*
X0380395Y0105488D03*
X0361195Y0036112D03*
X0361195Y0025088D03*
X0118195Y0086888D03*
X0118195Y0097912D03*
X0092995Y0046912D03*
X0092995Y0035888D03*
D58*
X0329995Y0052398D03*
X0329995Y0077202D03*
X0337795Y0092598D03*
X0337795Y0117402D03*
D59*
X0349655Y0070200D03*
X0357135Y0070200D03*
X0350535Y0043800D03*
X0343055Y0043800D03*
D60*
X0406595Y0067200D03*
D61*
X0373795Y0067200D03*
X0373795Y0060500D03*
X0373795Y0053800D03*
X0373795Y0073900D03*
X0373795Y0080600D03*
D62*
X0319326Y0034340D03*
X0319326Y0026860D03*
X0310664Y0030600D03*
D63*
X0252595Y0268000D02*
X0252595Y0278000D01*
X0235195Y0278000D02*
X0235195Y0268000D01*
X0217795Y0268000D02*
X0217795Y0278000D01*
X0060795Y0169200D02*
X0050795Y0169200D01*
D64*
X0192595Y0366402D03*
X0192595Y0377598D03*
D65*
X0214795Y0379677D03*
X0214795Y0364323D03*
D66*
X0258595Y0063000D03*
X0273595Y0063000D03*
D67*
X0249595Y0220800D03*
X0244595Y0220800D03*
X0239595Y0220800D03*
X0234595Y0220800D03*
X0217795Y0220800D03*
X0212795Y0220800D03*
X0207795Y0220800D03*
X0202795Y0220800D03*
X0202795Y0250800D03*
X0207795Y0250800D03*
X0212795Y0250800D03*
X0217795Y0250800D03*
X0234595Y0250800D03*
X0239595Y0250800D03*
X0244595Y0250800D03*
X0249595Y0250800D03*
D68*
X0262795Y0256800D03*
X0189595Y0256800D03*
D69*
X0189595Y0251800D03*
X0189595Y0246800D03*
X0189595Y0241800D03*
X0189595Y0236800D03*
X0189595Y0231800D03*
X0189595Y0226800D03*
X0189595Y0221800D03*
X0189595Y0216800D03*
X0262795Y0216800D03*
X0262795Y0221800D03*
X0262795Y0226800D03*
X0262795Y0231800D03*
X0262795Y0236800D03*
X0262795Y0241800D03*
X0262795Y0246800D03*
X0262795Y0251800D03*
M02*
