G75*
%MOIN*%
%OFA0B0*%
%FSLAX25Y25*%
%IPPOS*%
%LPD*%
%AMOC8*
5,1,8,0,0,1.08239X$1,22.5*
%
%ADD10C,0.15120*%
%ADD11R,0.05669X0.05669*%
%ADD12R,0.05118X0.04724*%
%ADD13R,0.04724X0.05118*%
%ADD14R,0.06929X0.06142*%
%ADD15C,0.05760*%
%ADD16C,0.07228*%
%ADD17C,0.07087*%
%ADD18R,0.07228X0.07228*%
%ADD19C,0.07228*%
%ADD20R,0.02762X0.01975*%
%ADD21OC8,0.07228*%
%ADD22R,0.09921X0.09921*%
%ADD23C,0.09921*%
%ADD24C,0.04252*%
%ADD25R,0.07559X0.08346*%
%ADD26R,0.06142X0.06929*%
%ADD27R,0.06850X0.11378*%
%ADD28R,0.07720X0.04320*%
%ADD29R,0.08504X0.14016*%
%ADD30R,0.01975X0.02762*%
%ADD31C,0.12000*%
%ADD32R,0.08358X0.07559*%
%ADD33R,0.04800X0.04800*%
%ADD34C,0.04800*%
%ADD35R,0.08346X0.07559*%
D10*
X0050995Y0021600D03*
X0050995Y0389400D03*
X0418795Y0389400D03*
X0418795Y0021600D03*
D11*
X0311145Y0085650D03*
X0301145Y0085650D03*
X0301145Y0095650D03*
X0301145Y0105650D03*
X0301145Y0115650D03*
X0311145Y0115650D03*
X0311145Y0105650D03*
X0311145Y0095650D03*
X0311145Y0125650D03*
X0301145Y0125650D03*
X0301145Y0135650D03*
X0301145Y0145650D03*
X0311145Y0145650D03*
X0311145Y0135650D03*
X0311145Y0155650D03*
X0301145Y0155650D03*
X0301145Y0165650D03*
X0301145Y0175650D03*
X0311145Y0175650D03*
X0311145Y0165650D03*
X0311145Y0185650D03*
X0301145Y0185650D03*
X0301145Y0195650D03*
X0301145Y0205650D03*
X0311145Y0205650D03*
X0311145Y0195650D03*
X0311145Y0215650D03*
X0301145Y0215650D03*
X0301145Y0225650D03*
X0301145Y0235650D03*
X0311145Y0235650D03*
X0311145Y0225650D03*
X0311145Y0245650D03*
X0301145Y0245650D03*
X0301145Y0255650D03*
X0301145Y0265650D03*
X0311145Y0265650D03*
X0311145Y0255650D03*
X0311145Y0275650D03*
X0301145Y0275650D03*
X0301145Y0285650D03*
X0301145Y0295650D03*
X0311145Y0295650D03*
X0311145Y0285650D03*
X0311145Y0305650D03*
X0301145Y0305650D03*
X0301145Y0315650D03*
X0301145Y0325650D03*
X0311145Y0325650D03*
X0311145Y0315650D03*
X0311145Y0335650D03*
X0301145Y0335650D03*
X0301145Y0345650D03*
X0301145Y0355650D03*
X0311145Y0355650D03*
X0311145Y0345650D03*
X0311145Y0365650D03*
X0301145Y0365650D03*
X0301145Y0375650D03*
X0311145Y0375650D03*
X0091614Y0373150D03*
X0091614Y0363150D03*
X0091614Y0353150D03*
X0091614Y0343150D03*
X0091614Y0333150D03*
X0091614Y0323150D03*
X0091614Y0313150D03*
X0091614Y0303150D03*
X0091614Y0293150D03*
X0091614Y0283150D03*
X0091614Y0273150D03*
X0091614Y0263150D03*
X0091614Y0253150D03*
X0091614Y0243150D03*
X0091614Y0233150D03*
X0091614Y0223150D03*
X0091614Y0213150D03*
X0091614Y0203150D03*
X0091614Y0193150D03*
X0091614Y0183150D03*
X0091614Y0173150D03*
X0091614Y0163150D03*
X0091614Y0153150D03*
X0091614Y0143150D03*
X0091614Y0133150D03*
X0091614Y0123150D03*
X0091614Y0113150D03*
X0091614Y0103150D03*
X0091614Y0093150D03*
X0091614Y0083150D03*
X0081614Y0083150D03*
X0081614Y0093150D03*
X0081614Y0103150D03*
X0081614Y0113150D03*
X0081614Y0123150D03*
X0081614Y0133150D03*
X0081614Y0143150D03*
X0081614Y0153150D03*
X0081614Y0163150D03*
X0081614Y0173150D03*
X0081614Y0183150D03*
X0081614Y0193150D03*
X0081614Y0203150D03*
X0081614Y0213150D03*
X0081614Y0223150D03*
X0081614Y0233150D03*
X0081614Y0243150D03*
X0081614Y0253150D03*
X0081614Y0263150D03*
X0081614Y0273150D03*
X0081614Y0283150D03*
X0081614Y0293150D03*
X0081614Y0303150D03*
X0081614Y0313150D03*
X0081614Y0323150D03*
X0081614Y0333150D03*
X0081614Y0343150D03*
X0081614Y0353150D03*
X0081614Y0363150D03*
X0081614Y0373150D03*
D12*
X0242049Y0318600D03*
X0248742Y0318600D03*
X0180742Y0120650D03*
X0174049Y0120650D03*
X0174049Y0112500D03*
X0180742Y0112500D03*
X0131095Y0112154D03*
X0131095Y0118846D03*
X0191995Y0035996D03*
X0191995Y0029304D03*
X0200395Y0029204D03*
X0200395Y0035896D03*
X0236395Y0033346D03*
X0236395Y0026654D03*
X0149742Y0025800D03*
X0143049Y0025800D03*
D13*
X0160149Y0027600D03*
X0166842Y0027600D03*
X0169092Y0036350D03*
X0162399Y0036350D03*
X0176699Y0036350D03*
X0183392Y0036350D03*
X0221649Y0027600D03*
X0228342Y0027600D03*
X0244795Y0026654D03*
X0244795Y0033346D03*
X0253195Y0033346D03*
X0253195Y0026654D03*
X0263395Y0029746D03*
X0263395Y0023054D03*
X0271795Y0023054D03*
X0271795Y0029746D03*
X0280195Y0029746D03*
X0280195Y0023054D03*
X0288595Y0023054D03*
X0288595Y0029746D03*
X0231342Y0078000D03*
X0224649Y0078000D03*
X0218245Y0117554D03*
X0218245Y0124246D03*
X0207795Y0131904D03*
X0200392Y0129800D03*
X0193699Y0129800D03*
X0193399Y0138950D03*
X0200092Y0138950D03*
X0207795Y0138596D03*
X0187542Y0153000D03*
X0180849Y0153000D03*
X0178542Y0172200D03*
X0171849Y0172200D03*
X0204049Y0188150D03*
X0210742Y0188150D03*
X0156095Y0125846D03*
X0156095Y0119154D03*
X0153845Y0110696D03*
X0153845Y0104004D03*
X0155742Y0096600D03*
X0149049Y0096600D03*
X0385645Y0245954D03*
X0385645Y0252646D03*
D14*
X0226145Y0185640D03*
X0226145Y0178160D03*
X0188645Y0178160D03*
X0188645Y0185640D03*
X0098995Y0043940D03*
X0098995Y0036460D03*
X0089395Y0036460D03*
X0089395Y0043940D03*
D15*
X0197895Y0183150D03*
X0216895Y0183150D03*
D16*
X0057607Y0104000D02*
X0051583Y0104000D01*
X0051583Y0094000D02*
X0057607Y0094000D01*
X0057607Y0084000D02*
X0051583Y0084000D01*
D17*
X0054989Y0312020D03*
X0054989Y0325800D03*
X0054989Y0339580D03*
X0416001Y0116090D03*
X0416001Y0102310D03*
D18*
X0374995Y0322800D03*
X0182995Y0334200D03*
X0143995Y0372000D03*
X0143995Y0286200D03*
X0130795Y0127200D03*
D19*
X0374995Y0332800D03*
X0374995Y0342800D03*
X0384995Y0342800D03*
X0384995Y0332800D03*
X0384995Y0322800D03*
D20*
X0184420Y0140775D03*
X0184420Y0137650D03*
X0184420Y0134525D03*
X0184420Y0131400D03*
X0178795Y0131400D03*
X0178795Y0134525D03*
X0178795Y0137650D03*
X0178795Y0140775D03*
X0181420Y0234000D03*
X0181420Y0237125D03*
X0181420Y0240250D03*
X0181420Y0243375D03*
X0175795Y0243375D03*
X0175795Y0240250D03*
X0175795Y0237125D03*
X0175795Y0234000D03*
D21*
X0153995Y0246200D03*
X0143995Y0246200D03*
X0143995Y0256200D03*
X0143995Y0266200D03*
X0153995Y0266200D03*
X0153995Y0256200D03*
X0153995Y0276200D03*
X0143995Y0276200D03*
X0153995Y0286200D03*
X0182995Y0294200D03*
X0182995Y0304200D03*
X0192995Y0304200D03*
X0192995Y0294200D03*
X0192995Y0314200D03*
X0182995Y0314200D03*
X0182995Y0324200D03*
X0192995Y0324200D03*
X0192995Y0334200D03*
X0153995Y0332000D03*
X0143995Y0332000D03*
X0143995Y0342000D03*
X0143995Y0352000D03*
X0153995Y0352000D03*
X0153995Y0342000D03*
X0153995Y0362000D03*
X0143995Y0362000D03*
X0153995Y0372000D03*
X0130795Y0167200D03*
X0130795Y0157200D03*
X0130795Y0147200D03*
X0120795Y0147200D03*
X0120795Y0157200D03*
X0120795Y0167200D03*
X0120795Y0137200D03*
X0120795Y0127200D03*
X0130795Y0137200D03*
D22*
X0363595Y0166200D03*
D23*
X0383595Y0166200D03*
D24*
X0266657Y0379200D03*
X0249334Y0379200D03*
D25*
X0076307Y0067200D03*
X0065283Y0067200D03*
X0208983Y0037200D03*
X0220007Y0037200D03*
X0271083Y0064200D03*
X0282107Y0064200D03*
D26*
X0298655Y0021600D03*
X0306135Y0021600D03*
X0100335Y0055200D03*
X0092855Y0055200D03*
X0074535Y0057000D03*
X0067055Y0057000D03*
D27*
X0072569Y0021600D03*
X0091821Y0021600D03*
X0274769Y0048000D03*
X0294021Y0048000D03*
D28*
X0122995Y0034800D03*
X0122995Y0019800D03*
D29*
X0327372Y0031200D03*
X0349419Y0031200D03*
D30*
X0113170Y0149775D03*
X0110045Y0149775D03*
X0106920Y0149775D03*
X0103795Y0149775D03*
X0103795Y0155400D03*
X0106920Y0155400D03*
X0110045Y0155400D03*
X0113170Y0155400D03*
D31*
X0060795Y0169200D02*
X0050795Y0169200D01*
X0217795Y0268000D02*
X0217795Y0278000D01*
X0235195Y0278000D02*
X0235195Y0268000D01*
X0252595Y0268000D02*
X0252595Y0278000D01*
D32*
X0132595Y0096798D03*
X0121795Y0096798D03*
X0121795Y0085602D03*
X0132595Y0085602D03*
D33*
X0189595Y0256800D03*
X0262795Y0256800D03*
D34*
X0262795Y0251800D03*
X0262795Y0246800D03*
X0262795Y0241800D03*
X0262795Y0236800D03*
X0262795Y0231800D03*
X0262795Y0226800D03*
X0262795Y0221800D03*
X0262795Y0216800D03*
X0189595Y0216800D03*
X0189595Y0221800D03*
X0189595Y0226800D03*
X0189595Y0231800D03*
X0189595Y0236800D03*
X0189595Y0241800D03*
X0189595Y0246800D03*
X0189595Y0251800D03*
D35*
X0111595Y0096712D03*
X0111595Y0085688D03*
X0076795Y0046312D03*
X0076795Y0035288D03*
X0110395Y0037912D03*
X0110395Y0026888D03*
M02*
